<svg width="18" height="18" viewBox="0 0 18 18" fill="none" xmlns="http://www.w3.org/2000/svg">
<path d="M17.2464 13.4959H14.9944V11.2438C14.9944 11.0447 14.9153 10.8538 14.7745 10.713C14.6337 10.5723 14.4428 10.4932 14.2437 10.4932C14.0446 10.4932 13.8536 10.5723 13.7129 10.713C13.5721 10.8538 13.493 11.0447 13.493 11.2438V13.4959H11.2409C11.0418 13.4959 10.8509 13.575 10.7101 13.7157C10.5693 13.8565 10.4902 14.0475 10.4902 14.2465C10.4902 14.4456 10.5693 14.6366 10.7101 14.7774C10.8509 14.9181 11.0418 14.9972 11.2409 14.9972H13.493V17.2492C13.493 17.4483 13.5721 17.6393 13.7129 17.7801C13.8536 17.9208 14.0446 17.9999 14.2437 17.9999C14.4428 17.9999 14.6337 17.9208 14.7745 17.7801C14.9153 17.6393 14.9944 17.4483 14.9944 17.2492V14.9972H17.2464C17.4455 14.9972 17.6365 14.9181 17.7772 14.7774C17.918 14.6366 17.9971 14.4456 17.9971 14.2465C17.9971 14.0475 17.918 13.8565 17.7772 13.7157C17.6365 13.575 17.4455 13.4959 17.2464 13.4959Z" fill="#696972"/>
<path d="M8.23882 5.23822V8.68082L6.20671 10.7129C6.13502 10.7821 6.07783 10.865 6.03848 10.9566C5.99914 11.0481 5.97843 11.1467 5.97757 11.2463C5.9767 11.346 5.9957 11.4448 6.03344 11.5371C6.07119 11.6294 6.12693 11.7132 6.19741 11.7837C6.26789 11.8541 6.35171 11.9099 6.44397 11.9476C6.53622 11.9854 6.63507 12.0044 6.73475 12.0035C6.83442 12.0026 6.93293 11.9819 7.02452 11.9426C7.1161 11.9032 7.19894 11.846 7.26818 11.7744L9.52024 9.52233C9.66103 9.38158 9.74015 9.19067 9.74019 8.9916V5.23822C9.74019 5.03913 9.6611 4.8482 9.52032 4.70742C9.37954 4.56664 9.1886 4.48755 8.98951 4.48755C8.79041 4.48755 8.59947 4.56664 8.45869 4.70742C8.31791 4.8482 8.23882 5.03913 8.23882 5.23822Z" fill="#696972"/>
<path d="M11.0368 16.216C9.44047 16.6659 7.73996 16.5737 6.20163 15.9537C4.6633 15.3338 3.37404 14.2211 2.53576 12.79C1.69748 11.3589 1.35754 9.69018 1.56916 8.0452C1.78078 6.40023 2.53202 4.87189 3.70523 3.69955C4.87843 2.52722 6.40734 1.7771 8.0525 1.56667C9.69765 1.35624 11.3661 1.69739 12.7967 2.53669C14.2272 3.376 15.3389 4.66604 15.9578 6.20479C16.5766 7.74355 16.6677 9.4441 16.2166 11.0401C16.1861 11.1361 16.1752 11.2372 16.1845 11.3374C16.1939 11.4377 16.2233 11.535 16.2711 11.6237C16.3188 11.7123 16.3839 11.7905 16.4625 11.8534C16.541 11.9164 16.6315 11.9629 16.7284 11.9902C16.8253 12.0175 16.9267 12.0251 17.0266 12.0124C17.1265 11.9997 17.2228 11.967 17.3098 11.9163C17.3968 11.8656 17.4728 11.798 17.5331 11.7173C17.5934 11.6367 17.6369 11.5448 17.6609 11.447C18.2025 9.53034 18.0929 7.4882 17.3495 5.64047C16.6061 3.79275 15.2707 2.24382 13.5526 1.23635C11.8345 0.228876 9.83069 -0.180228 7.85516 0.0731244C5.87962 0.326477 4.04393 1.22797 2.63567 2.63639C1.2274 4.04481 0.326106 5.88057 0.0729873 7.8561C-0.180131 9.83164 0.229223 11.8353 1.23692 13.5533C2.24462 15.2712 3.79373 16.6064 5.64158 17.3496C7.48942 18.0928 9.53161 18.2021 11.4482 17.6603C11.5452 17.6354 11.6361 17.5913 11.7158 17.5307C11.7955 17.4701 11.8622 17.3942 11.9121 17.3075C11.962 17.2207 11.994 17.1248 12.0063 17.0255C12.0186 16.9261 12.0109 16.8254 11.9837 16.729C11.9564 16.6327 11.9102 16.5428 11.8477 16.4646C11.7852 16.3865 11.7078 16.3215 11.6198 16.2737C11.5319 16.2259 11.4353 16.1962 11.3357 16.1863C11.2361 16.1764 11.1355 16.1865 11.0398 16.216H11.0368Z" fill="#696972"/>
</svg>
