<svg width="17" height="19" viewBox="0 0 17 19" fill="none" xmlns="http://www.w3.org/2000/svg">
<path d="M10.8183 4.75C11.0232 4.75 11.2198 4.83341 11.3647 4.98187C11.5096 5.13034 11.591 5.3317 11.591 5.54167C11.591 5.75163 11.5096 5.95299 11.3647 6.10146C11.2198 6.24993 11.0232 6.33333 10.8183 6.33333H4.63641C4.43147 6.33333 4.23492 6.24993 4.09 6.10146C3.94509 5.95299 3.86367 5.75163 3.86367 5.54167C3.86367 5.3317 3.94509 5.13034 4.09 4.98187C4.23492 4.83341 4.43147 4.75 4.63641 4.75H10.8183ZM16.7738 18.768C16.6288 18.9165 16.4323 18.9998 16.2274 18.9998C16.0225 18.9998 15.826 18.9165 15.6811 18.768L13.8211 16.8625C13.2703 17.2227 12.6308 17.4149 11.9774 17.4167C11.2896 17.4167 10.6173 17.2077 10.0455 16.8163C9.47366 16.4248 9.02797 15.8684 8.76478 15.2175C8.50159 14.5665 8.43272 13.8502 8.5669 13.1592C8.70107 12.4681 9.03225 11.8333 9.51856 11.3351C10.0049 10.8369 10.6245 10.4976 11.299 10.3601C11.9735 10.2227 12.6727 10.2932 13.3081 10.5628C13.9435 10.8325 14.4866 11.2891 14.8687 11.8749C15.2508 12.4608 15.4547 13.1496 15.4547 13.8542C15.453 14.5236 15.2653 15.1788 14.9138 15.7431L16.7738 17.6486C16.9186 17.7971 17 17.9984 17 18.2083C17 18.4183 16.9186 18.6196 16.7738 18.768ZM11.9774 15.8333C12.3595 15.8333 12.733 15.7173 13.0507 15.4998C13.3683 15.2823 13.616 14.9732 13.7622 14.6116C13.9084 14.2499 13.9466 13.852 13.8721 13.4681C13.7976 13.0841 13.6136 12.7315 13.3434 12.4547C13.0732 12.1779 12.729 11.9894 12.3543 11.913C11.9795 11.8367 11.5911 11.8759 11.2381 12.0257C10.8851 12.1755 10.5834 12.4291 10.3711 12.7546C10.1589 13.0801 10.0456 13.4627 10.0456 13.8542C10.0456 14.3791 10.2491 14.8825 10.6114 15.2536C10.9737 15.6248 11.465 15.8333 11.9774 15.8333ZM8.50008 17.4167H3.86367C3.24885 17.4167 2.6592 17.1664 2.22446 16.721C1.78971 16.2756 1.54547 15.6716 1.54547 15.0417V3.95833C1.54547 3.32844 1.78971 2.72435 2.22446 2.27895C2.6592 1.83356 3.24885 1.58333 3.86367 1.58333H13.1365C13.3414 1.58333 13.538 1.66674 13.6829 1.81521C13.8278 1.96367 13.9092 2.16504 13.9092 2.375V8.70833C13.9092 8.9183 13.9906 9.11966 14.1356 9.26813C14.2805 9.41659 14.477 9.5 14.682 9.5C14.8869 9.5 15.0835 9.41659 15.2284 9.26813C15.3733 9.11966 15.4547 8.9183 15.4547 8.70833V2.375C15.4547 1.74511 15.2105 1.14102 14.7757 0.695621C14.341 0.250222 13.7513 0 13.1365 0L3.86367 0C2.83934 0.00125705 1.85731 0.418698 1.133 1.16076C0.408685 1.90282 0.00122699 2.9089 0 3.95833V15.0417C0.00122699 16.0911 0.408685 17.0972 1.133 17.8392C1.85731 18.5813 2.83934 18.9987 3.86367 19H8.50008C8.70502 19 8.90157 18.9166 9.04649 18.7681C9.1914 18.6197 9.27282 18.4183 9.27282 18.2083C9.27282 17.9984 9.1914 17.797 9.04649 17.6485C8.90157 17.5001 8.70502 17.4167 8.50008 17.4167Z" fill="#696972"/>
</svg>
