<svg width="45" height="45" viewBox="0 0 45 45" fill="none" xmlns="http://www.w3.org/2000/svg">
<g opacity="0.4">
<g clip-path="url(#clip0_17_1684)">
<path d="M20 38.75C31.0463 38.75 40 29.7963 40 18.75H0C0 29.7963 8.955 38.75 20 38.75Z" fill="#A0041E"/>
<path d="M19.9998 29.8963C31.0807 29.8963 40.0635 24.9059 40.0635 18.75C40.0635 12.5941 31.0807 7.60376 19.9998 7.60376C8.91889 7.60376 -0.0639648 12.5941 -0.0639648 18.75C-0.0639648 24.9059 8.91889 29.8963 19.9998 29.8963Z" fill="#EA596E"/>
<path d="M20 28.3987C30.1075 28.3987 38.3012 24.0788 38.3012 18.7499C38.3012 13.4211 30.1075 9.1012 20 9.1012C9.89248 9.1012 1.69873 13.4211 1.69873 18.7499C1.69873 24.0788 9.89248 28.3987 20 28.3987Z" fill="#662113"/>
<path d="M42.5 10C41.25 10 37.5 11.25 32.5 15C26.8437 19.2425 23.005 17.7338 23.005 17.7338L23.0062 17.7375C21.2262 16.8163 18.8587 16.25 16.25 16.25C10.7275 16.25 6.25 18.7688 6.25 21.875C6.25 24.9813 10.7275 27.5 16.25 27.5C19.7162 27.5 22.77 26.5075 24.5637 25C24.5637 25 30.8075 19.4613 33.75 17.5C37.5 15 40 13.75 42.5 13.75C45 13.75 45 10 42.5 10Z" fill="#9F9FAC"/>
<path d="M16.25 26.875C19.7018 26.875 22.5 25.4759 22.5 23.75C22.5 22.0241 19.7018 20.625 16.25 20.625C12.7982 20.625 10 22.0241 10 23.75C10 25.4759 12.7982 26.875 16.25 26.875Z" fill="#E7E7E7"/>
</g>
</g>
<defs>
<clipPath id="clip0_17_1684">
<rect width="45" height="45" fill="white"/>
</clipPath>
</defs>
</svg>
