<svg width="180" height="121" viewBox="0 0 180 121" fill="none" xmlns="http://www.w3.org/2000/svg">
<g clip-path="url(#clip0_17_1968)">
<path d="M109.709 115.328C105.096 114.348 99.0379 113.513 91.9412 113.715C84.1074 113.94 77.5654 115.356 72.7632 116.78V100.107C74.4532 96.8479 77.7716 94.8149 81.2939 94.8932C85.7358 94.9905 88.3052 98.3923 88.6062 98.8051C89.1348 98.1978 92.4722 94.497 97.9096 94.4259C104.573 94.3381 108.327 99.7777 108.595 100.181C108.827 102.648 109.038 105.165 109.225 107.727C109.415 110.303 109.574 112.837 109.704 115.328H109.709Z" fill="#323237"/>
<path d="M62.8744 88.5023C65.2992 94.0131 62.3316 99.7089 58.2642 100.788C55.1994 101.6 51.369 99.8275 49.2926 96.2691C47.9249 100.888 42.9805 103.317 38.8254 101.77C35.0092 100.349 32.7835 95.918 34.0421 91.693C30.5388 93.5078 26.424 93.235 23.5109 90.9718C23.1009 90.6539 19.2705 87.5723 19.9768 82.8207C20.4509 79.6276 22.788 76.9469 25.976 75.9435C21.0482 75.9696 17.6208 71.6426 18.2181 67.8374C18.7301 64.5827 22.1717 61.7953 26.2723 62.1226C23.2692 59.7693 22.7406 54.8113 25.182 51.8673C27.621 48.9233 32.5489 48.5722 35.3742 51.1414C34.4072 47.9459 35.6421 44.7908 37.9579 43.6142C39.9987 42.5775 42.1746 43.4339 42.5942 43.6071C41.0108 47.0326 38.3845 53.9786 39.188 62.7845C39.3848 64.929 39.9608 70.6794 42.9568 75.7964C51.049 89.6149 71.443 89.6528 73.0074 89.6339C69.6273 89.2567 66.2473 88.8795 62.8696 88.5023H62.8744Z" fill="#C1F1C1"/>
<path d="M61.9523 89.0408C61.9641 89.0693 62.0281 89.2306 61.9618 89.0645C61.9807 89.112 61.9997 89.157 62.0163 89.2045C62.0589 89.3112 62.0992 89.4204 62.1372 89.5295C62.2177 89.7596 62.2912 89.9921 62.3552 90.2269C62.4145 90.4404 62.4666 90.6587 62.5117 90.8746C62.533 90.9813 62.5543 91.0904 62.5733 91.1972C62.5851 91.2612 62.6302 91.6052 62.6041 91.3727C62.6539 91.8235 62.6847 92.2742 62.6776 92.7297C62.6752 92.9361 62.6657 93.1425 62.6491 93.3488C62.642 93.4366 62.6349 93.5244 62.6254 93.6098C62.6183 93.6667 62.6112 93.726 62.6065 93.783C62.6231 93.6359 62.6207 93.681 62.6017 93.7996C62.5377 94.2076 62.45 94.6109 62.3339 95.0047C62.2794 95.1921 62.2201 95.3771 62.1538 95.5622C62.1206 95.6523 62.0874 95.7425 62.0518 95.8326C62.0376 95.8706 62.021 95.9085 62.0068 95.9465C62.0969 95.7164 62.0234 95.9062 62.002 95.956C61.8432 96.3118 61.6607 96.6582 61.4569 96.9903C61.3597 97.1469 61.2578 97.301 61.1511 97.4529C61.099 97.5264 61.0421 97.6 60.9899 97.6735C60.9046 97.7945 61.1108 97.5312 61.0136 97.6427C60.9805 97.6806 60.9496 97.7233 60.9165 97.7636C60.6818 98.0459 60.4258 98.314 60.1532 98.5607C60.0797 98.6271 60.0039 98.6936 59.928 98.7576C59.838 98.8335 59.7835 98.8952 59.9115 98.7766C59.7716 98.9071 59.5915 99.0115 59.4303 99.1135C59.2881 99.2036 59.1411 99.289 58.9918 99.3697C58.9278 99.4029 58.8638 99.4361 58.7998 99.4669C58.7571 99.4883 58.7145 99.5073 58.6694 99.5286C58.6315 99.5452 58.4419 99.5998 58.6007 99.5594C58.7595 99.5191 58.4988 99.595 58.4632 99.6093C58.385 99.6377 58.3068 99.6638 58.2285 99.6876C58.0579 99.7397 57.8849 99.7848 57.7118 99.8228C57.6289 99.8394 57.5483 99.8536 57.4653 99.8702C57.2188 99.9153 57.6241 99.8607 57.4274 99.8773C57.2472 99.8939 57.0671 99.9082 56.8846 99.9129C56.7139 99.9177 56.5409 99.9129 56.3702 99.9034C56.2849 99.8987 56.1972 99.8916 56.1119 99.8844C56.0621 99.8797 56.0123 99.875 55.9625 99.8678C55.8061 99.8512 55.9791 99.8892 56.0242 99.8773C55.9057 99.9153 55.626 99.8062 55.5027 99.7801C55.3155 99.7374 55.1306 99.6875 54.9457 99.633C54.7703 99.5808 54.5996 99.5215 54.429 99.4551C54.3318 99.4171 54.1611 99.3436 54.3531 99.429C54.2559 99.3863 54.1588 99.3436 54.0616 99.2985C53.6563 99.1063 53.2652 98.881 52.893 98.6319C52.8006 98.5702 52.7105 98.5062 52.6204 98.4397C52.5754 98.4065 52.5304 98.3733 52.4853 98.3401C52.3597 98.25 52.6204 98.4516 52.5019 98.352C52.3147 98.1978 52.1298 98.0436 51.9496 97.8799C51.6059 97.562 51.2836 97.2204 50.9873 96.8598C50.9494 96.8147 50.9138 96.7673 50.8759 96.7198C50.9375 96.7958 50.9399 96.8052 50.8783 96.7198C50.7977 96.6107 50.7171 96.4992 50.6412 96.3877C50.4943 96.1718 50.3544 95.9512 50.2217 95.7282C49.7476 94.924 48.5364 95.1091 48.2733 95.9821C48.2141 96.1813 48.1477 96.3782 48.0742 96.5728C48.0434 96.6558 47.9581 96.8598 48.0434 96.6605C48.0007 96.7602 47.9557 96.8598 47.9083 96.9571C47.7376 97.3177 47.5385 97.6664 47.3181 98.0009C47.2588 98.0886 47.1996 98.174 47.1379 98.2594C47.1142 98.2903 47.0882 98.3211 47.0692 98.3543C46.9886 98.4801 47.1901 98.212 47.0929 98.3259C46.9649 98.473 46.8464 98.6271 46.716 98.7719C46.4553 99.0565 46.178 99.3246 45.8817 99.5689C45.8295 99.6116 45.6067 99.8346 45.7987 99.6401C45.7395 99.7018 45.6518 99.7492 45.583 99.7967C45.429 99.9058 45.2702 100.01 45.1066 100.11C44.9431 100.209 44.7795 100.302 44.6112 100.39C44.4619 100.468 44.2675 100.603 44.1016 100.634C44.2983 100.596 44.2249 100.584 44.149 100.615C44.1016 100.634 44.0566 100.653 44.0092 100.67C43.9262 100.701 43.8456 100.731 43.7627 100.76C43.5849 100.821 43.4071 100.876 43.2246 100.926C43.0421 100.976 42.8619 101.018 42.6771 101.054C42.5917 101.071 42.5064 101.087 42.4187 101.101C42.3808 101.109 42.3026 101.13 42.2717 101.125C42.3215 101.135 42.4851 101.101 42.3334 101.116C41.9589 101.154 41.5867 101.175 41.2122 101.163C41.025 101.158 40.8377 101.142 40.6505 101.125C40.3968 101.101 40.7927 101.154 40.5983 101.12C40.4988 101.104 40.3992 101.087 40.2997 101.068C39.9251 100.995 39.5554 100.895 39.1951 100.765C39.0932 100.729 38.9936 100.686 38.8917 100.648C39.0884 100.724 38.8941 100.648 38.8087 100.608C38.6239 100.52 38.4437 100.428 38.2659 100.326C38.0882 100.224 37.9199 100.117 37.7516 100.001C37.6734 99.9461 37.5975 99.8916 37.5217 99.837C37.479 99.8062 37.37 99.7089 37.5454 99.856C37.5051 99.8204 37.4624 99.7896 37.4198 99.754C37.1092 99.4954 36.8177 99.2155 36.5499 98.9118C36.4787 98.8312 36.4076 98.7481 36.3413 98.6651C36.3152 98.6343 36.2915 98.6011 36.2654 98.5702C36.1682 98.454 36.3721 98.7173 36.2844 98.5939C36.1682 98.4279 36.0473 98.2642 35.9383 98.0934C35.7179 97.7494 35.5306 97.3888 35.36 97.0187C35.277 96.8408 35.3576 97.0164 35.3694 97.0472C35.3434 96.9832 35.3173 96.9215 35.2936 96.8574C35.2533 96.7554 35.2177 96.6534 35.1822 96.549C35.1063 96.3284 35.04 96.1031 34.9831 95.8777C34.9262 95.6523 34.8788 95.4198 34.8409 95.1874C34.8385 95.1684 34.8124 95.0782 34.8219 95.064C34.8385 95.1968 34.8409 95.2206 34.8314 95.1399C34.8267 95.1114 34.8243 95.0854 34.8219 95.0569C34.8077 94.9312 34.7958 94.8054 34.7887 94.6797C34.7579 94.2123 34.765 93.7426 34.8101 93.2777C34.8148 93.2207 34.8243 93.1638 34.829 93.1069C34.8456 92.9456 34.7864 93.3678 34.8314 93.0903C34.8504 92.9764 34.8693 92.8602 34.893 92.7463C34.9452 92.4853 35.0092 92.2291 35.085 91.9753C35.2059 91.5625 35.0329 91.1094 34.7034 90.8532C34.3526 90.5828 33.9093 90.5709 33.5183 90.7702C33.3855 90.839 33.2528 90.903 33.1177 90.9671C33.0442 91.0027 32.9683 91.0359 32.8925 91.0691C32.8593 91.0833 32.7029 91.145 32.8759 91.0762C32.5891 91.1877 32.3023 91.2968 32.0084 91.387C31.7476 91.4676 31.4869 91.5388 31.2214 91.5981C31.0674 91.6337 30.9109 91.6645 30.7545 91.693C30.6929 91.7049 30.6312 91.7144 30.5672 91.7238C30.5388 91.7286 30.2283 91.7642 30.4772 91.7381C29.9178 91.7974 29.3608 91.8306 28.799 91.8045C28.6615 91.7974 28.5217 91.7903 28.3842 91.776C28.3202 91.7713 27.9173 91.7238 28.1638 91.7571C27.8746 91.7167 27.5901 91.6645 27.3057 91.5981C27.0521 91.5388 26.8032 91.47 26.5567 91.3894C26.4121 91.3419 26.2675 91.2921 26.1253 91.2375C26.0684 91.2162 26.0115 91.1925 25.9546 91.1711C25.6726 91.0596 26.1466 91.2636 25.8741 91.1355C25.3739 90.903 24.8904 90.6373 24.4377 90.3218C24.3737 90.2768 24.312 90.2317 24.2504 90.1866C24.2101 90.1558 24.0466 90.03 24.2054 90.1558C24.3381 90.2602 24.2599 90.1985 24.2314 90.1747C24.1817 90.1344 24.1319 90.0941 24.0821 90.0538C23.928 89.9233 23.7764 89.7857 23.6294 89.6457C23.4279 89.4512 23.2336 89.2496 23.0487 89.0408C22.9396 88.9174 22.833 88.7917 22.7287 88.666C22.6836 88.6114 22.6386 88.5236 22.5841 88.4833C22.7524 88.609 22.6931 88.628 22.6244 88.5331C22.5888 88.4833 22.5509 88.4335 22.5154 88.3837C22.2783 88.0539 22.0603 87.7123 21.8659 87.3565C21.7711 87.1809 21.6786 87.003 21.5957 86.8227C21.5696 86.7682 21.5459 86.7136 21.5222 86.659C21.4866 86.5831 21.4274 86.5475 21.5435 86.7136C21.4772 86.6211 21.4487 86.474 21.4108 86.3673C21.2472 85.9165 21.124 85.4539 21.0458 84.9819C21.0339 84.9154 21.0197 84.849 21.015 84.7826C21.015 84.8158 21.041 85.0246 21.0221 84.8229C21.0126 84.7114 21.0007 84.6023 20.9936 84.4908C20.9747 84.2037 20.9723 83.9167 20.9841 83.632C20.9889 83.5134 20.9984 83.3948 21.0078 83.2762C21.0126 83.2169 21.0197 83.1552 21.0268 83.0959C21.0553 82.8041 20.9984 83.2311 21.0316 83.0651C21.0813 82.8041 21.124 82.5432 21.1904 82.2869C21.252 82.045 21.3255 81.8078 21.4084 81.5729C21.4464 81.4685 21.4866 81.3665 21.5246 81.2645C21.6194 81.013 21.4558 81.4045 21.5293 81.2526C21.5649 81.1791 21.5981 81.1032 21.6336 81.0273C21.8777 80.5149 22.1811 80.0452 22.5106 79.5849C22.3613 79.7937 22.6054 79.4711 22.6528 79.4141C22.7429 79.3098 22.833 79.2054 22.9278 79.1057C23.1269 78.8922 23.3355 78.6906 23.5535 78.4984C23.6578 78.4059 23.7669 78.3205 23.8735 78.2304C24.0039 78.1212 23.6697 78.3774 23.8901 78.2185C23.9589 78.1687 24.0252 78.1189 24.094 78.0714C24.3239 77.9101 24.5633 77.7607 24.8074 77.6207C25.0516 77.4807 25.3099 77.3574 25.5683 77.2364C25.8267 77.1154 25.4284 77.2886 25.5896 77.2269C25.6702 77.1961 25.7508 77.1629 25.8314 77.132C25.9807 77.0751 26.1324 77.0253 26.2817 76.9754C26.7914 76.8118 27.1185 76.3397 27.045 75.8035C26.9715 75.2674 26.533 74.8784 25.9973 74.8784C25.7911 74.8784 25.5873 74.8736 25.381 74.8594C25.2957 74.8523 25.208 74.8451 25.1227 74.838C25.0658 74.8333 25.0089 74.8238 24.952 74.819C25.035 74.8285 25.1085 74.8428 24.9828 74.8214C24.5988 74.7574 24.2196 74.6743 23.8475 74.5581C23.6649 74.5012 23.4895 74.4371 23.3118 74.3707C23.1174 74.2971 23.4564 74.4395 23.2691 74.3541C23.1719 74.309 23.0747 74.2663 22.9799 74.2189C22.6505 74.0575 22.3305 73.8725 22.0271 73.6661C21.9512 73.6163 21.8777 73.5617 21.8043 73.5096C21.7735 73.4882 21.7426 73.4621 21.7118 73.4408C21.7166 73.4431 21.8659 73.5665 21.7758 73.4906C21.6289 73.3672 21.4795 73.2462 21.3373 73.1181C21.0766 72.8785 20.8324 72.6223 20.6049 72.3495C20.5788 72.3187 20.4082 72.0957 20.5006 72.2238C20.593 72.3519 20.4508 72.1526 20.4271 72.1218C20.3181 71.9699 20.2162 71.8158 20.119 71.6592C20.036 71.524 19.9578 71.384 19.882 71.244C19.8156 71.1207 19.6544 70.8929 19.6449 70.753C19.6449 70.7506 19.7232 70.9546 19.6829 70.8407C19.6663 70.7957 19.6473 70.7506 19.6307 70.7055C19.6046 70.6391 19.5809 70.5703 19.5572 70.5039C19.498 70.3355 19.4458 70.1647 19.4032 69.9915C19.3652 69.842 19.3321 69.6926 19.3036 69.5431C19.2989 69.5146 19.2894 69.3201 19.2633 69.2988C19.2657 69.2988 19.287 69.5265 19.2799 69.4079C19.2752 69.3486 19.2681 69.2917 19.2609 69.2323C19.2325 68.9073 19.2301 68.5823 19.2562 68.2573C19.2586 68.2194 19.2965 68.0794 19.2775 68.0486C19.3155 68.1079 19.242 68.274 19.2681 68.1245C19.2752 68.0889 19.2799 68.051 19.287 68.0154C19.3202 67.8327 19.3605 67.65 19.4126 67.4721C19.4577 67.3156 19.5075 67.1614 19.5643 67.0119C19.5809 66.9645 19.6023 66.9194 19.6189 66.8719C19.6592 66.7581 19.5833 66.955 19.5833 66.9526C19.5952 66.8648 19.6734 66.7557 19.7113 66.6798C19.8701 66.3619 20.055 66.0559 20.2636 65.7665C20.3276 65.6787 20.3987 65.598 20.2825 65.7356C20.3418 65.6668 20.3963 65.5957 20.4556 65.5245C20.5836 65.375 20.7163 65.2327 20.8561 65.0927C20.9794 64.9718 21.105 64.8555 21.2354 64.744C21.3065 64.6823 21.38 64.6254 21.4511 64.5661C21.2781 64.7155 21.4819 64.5447 21.5554 64.4902C21.8991 64.2435 22.2641 64.0276 22.6433 63.8402C22.7429 63.7904 22.8448 63.7477 22.9444 63.7002C23.0534 63.648 22.8899 63.7216 22.8827 63.7263C22.9491 63.7002 23.0131 63.6741 23.0771 63.6504C23.2762 63.5745 23.4753 63.5081 23.6792 63.4488C23.8996 63.3847 24.1224 63.3301 24.3476 63.2851C24.4614 63.2613 24.5751 63.2424 24.6913 63.2234C24.7126 63.2186 24.8596 63.202 24.7245 63.2186C24.5657 63.2376 24.843 63.2068 24.8454 63.2068C25.3265 63.1593 25.8101 63.1593 26.2936 63.1949C26.7108 63.2258 27.1161 62.9008 27.2678 62.5378C27.4195 62.1748 27.3768 61.634 27.0474 61.3706C26.7653 61.1453 26.4998 60.9009 26.258 60.6305C26.2059 60.5736 26.1561 60.5143 26.1063 60.4549C26.0826 60.4265 26.0589 60.3933 26.0329 60.3648C25.9333 60.2557 26.1419 60.519 26.0566 60.398C25.9523 60.2509 25.8456 60.1062 25.7508 59.9544C25.5635 59.6602 25.4071 59.3518 25.2578 59.0363C25.2317 58.9794 25.1582 58.8774 25.2744 59.0767C25.2554 59.0458 25.2436 59.0031 25.2317 58.9675C25.2033 58.894 25.1772 58.8228 25.1511 58.7493C25.0848 58.5666 25.0279 58.3816 24.9757 58.1942C24.9307 58.0305 24.8928 57.8668 24.8572 57.7007C24.8406 57.6248 24.8264 57.5489 24.8122 57.4706C24.8027 57.4184 24.7956 57.3686 24.7861 57.3164C24.7814 57.2856 24.7624 57.1077 24.7766 57.2642C24.7908 57.4208 24.7648 57.129 24.76 57.0958C24.7529 57.0175 24.7458 56.9392 24.7411 56.8633C24.7292 56.6807 24.7245 56.5004 24.7268 56.3177C24.7292 56.135 24.7363 55.9548 24.7482 55.7721C24.7529 55.6938 24.76 55.6179 24.7695 55.5396C24.7742 55.5016 24.779 55.4613 24.7837 55.4234C24.7956 55.2858 24.7458 55.6416 24.7837 55.4376C24.8454 55.0936 24.9165 54.7544 25.0184 54.4199C25.0682 54.261 25.1227 54.102 25.1819 53.9454C25.2009 53.898 25.2175 53.8458 25.2388 53.8031C25.2388 53.8055 25.1511 53.9881 25.208 53.8814C25.2554 53.7912 25.2933 53.694 25.3407 53.6015C25.4972 53.2883 25.6844 52.9965 25.8835 52.7119C25.9926 52.5577 25.7603 52.8542 25.9309 52.6502C25.9807 52.5909 26.0305 52.5292 26.0826 52.4723C26.2035 52.3347 26.3292 52.2042 26.4619 52.0785C26.5851 51.9622 26.7108 51.8531 26.8411 51.7463C26.9881 51.6254 26.834 51.7511 26.808 51.7701C26.8388 51.7463 26.8696 51.7226 26.9004 51.7013C26.9857 51.642 27.0687 51.5827 27.154 51.5257C27.4456 51.3359 27.7513 51.1675 28.0666 51.0204C28.1021 51.0038 28.1377 50.9896 28.1732 50.973C28.3083 50.9066 27.9907 51.0394 28.1329 50.9896C28.2064 50.9635 28.2775 50.9327 28.351 50.9066C28.5335 50.8401 28.7184 50.7808 28.9057 50.7286C29.0668 50.6836 29.2328 50.6432 29.3963 50.61C29.4722 50.5934 29.548 50.5792 29.6262 50.565C29.6642 50.5578 29.7021 50.5507 29.7424 50.546C29.7566 50.546 30.0055 50.5128 29.8324 50.5317C29.6689 50.5483 29.9652 50.5199 30.0007 50.5151C30.079 50.508 30.1548 50.5033 30.233 50.4985C30.4132 50.4867 30.5957 50.4819 30.7782 50.4843C30.9844 50.4843 31.193 50.4962 31.3992 50.5151C31.4466 50.5199 31.7216 50.546 31.5651 50.5317C31.4087 50.5175 31.7145 50.5555 31.769 50.565C32.1624 50.6361 32.5512 50.7381 32.928 50.871C33.0134 50.9018 33.0963 50.9374 33.1817 50.9659C33.3215 51.0157 33.0063 50.8828 33.1414 50.9493C33.1864 50.973 33.2362 50.992 33.2812 51.0133C33.4566 51.0963 33.6273 51.1841 33.7932 51.2814C33.971 51.3858 34.1464 51.4973 34.3123 51.6182C34.3431 51.642 34.3739 51.6657 34.4071 51.687C34.528 51.7701 34.2696 51.5637 34.3763 51.6633C34.4616 51.7416 34.5564 51.8151 34.6441 51.8934C34.9855 52.1994 35.5259 52.3252 35.9359 52.0595C36.346 51.7938 36.5641 51.3217 36.4266 50.8544C36.3602 50.6338 36.3033 50.4108 36.2559 50.1854C36.2299 50.0597 36.2085 49.9316 36.1872 49.8058C36.1848 49.7892 36.1635 49.6327 36.1801 49.7584C36.1967 49.9031 36.1682 49.6445 36.1659 49.6184C36.1232 49.1606 36.1232 48.698 36.1659 48.2401C36.1706 48.1808 36.1801 48.1215 36.1848 48.0622C36.1848 48.0741 36.154 48.2496 36.1777 48.1263C36.1967 48.0243 36.2109 47.9222 36.2322 47.8226C36.2773 47.5949 36.3365 47.3719 36.4053 47.1513C36.4361 47.0564 36.4669 46.9615 36.5024 46.869C36.5333 46.7859 36.6233 46.5772 36.5356 46.7717C36.6281 46.5701 36.7229 46.3708 36.8343 46.1786C36.9291 46.0126 37.0334 45.856 37.1424 45.6994C37.2515 45.5429 37.1424 45.6947 37.1211 45.7232C37.1543 45.6805 37.1875 45.6401 37.2206 45.5998C37.2894 45.5191 37.3581 45.4385 37.4316 45.3626C37.5572 45.2297 37.6923 45.1016 37.8322 44.983C37.8725 44.9498 37.9128 44.9166 37.9531 44.8834C37.927 44.9047 37.7682 45.0162 37.9246 44.9095C38.01 44.8502 38.0953 44.7909 38.183 44.7363C38.356 44.6295 38.5338 44.5323 38.721 44.4516C38.5788 44.5133 38.7424 44.4469 38.7637 44.4374C38.8301 44.416 38.8964 44.3899 38.9628 44.371C39.0932 44.3306 39.2235 44.295 39.3587 44.2666C39.4226 44.2523 39.489 44.2405 39.5554 44.2286C39.5696 44.2263 39.7308 44.2002 39.6075 44.2191C39.5056 44.2334 39.7972 44.2025 39.8469 44.2002C40.0887 44.1859 40.3328 44.1883 40.5746 44.2049C40.6339 44.2096 40.8685 44.193 40.9136 44.2381C40.8756 44.2002 40.7216 44.2049 40.8709 44.2357C40.9349 44.2476 40.9989 44.2571 41.0629 44.269C41.2573 44.3069 41.4492 44.352 41.6389 44.4065C41.8759 44.4753 42.1106 44.556 42.3405 44.6509L41.7029 43.0828C40.7453 45.1609 39.9441 47.3126 39.3444 49.5235C38.5053 52.6288 38.0455 55.8527 38.0052 59.0695C37.972 61.7455 38.2351 64.4475 38.7305 67.0783C39.3397 70.3117 40.3992 73.5048 42.0655 76.3515C43.3455 78.5411 45.0047 80.5172 46.9151 82.1826C48.8256 83.8479 50.774 85.11 52.9333 86.1965C54.9978 87.2355 57.169 88.0705 59.3829 88.7253C61.291 89.2899 63.237 89.7216 65.2019 90.0395C66.8185 90.3005 68.4469 90.4974 70.08 90.6112C70.9736 90.6753 71.8719 90.7156 72.7679 90.718C72.858 90.718 72.9481 90.718 73.0381 90.718C73.5952 90.7109 74.1308 90.2317 74.1048 89.6505C74.0763 89.0195 73.6354 88.6494 73.0381 88.583C69.6581 88.2058 66.2781 87.8286 62.9004 87.4514C62.3434 87.3897 61.8101 87.9875 61.8338 88.5189C61.8622 89.1499 62.3031 89.52 62.9004 89.5864C66.2804 89.9636 69.6605 90.3408 73.0381 90.718V88.583C72.3579 88.5901 71.6752 88.5687 70.9949 88.5331C70.3692 88.5023 69.7434 88.4572 69.12 88.4003C68.7503 88.3671 68.3805 88.3291 68.0107 88.2888C67.8377 88.2698 67.6647 88.2485 67.4916 88.2271C67.3945 88.2153 67.2973 88.2034 67.2001 88.1915C67.1029 88.1797 66.6763 88.1133 67.0887 88.1773C65.2375 87.8903 63.4029 87.5771 61.5872 87.1145C60.5585 86.8536 59.5393 86.557 58.5343 86.2202C58.0342 86.0517 57.5364 85.8762 57.0434 85.6864C56.7921 85.5915 56.5433 85.4943 56.2968 85.3923C56.1711 85.3424 56.0479 85.2902 55.9222 85.2381C55.6994 85.1455 56.1498 85.3353 55.9294 85.2404C55.8464 85.2048 55.7634 85.1693 55.6805 85.1337C53.5828 84.218 51.5704 83.0959 49.7334 81.7318C49.622 81.6488 49.4964 81.5705 49.3945 81.4756C49.6054 81.6725 49.4371 81.5065 49.3874 81.4685C49.3305 81.4234 49.276 81.3807 49.2214 81.3357C48.9797 81.1435 48.7426 80.9442 48.508 80.7426C48.0553 80.3512 47.6144 79.9431 47.1925 79.5185C46.7706 79.0939 46.3842 78.6764 46.0049 78.2327C45.813 78.0074 45.6257 77.7796 45.4432 77.5495C45.41 77.5068 45.2417 77.3147 45.4266 77.5306C45.3792 77.4736 45.3365 77.4119 45.2915 77.3526C45.1872 77.2127 45.0829 77.0727 44.9834 76.9304C44.1087 75.7039 43.3668 74.3873 42.7505 73.0137C42.6794 72.8572 42.6107 72.6982 42.5443 72.5393C42.6273 72.7386 42.4993 72.4278 42.4945 72.4159C42.4566 72.321 42.4187 72.2262 42.3808 72.1336C42.222 71.7304 42.075 71.3247 41.9352 70.9143C41.6815 70.167 41.4587 69.4103 41.262 68.644C40.9373 67.3725 40.6884 66.0843 40.5059 64.7843C40.4964 64.7179 40.4893 64.6515 40.4774 64.5851C40.5296 64.9101 40.4893 64.68 40.4822 64.6112C40.4656 64.4878 40.4514 64.3644 40.4371 64.2411C40.4087 64.0015 40.3826 63.7619 40.3565 63.5199C40.2973 62.9435 40.2451 62.3646 40.2096 61.7858C40.1006 60.0564 40.1171 58.3199 40.257 56.5929C40.2878 56.1967 40.3281 55.8029 40.3708 55.4091C40.3921 55.217 40.4158 55.0248 40.4419 54.8303C40.4822 54.5124 40.4087 55.0485 40.4537 54.7354C40.4727 54.6097 40.4893 54.4839 40.5082 54.3606C40.622 53.6086 40.7571 52.8589 40.9159 52.114C41.1933 50.8093 41.5393 49.5188 41.9518 48.2496C42.1343 47.6874 42.3286 47.1299 42.5372 46.5772C42.6273 46.3352 42.7221 46.0932 42.8169 45.8513C42.8619 45.7374 42.9093 45.6211 42.9568 45.5073C42.9923 45.4171 43.1487 44.9711 43.0302 45.3246C43.163 44.9261 43.3716 44.537 43.547 44.1551C43.8622 43.4719 43.5873 42.8669 42.9093 42.587C41.1601 41.8635 39.0718 41.8421 37.3818 42.7365C35.6041 43.6783 34.4332 45.6069 34.1298 47.564C33.9283 48.864 34.0042 50.1688 34.3763 51.4332L36.1588 50.3942C33.568 48.0693 29.6191 47.7538 26.5875 49.3954C25.0373 50.2352 23.8735 51.5874 23.2075 53.21C22.5414 54.8327 22.4679 56.5146 22.7832 58.1633C23.1293 59.971 24.0963 61.7336 25.547 62.8842L26.3007 61.0623C22.6102 60.7871 18.8983 62.877 17.5377 66.3761C16.3407 69.4553 17.7819 73.0232 20.2707 75.0041C21.9109 76.3088 23.902 77.0205 26.0021 77.0205L25.7176 74.9234C23.4161 75.6588 21.4108 77.1818 20.1664 79.2647C18.922 81.3475 18.538 83.8171 19.1164 86.1395C19.9578 89.5319 22.7002 92.3904 26.0021 93.4603C28.8464 94.3808 31.9704 93.9728 34.6062 92.6229C34.0847 92.222 33.5609 91.8187 33.0395 91.4178C31.9183 95.2561 33.3452 99.5025 36.6233 101.808C39.6075 103.908 43.7698 103.728 46.7042 101.63C48.4511 100.383 49.7263 98.6224 50.3473 96.5609L48.3989 96.8147C50.2217 99.9082 53.7795 102.461 57.5175 102.012C61.2554 101.564 63.8367 98.4065 64.588 94.924C65.0977 92.5589 64.7824 90.1771 63.8224 87.9709C63.5996 87.4561 62.808 87.3019 62.3623 87.589C61.829 87.933 61.7413 88.4999 61.9807 89.0503L61.9523 89.0408Z" fill="#323237"/>
<path d="M71.6421 71.6426C72.7967 71.6426 73.7327 70.2682 73.7327 68.5729C73.7327 66.8775 72.7967 65.5032 71.6421 65.5032C70.4875 65.5032 69.5515 66.8775 69.5515 68.5729C69.5515 70.2682 70.4875 71.6426 71.6421 71.6426Z" fill="#2C2C30"/>
<path d="M89.3197 71.3864C90.4743 71.3864 91.4103 70.012 91.4103 68.3167C91.4103 66.6213 90.4743 65.2469 89.3197 65.2469C88.1651 65.2469 87.2291 66.6213 87.2291 68.3167C87.2291 70.012 88.1651 71.3864 89.3197 71.3864Z" fill="#2C2C30"/>
<path d="M91.9579 88.2983C91.3037 88.462 90.6471 88.6138 89.9834 88.7443C89.4644 88.8463 88.9429 88.9364 88.4214 89.0171C88.2792 89.0384 88.1346 89.0598 87.9924 89.0811C87.9189 89.0906 87.8454 89.1025 87.7696 89.112C87.6321 89.1309 88.073 89.074 87.8786 89.0977C87.8289 89.1048 87.7767 89.112 87.7269 89.1167C87.4093 89.157 87.0917 89.1926 86.7741 89.2258C85.2571 89.38 83.733 89.4417 82.2089 89.3966C81.3722 89.3729 80.5355 89.316 79.7035 89.2235C79.4996 89.1997 79.2816 89.1475 79.0777 89.1475C79.3906 89.1475 79.0683 89.1475 78.9758 89.1309C78.8478 89.112 78.7174 89.093 78.5895 89.0716C78.1509 89.0005 77.7148 88.9198 77.2787 88.8273C76.3732 88.6351 75.4796 88.3932 74.6003 88.1014C74.1689 87.9567 73.7398 87.8001 73.3179 87.6317C73.2634 87.6103 72.8652 87.4537 73.1473 87.5629C73.0525 87.5249 72.9576 87.4822 72.8652 87.4395C72.6282 87.3351 72.3935 87.226 72.1612 87.1121C71.2771 86.6828 70.4238 86.1941 69.6108 85.6461C69.4069 85.5085 69.2055 85.3685 69.0087 85.2238C68.9092 85.1503 68.8096 85.0767 68.7101 85.0032C68.6627 84.9676 68.511 84.849 68.6959 84.9937C68.6295 84.9415 68.5655 84.8917 68.4991 84.8395C68.0891 84.5121 67.6932 84.1705 67.3092 83.8147C66.4938 83.0556 65.7448 82.23 65.0551 81.3546C64.9342 81.1933 65.029 81.3214 65.0551 81.3546C65.0195 81.3072 64.9816 81.2597 64.946 81.2099C64.856 81.0889 64.7659 80.968 64.6782 80.847C64.5194 80.6263 64.3677 80.4034 64.2184 80.178C63.9031 79.7035 63.6068 79.2149 63.3295 78.7167C63.0522 78.2185 62.7938 77.7085 62.5544 77.1913C62.5046 77.0822 62.4549 76.9731 62.4051 76.8639C62.3814 76.8094 62.3577 76.7548 62.3316 76.6979C62.3316 76.6979 62.2178 76.4274 62.2795 76.5769C62.3411 76.7263 62.2297 76.4512 62.2297 76.4535C62.206 76.3966 62.1847 76.342 62.1633 76.2851C62.1088 76.1451 62.0543 76.0052 61.9998 75.8628C61.6016 74.8001 61.2792 73.7088 61.0351 72.601C60.9118 72.0506 60.8099 71.4931 60.7246 70.9356C60.7127 70.8597 60.7009 70.7838 60.6914 70.7079C60.6843 70.651 60.6558 70.4422 60.6866 70.6723C60.6724 70.5513 60.6558 70.428 60.6416 70.307C60.606 70.001 60.5776 69.6949 60.5515 69.3865C60.4615 68.2384 60.4472 67.0854 60.5065 65.9373C60.5373 65.3394 60.5871 64.7416 60.6582 64.1486C60.6724 64.0228 60.689 63.8971 60.7056 63.7714C60.6771 63.992 60.7056 63.7809 60.7127 63.7239C60.7246 63.6456 60.7364 63.5674 60.7483 63.4891C60.7909 63.2044 60.8383 62.9221 60.8905 62.6398C61.1085 61.4489 61.4048 60.2723 61.7746 59.1194C61.9595 58.5405 62.1633 57.9712 62.3838 57.4042L61.6395 58.1491C63.6471 57.6272 65.6785 57.2097 67.7288 56.9013C67.8805 56.8776 68.0345 56.8562 68.1862 56.8349C68.2573 56.8254 68.3285 56.8135 68.3996 56.804C68.4351 56.7993 68.4707 56.7945 68.5086 56.7898C68.6461 56.7708 68.2763 56.8206 68.4778 56.7945C68.812 56.7518 69.1462 56.7091 69.4804 56.6712C70.1844 56.5905 70.8907 56.5217 71.5971 56.4672C73.1378 56.3485 74.6832 56.2892 76.2286 56.2987C77.94 56.3082 79.6537 56.3984 81.3556 56.5715C81.7988 56.6166 82.2421 56.6688 82.6829 56.7257C82.7327 56.7328 82.7825 56.7376 82.8323 56.7447C82.8133 56.7423 82.6711 56.7234 82.7967 56.74C82.9129 56.7566 83.029 56.7732 83.1452 56.7898C83.3798 56.823 83.6145 56.8586 83.8468 56.8965C84.7688 57.0436 85.6861 57.2144 86.5987 57.4113C88.5162 57.8265 90.4101 58.3579 92.2637 59.0031C92.7472 59.1715 93.2284 59.3471 93.7048 59.5321C93.9371 59.6223 94.1694 59.7124 94.4017 59.8073C94.5273 59.8571 94.6529 59.9093 94.7762 59.9615C94.8307 59.9829 94.8828 60.0066 94.9374 60.0279C94.9587 60.0374 95.1033 60.0967 95.0037 60.0564C95.9447 60.4573 96.8715 60.8891 97.7841 61.3493C99.4694 62.1986 101.102 63.1475 102.676 64.1913C103.392 64.6633 104.094 65.1568 104.781 65.6668C104.94 65.7854 105.099 65.904 105.258 66.0227C105.329 66.0772 105.402 66.1318 105.473 66.1863C105.506 66.2124 105.632 66.3097 105.471 66.1863C105.518 66.2219 105.566 66.2599 105.611 66.2955C105.921 66.5374 106.227 66.7842 106.533 67.0332C106.839 67.2823 107.116 67.5172 107.403 67.7639C107.744 68.0557 108.289 68.2099 108.695 67.93C109.1 67.65 109.55 67.3725 110.001 67.1353C110.209 67.0261 110.422 66.9218 110.638 66.8245C110.683 66.8031 110.728 66.7842 110.776 66.7628C110.607 66.8387 110.761 66.7699 110.792 66.7557C110.913 66.7082 111.032 66.6608 111.155 66.6181C111.574 66.4663 112.006 66.3429 112.442 66.2528C112.542 66.2314 112.643 66.2124 112.745 66.1958C112.788 66.1887 112.831 66.184 112.873 66.1745C113.032 66.146 112.686 66.1911 112.843 66.1792C113.049 66.1626 113.253 66.1413 113.461 66.1365C113.646 66.1318 113.829 66.1365 114.013 66.1508C114.068 66.1555 114.194 66.1436 114.241 66.1721C114.146 66.1128 114.054 66.1413 114.179 66.165C114.227 66.1745 114.277 66.1816 114.324 66.1911C114.488 66.2243 114.649 66.2646 114.808 66.3168C114.853 66.3311 114.895 66.3477 114.94 66.3619C115.04 66.3951 114.964 66.407 114.94 66.3595L114.876 66.3311C114.907 66.3453 114.938 66.3595 114.969 66.3738C115.018 66.3999 115.071 66.4236 115.12 66.4497C115.248 66.5185 115.365 66.6015 115.485 66.6798C115.602 66.7533 115.331 66.5374 115.424 66.6347C115.445 66.6584 115.474 66.6774 115.497 66.6988C115.561 66.7557 115.621 66.815 115.68 66.8791C115.706 66.9075 115.862 67.1092 115.76 66.9644C115.658 66.8197 115.801 67.0261 115.824 67.0617C115.912 67.1969 115.971 67.344 116.054 67.4816C116.125 67.5978 115.981 67.2752 116.023 67.4057C116.033 67.4365 116.047 67.4674 116.059 67.4982C116.085 67.5718 116.109 67.6429 116.13 67.7165C116.178 67.8778 116.218 68.0438 116.246 68.2099C116.251 68.2336 116.258 68.338 116.268 68.3475C116.263 68.3451 116.246 68.1197 116.253 68.2384C116.258 68.3214 116.27 68.4044 116.277 68.4851C116.291 68.6677 116.294 68.8504 116.294 69.0331C116.294 69.2157 116.282 69.3865 116.268 69.5621C116.261 69.6522 116.251 69.7424 116.242 69.8301C116.239 69.8586 116.225 69.9938 116.242 69.8444C116.258 69.6736 116.232 69.9013 116.227 69.9369C116.166 70.3236 116.083 70.7055 115.981 71.0803C115.879 71.4552 115.753 71.849 115.613 72.2238C115.585 72.3021 115.554 72.3803 115.523 72.4563C115.504 72.5061 115.365 72.8311 115.474 72.5844C115.395 72.7599 115.317 72.9355 115.234 73.111C114.907 73.7942 114.525 74.4537 114.077 75.0657C114.04 75.1179 113.999 75.1701 113.961 75.2223C113.973 75.2081 114.059 75.1061 113.98 75.1962C113.907 75.2793 113.84 75.3694 113.767 75.4524C113.615 75.628 113.459 75.7988 113.295 75.9648C112.994 76.2685 112.674 76.5508 112.34 76.8165C112.506 76.686 112.316 76.8331 112.252 76.8805C112.174 76.9375 112.096 76.9944 112.015 77.049C111.849 77.1628 111.679 77.2743 111.506 77.3787C111.19 77.5709 110.866 77.7464 110.536 77.9077C110.387 77.9813 110.235 78.0477 110.084 78.1165C109.901 78.1995 110.268 78.043 110.086 78.1165C109.993 78.1521 109.901 78.19 109.809 78.2256C109.536 78.33 109.261 78.4249 108.981 78.5103C108.578 78.6336 108.168 78.7357 107.756 78.8187C107.197 78.9302 106.815 79.4853 106.431 79.8767C106.047 80.2681 105.668 80.6335 105.274 80.9988C104.824 81.4163 104.364 81.8196 103.892 82.211C103.629 82.4293 103.361 82.6404 103.096 82.8515C102.982 82.9417 103.255 82.7306 103.139 82.8183C103.11 82.8397 103.079 82.8634 103.051 82.8848C102.982 82.9369 102.913 82.9891 102.845 83.0413C102.693 83.1552 102.541 83.2667 102.39 83.3782C101.091 84.32 99.723 85.1693 98.2984 85.907C97.9097 86.1087 97.5162 86.3032 97.118 86.4882C96.9355 86.5736 96.753 86.6567 96.5681 86.7373C96.4543 86.7871 96.3382 86.837 96.2244 86.8868C96.4188 86.8037 96.0893 86.9437 96.0419 86.9627C95.1768 87.3162 94.2974 87.6293 93.4038 87.9021C92.9297 88.0468 92.4486 88.1797 91.9674 88.3006C91.427 88.4382 91.0477 89.074 91.2231 89.6149C91.3985 90.1558 91.9555 90.5069 92.5363 90.3598C97.8362 89.0171 102.702 86.2652 106.718 82.5692C107.393 81.9477 108.043 81.3001 108.666 80.6264L108.194 80.9015C109.621 80.6335 111.02 80.1187 112.283 79.4023C114.196 78.3158 115.746 76.705 116.789 74.7716C117.773 72.9497 118.508 70.8004 118.432 68.7057C118.396 67.7592 118.192 66.7628 117.659 65.9634C117.088 65.1022 116.244 64.5092 115.253 64.2221C114.066 63.8781 112.769 63.9778 111.582 64.2672C110.171 64.6112 108.825 65.2707 107.63 66.0915L108.922 66.2575C105.642 63.4416 102.025 61.0219 98.1301 59.1431C93.7356 57.0223 89.0448 55.5538 84.2213 54.8113C80.1538 54.185 76.0319 54.019 71.9266 54.3131C68.8594 54.5338 65.8017 54.9916 62.8033 55.6772C62.2818 55.7958 61.7627 55.9215 61.2437 56.0568C60.7957 56.173 60.5065 56.4102 60.3311 56.8467C60.2268 57.1053 60.132 57.3686 60.0372 57.6319C59.8547 58.1396 59.6887 58.652 59.5347 59.1692C58.9231 61.2354 58.5486 63.3752 58.404 65.5245C58.1267 69.6831 58.8165 73.8725 60.4615 77.7013C62.0472 81.3926 64.6047 84.6236 67.8378 87.003C70.6063 89.0408 73.8868 90.3574 77.2526 91.0027C80.1586 91.5601 83.138 91.6764 86.0843 91.4344C88.0422 91.2731 89.9977 90.9742 91.9105 90.5211C92.1191 90.4713 92.3277 90.4191 92.5363 90.3669C93.0767 90.2317 93.4559 89.5935 93.2805 89.0527C93.1051 88.5118 92.5481 88.1607 91.9674 88.3078L91.9579 88.2983Z" fill="#323237"/>
<path d="M0.772709 42.4637C5.16486 43.4648 9.55701 44.4659 13.9492 45.467C14.492 45.5903 15.1296 45.3009 15.2623 44.7221C15.3856 44.1788 15.0988 43.5407 14.518 43.4078C10.1259 42.4067 5.73373 41.4056 1.34158 40.4045C0.798782 40.2812 0.161174 40.5706 0.0284374 41.1494C-0.0948178 41.6927 0.191988 42.3308 0.772709 42.4637Z" fill="#323237"/>
<path d="M4.42529 29.1766C5.07238 29.3996 5.71473 29.6344 6.35234 29.8812C6.67233 30.0045 6.98995 30.1302 7.30519 30.2607C7.464 30.3248 7.62044 30.3912 7.77925 30.4576C7.73659 30.441 7.61333 30.3865 7.8077 30.4695C7.90251 30.5098 7.99732 30.5501 8.08976 30.5905C9.36024 31.1408 10.6094 31.7386 11.8372 32.3815C14.2739 33.6602 16.6157 35.1215 18.8343 36.7513C19.1377 36.9742 19.4387 37.1996 19.7374 37.4273C19.7919 37.4701 19.8464 37.5104 19.9009 37.5531C19.7516 37.4392 20.0194 37.6456 20.0503 37.6693C20.1972 37.7856 20.3465 37.9018 20.4935 38.0204C21.1074 38.5115 21.7095 39.0168 22.302 39.5339C22.7216 39.9016 23.4018 39.9775 23.8095 39.5339C24.1793 39.1306 24.2575 38.4166 23.8095 38.0252C19.5406 34.2983 14.7289 31.2025 9.54512 28.9133C8.05421 28.2538 6.53722 27.6536 4.99416 27.1198C4.46558 26.9372 3.80427 27.3286 3.68102 27.8647C3.54591 28.4578 3.86116 28.9821 4.42529 29.179V29.1766Z" fill="#323237"/>
<path d="M18.7585 22.9303C20.477 25.7747 22.1954 28.6214 23.9139 31.4658C24.2031 31.9426 24.8833 32.1632 25.374 31.8477C25.8647 31.5322 26.0661 30.8988 25.7556 30.3864C24.0372 27.542 22.3187 24.6953 20.6002 21.851C20.3111 21.3741 19.6308 21.1535 19.1401 21.469C18.6495 21.7845 18.448 22.4179 18.7585 22.9303Z" fill="#323237"/>
<path d="M145.593 12.6584C145.941 10.6681 146.479 8.71334 147.209 6.82975C147.304 6.58304 147.401 6.33869 147.503 6.09672C147.435 6.26278 147.551 5.98997 147.56 5.96387C147.617 5.83577 147.672 5.7053 147.731 5.57719C147.932 5.12884 148.146 4.68522 148.368 4.24635C148.831 3.33777 149.338 2.45529 149.888 1.59653C150.189 1.12444 149.999 0.398529 149.506 0.135207C148.978 -0.14472 148.368 0.0142217 148.046 0.517143C145.801 4.02336 144.254 7.98505 143.538 12.0867C143.443 12.6347 143.685 13.2633 144.282 13.4009C144.801 13.5196 145.491 13.2444 145.595 12.656L145.593 12.6584Z" fill="#323237"/>
<path d="M151.857 24.9301C153.476 21.9007 155.23 18.9449 157.117 16.0745C158.061 14.6392 159.037 13.2254 160.044 11.8352C160.549 11.1401 161.059 10.4498 161.58 9.76659C162.062 9.13556 162.498 8.57571 163.062 7.8664C164.266 6.35764 165.51 4.87971 166.793 3.43263C167.162 3.01511 167.234 2.32952 166.793 1.92386C166.387 1.55142 165.679 1.47788 165.285 1.92386C160.673 7.13337 156.527 12.7604 152.934 18.7195C151.917 20.4038 150.947 22.1166 150.021 23.8508C149.757 24.3418 149.881 25.0345 150.402 25.3121C150.898 25.573 151.58 25.4544 151.862 24.9301H151.857Z" fill="#323237"/>
<path d="M160.154 30.0519C164.709 28.3558 169.265 26.6572 173.823 24.9611C174.344 24.7665 174.757 24.2304 174.567 23.6468C174.401 23.1368 173.816 22.6932 173.254 22.9019C168.698 24.5981 164.143 26.2966 159.585 27.9928C159.063 28.1873 158.651 28.7235 158.84 29.3071C159.006 29.8171 159.592 30.2607 160.154 30.0519Z" fill="#323237"/>
<path d="M60.715 99.9627C62.405 101.441 64.306 102.584 66.3895 103.407C68.0795 104.076 69.843 104.47 71.6421 104.703L70.5754 103.635C70.8812 107.867 71.1846 112.099 71.4904 116.329L71.7487 119.93C71.789 120.485 72.2109 121.024 72.8154 120.998C73.3582 120.974 73.9247 120.526 73.882 119.93C73.5762 115.698 73.2728 111.466 72.9671 107.236L72.7087 103.635C72.6637 103.002 72.2512 102.646 71.6421 102.567C71.5236 102.551 71.5401 102.556 71.6966 102.575C71.6444 102.567 71.5947 102.56 71.5425 102.553C71.4643 102.541 71.3861 102.53 71.3079 102.518C71.1206 102.489 70.9334 102.456 70.7485 102.423C70.3574 102.352 69.9663 102.269 69.5775 102.176C68.7171 101.97 67.8709 101.706 67.0484 101.384C66.9418 101.341 66.8351 101.298 66.7284 101.256C66.6123 101.208 66.6076 101.206 66.7095 101.248C66.6645 101.23 66.617 101.208 66.572 101.189C66.3563 101.094 66.1406 100.995 65.9273 100.89C65.4864 100.677 65.055 100.444 64.6355 100.195C64.2159 99.9461 63.768 99.6543 63.3532 99.3554C63.2465 99.2795 63.1398 99.1988 63.0332 99.1206C62.9312 99.0423 62.9123 99.0304 62.981 99.0826C62.9383 99.0494 62.8933 99.0138 62.8507 98.9782C62.6373 98.8074 62.4287 98.6319 62.2249 98.454C61.8053 98.0863 61.1251 98.0103 60.7174 98.454C60.3476 98.8572 60.2694 99.5713 60.7174 99.9627H60.715Z" fill="#323237"/>
<path d="M111.337 119.105C111.24 118.552 111.148 117.997 111.062 117.442C111.02 117.166 110.979 116.891 110.941 116.616C110.932 116.543 110.92 116.469 110.911 116.393C110.911 116.393 110.887 116.21 110.899 116.312C110.913 116.426 110.885 116.196 110.88 116.175C110.868 116.08 110.856 115.987 110.844 115.893C110.697 114.73 110.581 113.565 110.494 112.396C110.328 110.194 110.266 107.986 110.306 105.78C110.328 104.627 110.377 103.474 110.453 102.326L109.671 103.355C113.518 102.1 117.251 100.48 120.788 98.5133C124.613 96.3854 128.211 93.8423 131.511 90.9671C132.945 89.7169 134.317 88.4027 135.63 87.0268C136.017 86.6235 136.062 85.9142 135.63 85.518C135.199 85.1218 134.533 85.0863 134.123 85.518C132.978 86.7184 131.786 87.8737 130.546 88.9792C129.849 89.6007 129.141 90.2056 128.418 90.7939C128.036 91.1047 127.65 91.4131 127.259 91.7144C127.401 91.6029 127.107 91.8306 127.074 91.8544C126.979 91.9255 126.884 91.9991 126.789 92.0702C126.569 92.2363 126.348 92.4 126.126 92.5613C122.568 95.1637 118.73 97.3817 114.701 99.1657C114.445 99.2795 114.189 99.3887 113.93 99.5002C113.897 99.5144 113.741 99.5808 113.916 99.5073C113.843 99.5381 113.767 99.569 113.693 99.5998C113.575 99.6496 113.459 99.6971 113.34 99.7445C112.854 99.9438 112.366 100.136 111.875 100.321C110.96 100.667 110.036 100.992 109.105 101.296C108.63 101.45 108.353 101.834 108.322 102.326C108.028 106.752 108.142 111.205 108.678 115.61C108.844 116.97 109.043 118.322 109.28 119.669C109.377 120.22 110.079 120.58 110.593 120.414C111.186 120.222 111.442 119.691 111.337 119.1V119.105Z" fill="#323237"/>
<path d="M73.7233 89.8497C74.4391 91.8709 75.1573 93.8897 75.8731 95.9108C76.0604 96.4351 76.6103 96.8431 77.1863 96.6557C77.703 96.4873 78.132 95.9061 77.9305 95.3415C77.2147 93.3203 76.4965 91.3015 75.7807 89.2803C75.5934 88.7561 75.0435 88.348 74.4675 88.5354C73.9508 88.7039 73.5218 89.2851 73.7233 89.8497Z" fill="#323237"/>
<path d="M72.6708 103.92C72.7656 103.474 72.8818 103.035 73.0216 102.601C73.0856 102.404 73.1567 102.207 73.2302 102.012C73.2468 101.97 73.3558 101.699 73.3084 101.813C73.261 101.927 73.3155 101.797 73.3226 101.78C73.3511 101.713 73.3819 101.647 73.4127 101.581C73.7635 100.817 74.1973 100.103 74.695 99.4266C74.5694 99.5974 74.7069 99.4124 74.759 99.3483C74.8206 99.2724 74.8799 99.1989 74.9439 99.1253C75.0766 98.9688 75.2141 98.8169 75.3563 98.6699C75.6337 98.3781 75.9299 98.1005 76.2381 97.8419C76.3092 97.7826 76.3827 97.7257 76.4538 97.6664C76.2926 97.7992 76.4419 97.6759 76.5225 97.6166C76.6813 97.5003 76.8425 97.3888 77.0084 97.2797C77.3355 97.0686 77.6745 96.8764 78.0229 96.7056C78.1035 96.6653 78.1841 96.6273 78.2671 96.5918C78.3026 96.5752 78.3382 96.5609 78.3714 96.5443C78.5491 96.4637 78.35 96.5467 78.3287 96.5633C78.4733 96.466 78.7008 96.4186 78.8644 96.364C79.2128 96.2478 79.566 96.1529 79.9263 96.0817C80.0258 96.0627 80.123 96.0438 80.2225 96.0272C80.2605 96.02 80.2984 96.0177 80.334 96.0106C80.4809 95.9821 80.1254 96.0295 80.2747 96.0177C80.4619 96.0034 80.6492 95.9797 80.8388 95.9702C81.2465 95.9512 81.6542 95.9607 82.0572 96.0034C82.0927 96.0082 82.28 96.0295 82.133 96.0106C81.9955 95.9939 82.1425 96.0106 82.1638 96.0153C82.2776 96.0343 82.3914 96.0533 82.5028 96.0746C82.709 96.1149 82.9128 96.1647 83.1167 96.2217C83.3016 96.2739 83.4817 96.3308 83.6618 96.3972C83.7495 96.4281 83.8372 96.4613 83.9249 96.4969C83.9439 96.504 84.0719 96.5538 84.0719 96.5562C84.0719 96.5562 83.8728 96.466 84.034 96.5419C84.6882 96.8456 85.3116 97.2038 85.8923 97.6308C85.9278 97.6569 85.9634 97.6854 85.9989 97.7115C86.1127 97.7921 85.833 97.5786 85.9397 97.664C86.0132 97.7233 86.089 97.7826 86.1649 97.8443C86.2881 97.9463 86.4114 98.0531 86.5323 98.1598C86.748 98.352 86.9565 98.5536 87.1557 98.7624C87.3998 99.0162 87.6321 99.2795 87.8478 99.5571C88.2934 100.129 89.1917 99.856 89.5236 99.3412C89.6279 99.1799 89.7369 99.021 89.8483 98.8668C89.9147 98.7742 90.2086 98.4492 89.9384 98.741C90.0521 98.6177 90.147 98.4777 90.256 98.352C90.5025 98.0649 90.7609 97.7874 91.0311 97.5241C91.1757 97.3817 91.325 97.2441 91.4791 97.1089C91.5502 97.0472 91.6213 96.9856 91.6948 96.9239C91.7422 96.8859 91.7872 96.8456 91.8346 96.8076C91.8583 96.7887 92.0598 96.625 91.9294 96.7294C91.7919 96.8385 91.9887 96.6843 92.0029 96.6748C92.0432 96.6439 92.0859 96.6131 92.1262 96.5846C92.221 96.5158 92.3181 96.4471 92.4153 96.383C92.6287 96.2383 92.8467 96.1007 93.0695 95.9702C93.2923 95.8397 93.5175 95.7188 93.7474 95.6049C93.8802 95.5385 94.0153 95.4792 94.148 95.4175C94.1859 95.3985 94.3353 95.3368 94.1409 95.4175C94.2262 95.3819 94.3116 95.3487 94.3969 95.3155C94.9847 95.0877 95.5892 94.9098 96.2078 94.7841C96.3595 94.7532 96.5112 94.7248 96.6653 94.7011C96.715 94.6939 96.9378 94.6631 96.7316 94.6892C96.798 94.6797 96.8644 94.6726 96.9307 94.6655C97.2531 94.6299 97.5755 94.6109 97.8978 94.6062C98.1751 94.6014 98.4525 94.6062 98.7298 94.6228C98.8483 94.6299 98.9692 94.6394 99.0877 94.6489C99.1612 94.656 99.2347 94.6631 99.3081 94.6702C99.3413 94.6726 99.6234 94.7129 99.4693 94.6892C99.2963 94.6631 99.5736 94.7058 99.5807 94.7082C99.6352 94.7177 99.6921 94.7272 99.7466 94.7366C99.8699 94.758 99.9908 94.7817 100.112 94.8078C100.358 94.86 100.602 94.9169 100.846 94.9834C101.285 95.1043 101.719 95.2491 102.141 95.4175C102.19 95.4365 102.24 95.4602 102.292 95.4792C102.432 95.5314 102.041 95.37 102.243 95.4578C102.316 95.491 102.392 95.5219 102.465 95.5574C102.634 95.6334 102.802 95.7164 102.968 95.7994C103.364 96.0011 103.75 96.2264 104.12 96.4779C104.243 96.5609 104.362 96.6487 104.482 96.7365C104.736 96.9191 104.392 96.6606 104.537 96.7768C104.599 96.8266 104.663 96.8764 104.724 96.9262C104.952 97.1137 105.17 97.3082 105.381 97.5122C105.765 97.8823 106.118 98.2808 106.45 98.6983C106.303 98.5109 106.419 98.6604 106.457 98.7078C106.504 98.7719 106.552 98.8359 106.599 98.9024C106.682 99.0186 106.763 99.1372 106.841 99.2558C106.976 99.4622 107.106 99.671 107.23 99.8845C107.46 100.283 107.663 100.693 107.851 101.113C107.865 101.144 107.943 101.327 107.865 101.147C107.787 100.966 107.881 101.192 107.896 101.225C107.929 101.305 107.96 101.388 107.991 101.472C108.047 101.626 108.102 101.78 108.154 101.934C108.228 102.159 108.294 102.387 108.356 102.617C108.495 103.158 109.126 103.538 109.669 103.362C110.211 103.187 110.565 102.629 110.413 102.048C109.56 98.7695 107.367 95.7852 104.39 94.1412C102.643 93.1757 100.681 92.5992 98.6871 92.4901C96.1248 92.3525 93.5033 93.0879 91.3748 94.5231C89.9099 95.5124 88.6442 96.7863 87.6842 98.2713L89.36 98.0554C87.7956 96.0485 85.423 94.4401 82.9033 93.9917C79.3337 93.356 75.7545 94.8908 73.4317 97.619C72.0308 99.2653 71.059 101.239 70.6086 103.355C70.4925 103.901 70.7698 104.534 71.3529 104.669C71.8886 104.793 72.5404 104.508 72.6661 103.924L72.6708 103.92Z" fill="#323237"/>
<path d="M73.3938 117.048C75.5365 116.547 77.6959 116.123 79.8718 115.783C81.1612 115.582 81.9695 115.473 83.2518 115.328C84.5341 115.183 85.852 115.062 87.1557 114.974C92.2566 114.628 97.3859 114.737 102.468 115.292C103.105 115.361 103.741 115.439 104.376 115.522C104.584 115.551 104.414 115.527 104.371 115.522C104.464 115.534 104.556 115.548 104.648 115.56C104.803 115.582 104.954 115.603 105.108 115.624C105.409 115.667 105.71 115.712 106.011 115.76C107.154 115.935 108.292 116.137 109.425 116.357C109.97 116.464 110.603 116.203 110.738 115.613C110.859 115.084 110.579 114.415 109.993 114.298C105.447 113.413 100.83 112.87 96.2007 112.699C90.8676 112.502 85.5297 112.816 80.2487 113.582C77.7575 113.945 75.2805 114.415 72.8296 114.989C72.2868 115.117 71.9123 115.769 72.0854 116.303C72.2679 116.87 72.8154 117.185 73.3985 117.048H73.3938Z" fill="#323237"/>
<path d="M102.698 93.8636C102.954 91.3324 103.21 88.8036 103.468 86.2724C103.525 85.7149 102.937 85.1811 102.401 85.2049C101.776 85.2333 101.396 85.6746 101.335 86.2724C101.079 88.8036 100.823 91.3324 100.564 93.8636C100.507 94.4211 101.095 94.9549 101.631 94.9312C102.257 94.9027 102.636 94.4615 102.698 93.8636Z" fill="#323237"/>
<path d="M102.797 87.4466C106.281 87.1857 109.688 86.0636 112.598 84.1183C113.293 83.6557 113.959 83.1457 114.594 82.6072C115.021 82.2442 114.995 81.4661 114.594 81.0984C114.139 80.6809 113.542 80.7118 113.087 81.0984C112.982 81.1862 112.88 81.2716 112.774 81.357C112.719 81.4021 112.662 81.4472 112.608 81.4922C112.572 81.5207 112.366 81.6796 112.482 81.5919C112.598 81.5041 112.406 81.6488 112.376 81.6725C112.312 81.72 112.248 81.7674 112.184 81.8149C112.037 81.9216 111.89 82.026 111.74 82.128C111.091 82.574 110.413 82.982 109.714 83.345C108.834 83.8028 108.211 84.0685 107.279 84.384C106.483 84.6545 105.668 84.8727 104.84 85.0364C104.637 85.0767 104.433 85.1147 104.226 85.1479C104.129 85.1645 104.03 85.1787 103.933 85.193C103.892 85.2001 103.85 85.2048 103.809 85.212C103.653 85.2357 104.006 85.1882 103.852 85.2072C103.501 85.2499 103.148 85.2879 102.797 85.314C102.243 85.3567 101.704 85.7742 101.731 86.3815C101.754 86.9247 102.202 87.4941 102.797 87.449V87.4466Z" fill="#323237"/>
<path d="M42.5989 43.607C44.2367 39.3108 49.3874 27.504 62.1609 19.3363C66.034 16.8597 81.6163 7.67899 100.553 13.2301C122.793 19.7515 130.492 40.9762 131.219 43.097" fill="#323237"/>
<path d="M43.6252 43.8893C43.8101 43.4054 44.0044 42.9238 44.2012 42.4446C44.2912 42.2264 44.1301 42.6107 44.2035 42.4375C44.2296 42.3782 44.2557 42.3165 44.2794 42.2572C44.3458 42.1006 44.4145 41.9464 44.4832 41.7899C44.6255 41.4672 44.7724 41.1446 44.9217 40.8244C45.6257 39.3132 46.4055 37.8353 47.2517 36.4001C49.5343 32.5309 52.1985 29.1219 55.4364 25.9953C58.2807 23.2506 61.4616 20.8759 64.9009 18.9307C66.2283 18.1787 67.5912 17.4883 68.9802 16.8597C69.1651 16.7743 69.3523 16.6913 69.5396 16.6106C69.6415 16.5655 69.7458 16.5205 69.8477 16.4754C69.9046 16.4517 70.1843 16.3307 70.1251 16.3568C70.0611 16.3852 70.3005 16.2832 70.3645 16.2571C70.4735 16.2121 70.5825 16.167 70.6916 16.1243C70.9286 16.027 71.168 15.9321 71.4074 15.8396C72.3531 15.4719 73.3084 15.1327 74.2754 14.8219C78.9094 13.3297 83.6381 12.5303 88.4901 12.5445C93.9939 12.5611 99.4622 13.6714 104.554 15.7637C106.554 16.5845 108.666 17.6781 110.574 18.8595C111.503 19.4336 112.411 20.0433 113.295 20.6862C114.179 21.329 114.777 21.8011 115.611 22.5033C117.135 23.7891 118.576 25.1721 119.927 26.6382C120.563 27.3261 121.176 28.0331 121.771 28.7566C122.053 29.0982 122.331 29.4446 122.603 29.7957C122.641 29.8455 122.679 29.8953 122.719 29.9428C122.71 29.9285 122.622 29.8147 122.696 29.9119C122.762 29.9973 122.826 30.0827 122.893 30.1705C123.023 30.3413 123.151 30.5121 123.276 30.6853C125.057 33.0955 126.638 35.6576 127.996 38.3311C128.475 39.2729 128.925 40.2289 129.342 41.1992C129.371 41.2632 129.503 41.5764 129.423 41.3866C129.342 41.1968 129.465 41.491 129.494 41.5574C129.565 41.7306 129.636 41.9061 129.705 42.0793C129.809 42.345 129.913 42.613 130.01 42.8811C130.072 43.0472 130.131 43.2156 130.191 43.384C130.378 43.9297 130.923 44.2902 131.504 44.1289C132.032 43.9842 132.438 43.3627 132.248 42.8147C131.772 41.4293 131.191 40.0771 130.57 38.751C129.389 36.2269 128.005 33.7977 126.45 31.4895C124.345 28.3676 121.928 25.4449 119.197 22.852C115.997 19.8084 112.368 17.1965 108.424 15.2062C103.48 12.7082 98.1016 11.1591 92.5907 10.6182C87.3334 10.1011 81.9884 10.5755 76.8685 11.8589C72.9836 12.8339 69.2078 14.281 65.6428 16.11C62.5093 17.7184 59.5654 19.6613 56.8396 21.896C53.0258 25.0227 49.7145 28.7448 46.972 32.8417C45.0616 35.6955 43.4545 38.7368 42.1343 41.9061C41.9399 42.3758 41.7503 42.8479 41.5702 43.3224C41.3639 43.8609 41.7977 44.4943 42.3144 44.6366C42.9141 44.8027 43.419 44.4326 43.6276 43.8917L43.6252 43.8893Z" fill="#323237"/>
<path d="M73.0122 89.6314C69.6843 89.7548 64.0169 89.5342 57.6124 87.0196C52.1607 84.8774 48.3019 81.9073 45.9742 79.8079C44.0875 77.3099 40.1457 71.3911 39.1928 62.7845C38.1618 53.4852 41.2171 46.3921 42.5989 43.607C69.4733 43.0211 96.3477 42.4375 123.224 41.8516C123.464 44.1384 123.717 49.6089 120.74 55.4684C116.836 63.1522 110.062 66.2195 108.161 67.0047C104.888 64.1462 95.2692 56.5146 80.8555 55.4542C71.0709 54.7354 63.3698 57.3591 59.3166 59.0885C55.8418 60.0753 53.6303 63.4202 54.0593 66.8031C54.4409 69.8206 56.8539 72.3163 59.9993 72.8595C60.5729 75.1393 61.9073 79.1626 65.1689 83.1504C67.9729 86.576 71.0448 88.5639 73.0122 89.6314Z" fill="#323237"/>
<path d="M124.82 89.5129C123.924 93.4769 125.969 97.5572 129.679 99.2083C133.388 100.859 137.788 99.6448 140.127 96.326C140.622 101.469 145.368 105.054 150.092 104.294C154.432 103.595 157.707 99.3981 157.243 94.6939C160.585 97.3319 165.003 97.9036 168.561 96.1315C169.061 95.8824 173.759 93.439 173.991 88.2959C174.148 84.8395 172.223 81.5325 169.047 79.8126C174.266 80.8683 178.796 77.0323 178.948 72.9046C179.078 69.3747 176.001 65.7261 171.583 65.2161C175.255 63.3681 176.838 58.2629 174.857 54.6595C172.877 51.056 167.722 49.6587 164.195 51.77C165.416 46.4894 162.495 41.7899 158.755 40.9406C154.991 40.0866 151.734 43.4339 151.559 43.6166C149.027 40.6204 145.06 39.4271 141.611 40.5848C137.655 41.9133 136.233 45.7136 136.052 46.2166C133.021 41.8255 126.967 41.1446 123.4 44.1906C120.257 46.8737 119.593 51.9835 122.3 55.7721C118.453 55.7009 114.962 57.9569 113.532 61.4109C111.963 65.2066 113.191 69.7139 116.569 72.2997C113.4 75.6232 112.757 80.586 114.928 84.4362C116.872 87.8807 120.757 89.8782 124.815 89.5105L124.82 89.5129Z" fill="#C1F1C1"/>
<path d="M123.791 89.2281C123.044 92.6134 124.144 96.2643 126.761 98.5749C129.378 100.885 133.116 101.647 136.391 100.437C138.29 99.7373 139.873 98.5108 141.047 96.8645L139.058 96.326C139.274 98.4397 140.072 100.38 141.445 102.003C142.692 103.476 144.408 104.574 146.261 105.103C148.115 105.632 150.184 105.583 151.995 104.883C153.898 104.147 155.494 102.862 156.643 101.175C157.921 99.2984 158.516 96.9499 158.307 94.6939L156.487 95.4482C158.753 97.2203 161.519 98.2878 164.42 98.2143C166.331 98.1669 168.246 97.6355 169.865 96.613C171.351 95.676 172.664 94.4329 173.605 92.9455C174.949 90.8223 175.352 88.2389 174.83 85.7907C174.205 82.8586 172.192 80.3226 169.583 78.8898L168.76 80.8398C170.81 81.2431 172.861 81.0319 174.774 80.1874C176.426 79.4591 177.867 78.209 178.829 76.6788C179.799 75.1369 180.185 73.3339 179.915 71.5358C179.644 69.7376 178.734 68.1837 177.511 66.9502C175.914 65.337 173.818 64.4189 171.583 64.1461L172.121 66.1365C175.314 64.502 177.168 60.6542 176.72 57.129C176.485 55.281 175.707 53.5753 174.359 52.2705C173.081 51.0346 171.396 50.183 169.647 49.8746C167.596 49.514 165.468 49.7797 163.659 50.8472L165.226 52.0523C166.022 48.5247 165.257 44.5868 162.642 41.9773C161.45 40.7864 159.945 40.0012 158.272 39.7853C156.598 39.5694 154.849 40.0818 153.375 40.9097C152.448 41.4293 151.54 42.0888 150.805 42.8621H152.313C150.163 40.3428 146.795 38.7961 143.462 39.1211C141.845 39.28 140.267 39.8043 138.935 40.7484C137.821 41.5384 136.894 42.5229 136.147 43.6663C135.687 44.3709 135.306 45.1371 135.024 45.9318L136.972 45.678C135.792 43.9842 134.206 42.7174 132.293 41.9464C130.572 41.2537 128.662 41.1019 126.841 41.4269C125.021 41.7519 123.293 42.6723 122.032 44.0222C120.61 45.5475 119.806 47.5023 119.588 49.5662C119.34 51.9242 120.013 54.3795 121.378 56.3105L122.3 54.7045C118.88 54.6571 115.639 56.2821 113.632 59.0481C111.624 61.8142 111.269 65.3916 112.456 68.4684C113.151 70.2666 114.286 71.8702 115.815 73.054V71.5452C113.298 74.2093 112.16 77.8863 112.767 81.5017C113.35 84.9747 115.741 88.0396 118.927 89.5128C120.766 90.3621 122.791 90.7535 124.815 90.578C125.37 90.5305 125.91 90.1201 125.882 89.5104C125.858 88.9719 125.41 88.3907 124.815 88.4429C124.419 88.4761 124.023 88.4927 123.625 88.4832C123.428 88.4785 123.232 88.469 123.037 88.4548C122.94 88.4477 122.843 88.4382 122.746 88.4287C122.682 88.4216 122.618 88.4145 122.551 88.4073C122.675 88.4239 122.672 88.4239 122.547 88.4073C121.786 88.2769 121.041 88.0918 120.321 87.8095C120.297 87.8 120.006 87.6767 120.224 87.7716C120.15 87.7407 120.079 87.7075 120.006 87.6743C119.847 87.6008 119.69 87.5249 119.536 87.4418C119.171 87.2497 118.818 87.0362 118.479 86.8037C118.401 86.7491 118.323 86.6946 118.247 86.6376C118.228 86.6234 117.981 86.4312 118.161 86.5736C118.038 86.4739 117.915 86.3743 117.796 86.2699C117.486 85.9995 117.192 85.7077 116.917 85.4017C116.789 85.2593 116.668 85.1123 116.547 84.9628C116.69 85.1407 116.495 84.8916 116.481 84.875C116.424 84.7967 116.37 84.7185 116.315 84.6402C116.095 84.3199 115.893 83.9878 115.713 83.6438C115.623 83.4706 115.54 83.2951 115.457 83.1172C115.32 82.8301 115.528 83.3117 115.412 83.0152C115.376 82.925 115.341 82.8349 115.308 82.7447C115.175 82.3841 115.061 82.0141 114.971 81.6416C114.926 81.4566 114.886 81.2668 114.853 81.0794C114.836 80.9845 114.822 80.8896 114.805 80.7971C114.753 80.4863 114.824 81.0153 114.793 80.7022C114.755 80.3203 114.727 79.9407 114.727 79.5588C114.727 79.1768 114.748 78.7925 114.789 78.413C114.791 78.3821 114.838 78.0666 114.8 78.3157C114.815 78.2208 114.829 78.1259 114.845 78.031C114.879 77.8412 114.917 77.6538 114.962 77.4664C115.064 77.0276 115.194 76.5958 115.353 76.1735C115.386 76.0834 115.421 75.9932 115.459 75.9031C115.376 76.1119 115.528 75.7465 115.545 75.7109C115.628 75.533 115.713 75.3575 115.805 75.1843C116.021 74.7763 116.265 74.3825 116.533 74.0077C116.59 73.927 116.649 73.8463 116.711 73.7657C116.59 73.927 116.834 73.6162 116.855 73.5878C117.007 73.4051 117.166 73.2296 117.327 73.0588C117.685 72.6792 117.794 71.9106 117.327 71.55C116.713 71.0755 116.17 70.537 115.68 69.9368C115.483 69.6972 115.796 70.1053 115.616 69.8538C115.58 69.8016 115.542 69.7518 115.507 69.702C115.398 69.5478 115.296 69.3912 115.196 69.2323C115 68.9144 114.822 68.587 114.665 68.2478C114.625 68.1648 114.587 68.0794 114.552 67.994C114.649 68.2193 114.53 67.9346 114.518 67.9062C114.464 67.7615 114.412 67.6168 114.362 67.4721C114.241 67.1067 114.144 66.7367 114.068 66.3595C114.035 66.1934 114.006 66.0273 113.983 65.8613C114.021 66.1222 113.98 65.8186 113.976 65.7806C113.966 65.6881 113.959 65.598 113.952 65.5054C113.926 65.1377 113.921 64.77 113.938 64.4023C113.945 64.2481 113.957 64.0963 113.971 63.9421C113.976 63.9042 114.013 63.5981 113.976 63.8591C113.987 63.7666 114.002 63.6764 114.018 63.5839C114.082 63.2162 114.168 62.8532 114.277 62.4974C114.331 62.3171 114.393 62.1392 114.459 61.9636C114.492 61.8759 114.528 61.7881 114.563 61.7003C114.547 61.7407 114.48 61.883 114.568 61.6956C114.734 61.3445 114.909 61.0005 115.116 60.6684C115.206 60.5237 115.298 60.3837 115.395 60.2437C115.447 60.1678 115.502 60.0943 115.559 60.0208C115.417 60.2129 115.599 59.9686 115.618 59.9472C115.85 59.6625 116.099 59.3921 116.365 59.1383C116.474 59.0315 116.588 58.9295 116.704 58.8299C116.772 58.7706 116.844 58.7113 116.915 58.652C116.938 58.633 117.18 58.4479 116.988 58.5927C117.282 58.372 117.588 58.168 117.905 57.983C118.09 57.8739 118.28 57.7718 118.474 57.677C118.557 57.6366 118.64 57.5963 118.726 57.5583C118.771 57.537 119.024 57.4302 118.811 57.518C119.185 57.3662 119.567 57.2357 119.956 57.1313C120.167 57.0744 120.38 57.0246 120.596 56.9843C120.688 56.9653 120.781 56.9487 120.875 56.9344C120.951 56.9226 121.16 56.8965 120.968 56.9178C121.414 56.8656 121.859 56.8419 122.307 56.849C123.066 56.8585 123.703 55.9144 123.229 55.243C122.952 54.8492 122.701 54.4388 122.487 54.0094C122.437 53.9074 122.39 53.8054 122.34 53.701C122.324 53.6678 122.257 53.5136 122.333 53.6892C122.314 53.6441 122.298 53.599 122.279 53.5539C122.191 53.331 122.11 53.1056 122.042 52.8755C121.907 52.439 121.816 51.9954 121.741 51.5446C121.715 51.3809 121.755 51.7178 121.741 51.5518C121.736 51.5043 121.731 51.4592 121.726 51.4142C121.715 51.3074 121.707 51.1983 121.7 51.0915C121.686 50.8614 121.679 50.6313 121.684 50.3988C121.686 50.1853 121.698 49.9718 121.715 49.7583C121.724 49.6516 121.736 49.5472 121.748 49.4404C121.764 49.2767 121.717 49.616 121.748 49.4547C121.76 49.3954 121.767 49.3361 121.776 49.2744C121.852 48.845 121.956 48.4204 122.096 48.0076C122.129 47.9079 122.165 47.8107 122.2 47.711C122.227 47.6422 122.326 47.4026 122.243 47.5924C122.34 47.3742 122.442 47.1607 122.554 46.9495C122.646 46.7787 122.743 46.6127 122.848 46.4514C122.904 46.3636 122.961 46.2782 123.021 46.1928C123.054 46.143 123.253 45.8773 123.118 46.0505C123.39 45.6994 123.698 45.372 124.03 45.0731C124.094 45.0138 124.161 44.9568 124.227 44.9023C124.27 44.8667 124.312 44.8335 124.353 44.7979C124.327 44.8192 124.173 44.9307 124.329 44.8145C124.485 44.6983 124.658 44.5797 124.829 44.4705C125.161 44.2618 125.507 44.0886 125.863 43.9273C125.671 44.015 125.848 43.9344 125.943 43.8988C126.031 43.8656 126.119 43.8348 126.209 43.8039C126.398 43.7399 126.593 43.6806 126.787 43.6307C126.969 43.5833 127.152 43.543 127.337 43.5074C127.429 43.4908 127.522 43.4742 127.617 43.4599C127.643 43.4552 127.78 43.4362 127.636 43.4552C127.47 43.4789 127.702 43.4481 127.735 43.4457C128.126 43.403 128.52 43.3888 128.913 43.4006C129.105 43.4054 129.295 43.4172 129.484 43.4362C129.579 43.4457 129.674 43.4576 129.771 43.4671C129.529 43.441 129.797 43.4742 129.894 43.4908C130.29 43.5596 130.681 43.6545 131.063 43.7731C131.276 43.8395 131.485 43.9154 131.693 43.9961C131.727 44.0079 131.893 44.0791 131.76 44.0222C131.627 43.9652 131.803 44.0411 131.826 44.053C131.928 44.1005 132.03 44.1479 132.132 44.1977C132.554 44.4065 132.957 44.6508 133.341 44.9236C133.405 44.9687 133.639 45.1537 133.471 45.0161C133.561 45.0897 133.654 45.1632 133.741 45.2391C133.922 45.3933 134.092 45.5523 134.261 45.7183C134.441 45.8986 134.611 46.086 134.777 46.2806C134.806 46.3162 134.836 46.3494 134.865 46.3849C134.882 46.4039 135.033 46.6008 134.95 46.4917C134.877 46.3944 134.969 46.5178 134.979 46.5297C135.033 46.6056 135.088 46.6791 135.14 46.755C135.68 47.5284 136.771 47.3908 137.088 46.5012C137.112 46.4324 137.138 46.366 137.164 46.2972C137.185 46.2426 137.212 46.188 137.23 46.1311C137.093 46.5273 137.181 46.2497 137.226 46.1501C137.382 45.8037 137.558 45.4692 137.75 45.1419C137.861 44.9521 137.98 44.7647 138.105 44.582C138.181 44.4682 138.262 44.359 138.342 44.2475C138.354 44.2309 138.499 44.0483 138.387 44.1859C138.276 44.3234 138.465 44.091 138.484 44.0672C138.868 43.5999 139.295 43.1681 139.762 42.7862C139.805 42.7506 139.85 42.715 139.892 42.6818C139.688 42.8431 139.916 42.6676 139.949 42.6439C140.08 42.549 140.212 42.4588 140.345 42.3734C140.639 42.186 140.945 42.0152 141.26 41.8658C141.345 41.8254 141.431 41.7851 141.518 41.7495C141.3 41.8421 141.599 41.7211 141.62 41.7139C141.772 41.657 141.926 41.6048 142.08 41.5574C142.443 41.4459 142.813 41.3581 143.189 41.2941C143.185 41.2941 143.493 41.2514 143.329 41.2727C143.166 41.2941 143.474 41.2585 143.469 41.2585C143.656 41.2395 143.846 41.2276 144.033 41.2229C144.379 41.211 144.725 41.2229 145.071 41.2514C145.166 41.2585 145.259 41.2703 145.353 41.2798C145.1 41.2514 145.413 41.2893 145.446 41.2941C145.602 41.3202 145.759 41.3486 145.913 41.3818C146.287 41.4625 146.655 41.5669 147.015 41.6926C147.105 41.7234 147.195 41.7566 147.285 41.7922C147.302 41.7993 147.593 41.918 147.387 41.8302C147.596 41.918 147.8 42.0176 148.001 42.1196C148.35 42.2999 148.686 42.5015 149.011 42.7222C149.094 42.7767 149.174 42.8337 149.253 42.893C149.307 42.9309 149.359 42.9712 149.411 43.0116C149.34 42.957 149.333 42.9523 149.392 42.9973C149.563 43.1326 149.729 43.2725 149.888 43.4196C150.215 43.7161 150.521 44.0364 150.808 44.3733C151.175 44.805 151.943 44.7671 152.315 44.3733C152.479 44.2025 152.654 44.0411 152.832 43.8869C152.91 43.8205 152.988 43.7541 153.066 43.6877C153.13 43.6331 153.429 43.365 153.173 43.5999C153.386 43.4054 153.657 43.2464 153.898 43.0899C154.159 42.9214 154.425 42.7649 154.7 42.6225C154.844 42.5466 154.991 42.4731 155.14 42.4066C155.181 42.3877 155.441 42.2809 155.195 42.3806C155.302 42.3379 155.406 42.2952 155.515 42.2572C155.844 42.1362 156.183 42.0389 156.527 41.9678C156.615 41.9488 156.705 41.9346 156.793 41.918C157.086 41.861 156.57 41.9322 156.868 41.9061C157.084 41.8895 157.297 41.8705 157.513 41.8729C157.703 41.8729 157.892 41.8871 158.08 41.9014C158.39 41.9251 157.871 41.8515 158.181 41.9156C158.279 41.9346 158.376 41.9512 158.473 41.9725C158.625 42.0057 158.774 42.0461 158.921 42.0935C158.995 42.1172 159.068 42.141 159.141 42.1671C159.196 42.186 159.518 42.3236 159.248 42.2026C159.511 42.3212 159.77 42.4517 160.016 42.6012C160.154 42.6842 160.286 42.772 160.417 42.8645C160.483 42.9119 160.547 42.9594 160.611 43.0068C160.388 42.8384 160.673 43.0614 160.711 43.0946C160.962 43.3105 161.199 43.543 161.422 43.7897C161.535 43.9154 161.642 44.0459 161.749 44.1764C161.588 43.9771 161.765 44.2001 161.789 44.2333C161.858 44.3258 161.922 44.4207 161.986 44.5156C162.18 44.8074 162.358 45.1134 162.519 45.4266C162.6 45.5879 162.676 45.7492 162.749 45.9152C162.647 45.6875 162.768 45.9651 162.78 45.9959C162.825 46.1098 162.868 46.226 162.908 46.3399C163.05 46.755 163.166 47.1773 163.252 47.6067C163.271 47.7016 163.287 47.7941 163.304 47.889C163.311 47.9317 163.365 48.3302 163.337 48.0835C163.363 48.3112 163.384 48.5413 163.396 48.7691C163.422 49.2412 163.415 49.7156 163.375 50.1877C163.365 50.2921 163.353 50.3941 163.344 50.4985C163.327 50.6266 163.327 50.6384 163.344 50.5269C163.335 50.5981 163.323 50.6669 163.313 50.7357C163.273 50.9848 163.223 51.2315 163.169 51.4758C162.967 52.3631 163.906 53.172 164.735 52.681C164.894 52.5884 165.055 52.4983 165.219 52.4176C165.307 52.3749 165.397 52.3346 165.487 52.2943C165.295 52.3844 165.503 52.2895 165.582 52.2587C165.935 52.1258 166.3 52.0238 166.67 51.9479C166.767 51.9289 166.862 51.9123 166.959 51.8957C166.999 51.8886 167.042 51.8839 167.084 51.8767C167.075 51.8767 166.885 51.8934 167.008 51.8886C167.205 51.8791 167.4 51.8507 167.596 51.8435C167.976 51.8269 168.357 51.8388 168.734 51.8767C168.791 51.8815 168.845 51.891 168.902 51.8957C168.893 51.8957 168.706 51.8649 168.829 51.8862C168.926 51.9028 169.023 51.9171 169.12 51.9337C169.315 51.9693 169.509 52.012 169.699 52.0594C170.071 52.1543 170.424 52.2872 170.784 52.4153C170.898 52.4556 170.735 52.3939 170.725 52.3892C170.763 52.4058 170.803 52.4224 170.841 52.4414C170.931 52.4841 171.021 52.5244 171.109 52.5671C171.284 52.6549 171.46 52.7497 171.628 52.8494C171.785 52.9419 171.939 53.0415 172.09 53.1435C172.159 53.191 172.228 53.2408 172.297 53.2906C172.33 53.3143 172.363 53.3404 172.399 53.3665C172.211 53.2242 172.375 53.3499 172.413 53.3831C172.702 53.6299 172.977 53.8837 173.228 54.1684C173.285 54.23 173.34 54.2941 173.392 54.3605C173.427 54.4032 173.463 54.4483 173.496 54.491C173.489 54.4815 173.392 54.3415 173.456 54.4435C173.562 54.6096 173.683 54.7662 173.785 54.9346C173.88 55.0912 173.97 55.2525 174.053 55.4162C174.098 55.504 174.134 55.5965 174.179 55.6842C174.235 55.791 174.157 55.6344 174.155 55.6226C174.176 55.6748 174.198 55.7269 174.217 55.7791C174.352 56.1326 174.456 56.4979 174.532 56.868C174.551 56.9629 174.57 57.0602 174.586 57.1574C174.603 57.2618 174.61 57.397 174.596 57.2072C174.612 57.4041 174.634 57.5987 174.643 57.7932C174.66 58.1728 174.648 58.5523 174.61 58.9319C174.601 59.0315 174.565 59.2427 174.601 59.0268C174.586 59.1098 174.574 59.1952 174.56 59.2782C174.525 59.4728 174.484 59.6673 174.437 59.8594C174.34 60.2461 174.207 60.6162 174.07 60.9863C174.143 60.787 174.06 61.0053 174.027 61.0812C173.979 61.1832 173.93 61.2852 173.88 61.3848C173.785 61.5722 173.681 61.7573 173.572 61.9375C173.463 62.1178 173.342 62.291 173.221 62.4642C173.197 62.4998 173.171 62.5306 173.145 62.5662C173.278 62.3764 173.164 62.5425 173.131 62.5828C173.069 62.6587 173.005 62.7346 172.941 62.8082C172.652 63.1379 172.332 63.4226 172.003 63.7049C171.913 63.7832 172.043 63.6717 172.052 63.6669C172.007 63.6978 171.962 63.7334 171.917 63.7666C171.825 63.8306 171.732 63.8947 171.638 63.954C171.448 64.075 171.251 64.1865 171.05 64.2885C170.649 64.4949 170.422 65.0666 170.559 65.4936C170.716 65.9799 171.097 66.2171 171.588 66.2764C171.796 66.3025 171.498 66.2575 171.702 66.293C171.815 66.312 171.929 66.3334 172.043 66.3547C172.266 66.3998 172.489 66.4544 172.709 66.516C172.894 66.5682 173.076 66.6275 173.259 66.6916C173.363 66.7295 173.468 66.7675 173.569 66.8078C173.581 66.8126 173.726 66.8742 173.617 66.8268C173.508 66.7794 173.686 66.86 173.705 66.8671C174.084 67.0403 174.449 67.2396 174.8 67.4649C174.951 67.5646 175.101 67.669 175.248 67.7757C175.281 67.7994 175.406 67.9014 175.248 67.7733C175.283 67.8018 175.319 67.8303 175.352 67.8587C175.432 67.9252 175.513 67.9916 175.591 68.0604C175.89 68.3213 176.167 68.6036 176.426 68.9049C176.483 68.9713 176.535 69.0401 176.592 69.1066C176.672 69.1967 176.565 69.071 176.558 69.0615C176.584 69.0971 176.611 69.1303 176.637 69.1659C176.753 69.3272 176.867 69.4932 176.971 69.6617C177.068 69.8182 177.158 69.9772 177.243 70.1385C177.281 70.212 177.319 70.2879 177.357 70.3638C177.395 70.4398 177.509 70.7055 177.421 70.4896C177.556 70.8193 177.67 71.1586 177.753 71.5049C177.793 71.6757 177.817 71.8513 177.855 72.0221C177.881 72.1431 177.845 71.9462 177.845 71.939C177.85 71.9794 177.855 72.0197 177.86 72.06C177.869 72.1668 177.879 72.2735 177.886 72.3803C177.893 72.5416 177.895 72.7005 177.89 72.8619C177.888 72.9567 177.883 73.0493 177.876 73.1441C177.872 73.1916 177.843 73.4692 177.86 73.3244C177.879 73.1679 177.834 73.4692 177.829 73.5024C177.815 73.583 177.798 73.6613 177.779 73.7396C177.736 73.9246 177.687 74.1073 177.627 74.2876C177.578 74.4442 177.518 74.596 177.459 74.7502C177.54 74.5485 177.454 74.7549 177.416 74.8356C177.376 74.9234 177.333 75.0088 177.288 75.0942C177.113 75.4286 176.909 75.7465 176.689 76.0526C176.665 76.0858 176.639 76.1213 176.613 76.1546C176.62 76.1451 176.729 76.017 176.648 76.1047C176.592 76.1688 176.539 76.2376 176.485 76.3016C176.355 76.4535 176.217 76.6006 176.077 76.7429C175.944 76.8757 175.807 77.0038 175.665 77.1296C175.598 77.1865 175.532 77.2434 175.466 77.298C175.421 77.336 175.376 77.3715 175.328 77.4071C175.402 77.3478 175.421 77.3383 175.333 77.4C175.02 77.6254 174.695 77.8365 174.356 78.0215C174.157 78.1307 173.951 78.2208 173.75 78.3228C173.641 78.3774 173.78 78.311 173.795 78.3062C173.738 78.3299 173.681 78.3513 173.624 78.375C173.51 78.4201 173.394 78.4604 173.278 78.5007C172.837 78.6502 172.382 78.7664 171.92 78.8423C171.872 78.8495 171.825 78.8566 171.78 78.8637C171.614 78.8922 171.948 78.8495 171.78 78.8637C171.668 78.8732 171.557 78.8874 171.446 78.8945C171.202 78.9135 170.957 78.9206 170.716 78.9183C170.474 78.9159 170.218 78.9017 169.969 78.8779C169.919 78.8732 169.869 78.8661 169.817 78.8613C169.635 78.8471 170.066 78.904 169.746 78.8518C169.609 78.8305 169.474 78.8068 169.338 78.7783C168.812 78.6739 168.296 78.885 168.08 79.3975C167.881 79.8719 168.049 80.4745 168.516 80.7307C168.779 80.8754 169.035 81.0272 169.284 81.1933C169.393 81.2668 169.502 81.3403 169.606 81.4186C169.594 81.4091 169.85 81.6037 169.734 81.5112C169.651 81.4471 169.867 81.6203 169.893 81.6416C170.339 82.0117 170.749 82.4245 171.121 82.8681C171.173 82.9298 171.223 82.9914 171.273 83.0531C171.247 83.0199 171.159 82.8989 171.28 83.065C171.356 83.167 171.429 83.2714 171.5 83.3758C171.678 83.6367 171.844 83.9071 171.993 84.1847C172.121 84.4196 172.235 84.6615 172.344 84.9059C172.417 85.0719 172.259 84.6734 172.363 84.9557C172.384 85.015 172.408 85.0719 172.429 85.1312C172.484 85.2783 172.534 85.4278 172.581 85.5772C172.664 85.8477 172.735 86.1228 172.794 86.398C172.82 86.5214 172.844 86.6447 172.863 86.7705C172.873 86.8321 172.882 86.8962 172.892 86.9579C172.858 86.7183 172.892 86.9982 172.899 87.0504C172.953 87.6197 172.956 88.1938 172.899 88.7632C172.899 88.7632 172.861 89.0645 172.884 88.8984C172.908 88.7323 172.863 89.0289 172.863 89.0289C172.844 89.1475 172.82 89.2637 172.797 89.3823C172.74 89.6528 172.669 89.9185 172.583 90.1818C172.545 90.3028 172.503 90.4214 172.458 90.54C172.427 90.623 172.316 90.884 172.41 90.6705C172.301 90.9172 172.185 91.1592 172.055 91.394C171.834 91.7973 171.578 92.1792 171.301 92.5446C171.441 92.3595 171.308 92.5327 171.239 92.6134C171.171 92.694 171.102 92.7771 171.031 92.8577C170.886 93.0214 170.737 93.1803 170.583 93.3369C170.315 93.605 170.031 93.8612 169.737 94.1008C169.699 94.1316 169.459 94.3167 169.618 94.198C169.777 94.0794 169.547 94.2526 169.507 94.2811C169.383 94.3712 169.26 94.459 169.135 94.5444C168.798 94.7745 168.452 94.988 168.089 95.1731C167.966 95.2371 167.838 95.2964 167.712 95.3533C167.689 95.3652 167.497 95.4482 167.611 95.4008C167.748 95.3439 167.442 95.4672 167.459 95.4601C167.302 95.5194 167.146 95.5763 166.987 95.6285C166.719 95.7163 166.447 95.7922 166.172 95.8563C166.027 95.8895 165.88 95.9203 165.733 95.9488C165.667 95.9606 165.603 95.9725 165.537 95.982C165.518 95.9844 165.195 96.0271 165.425 96.001C164.745 96.0816 164.062 96.1006 163.38 96.0484C163.211 96.0366 163.045 96.0176 162.879 95.9986C162.687 95.9773 163.131 96.0437 162.813 95.9891C162.73 95.9749 162.647 95.963 162.564 95.9464C162.213 95.8824 161.867 95.8017 161.524 95.7068C161.18 95.6119 160.869 95.5052 160.549 95.3818C160.485 95.3581 160.421 95.332 160.357 95.3059C160.045 95.1802 160.538 95.3913 160.229 95.2513C160.071 95.1778 159.914 95.1043 159.758 95.026C159.445 94.867 159.137 94.6939 158.84 94.5088C158.675 94.4044 158.511 94.2977 158.352 94.1862C158.293 94.1459 158.236 94.1032 158.177 94.0628C158.146 94.0415 157.88 93.8398 158.006 93.9371C157.658 93.6643 157.276 93.5314 156.84 93.7165C156.48 93.8683 156.145 94.274 156.183 94.6915C156.226 95.1493 156.238 95.6072 156.214 96.065C156.209 96.1742 156.2 96.2833 156.19 96.39C156.186 96.4375 156.153 96.7387 156.167 96.6154C156.181 96.5063 156.141 96.7791 156.131 96.8384C156.11 96.9594 156.086 97.078 156.06 97.1966C155.968 97.6236 155.842 98.0459 155.688 98.4539C155.669 98.5061 155.553 98.786 155.645 98.5725C155.61 98.6555 155.574 98.7362 155.536 98.8169C155.437 99.0327 155.328 99.2439 155.209 99.4503C155.005 99.8108 154.778 100.157 154.527 100.485C154.666 100.302 154.481 100.537 154.446 100.577C154.38 100.655 154.313 100.734 154.244 100.81C154.097 100.973 153.946 101.13 153.787 101.284C153.64 101.426 153.488 101.562 153.33 101.694C153.273 101.742 153.071 101.898 153.237 101.773C153.145 101.844 153.05 101.913 152.955 101.979C152.609 102.221 152.244 102.437 151.865 102.624C151.772 102.669 151.68 102.712 151.587 102.755C151.571 102.762 151.436 102.821 151.554 102.771C151.682 102.717 151.509 102.788 151.478 102.8C151.272 102.881 151.066 102.952 150.855 103.016C150.656 103.075 150.457 103.127 150.253 103.172C150.165 103.191 150.077 103.208 149.99 103.225C149.931 103.236 149.871 103.244 149.814 103.255C149.606 103.293 149.923 103.246 149.791 103.26C149.366 103.303 148.944 103.329 148.52 103.312C148.331 103.305 148.143 103.289 147.956 103.272C147.921 103.27 147.736 103.246 147.883 103.265C148.02 103.284 147.875 103.265 147.852 103.26C147.738 103.241 147.624 103.222 147.51 103.201C147.1 103.12 146.697 103.006 146.304 102.866C146.209 102.833 146.114 102.795 146.022 102.76C145.977 102.743 145.835 102.679 146.036 102.767C145.996 102.75 145.956 102.733 145.918 102.715C145.721 102.622 145.527 102.529 145.337 102.427C144.967 102.228 144.616 101.998 144.275 101.751C144.239 101.725 144.206 101.699 144.171 101.673C144.341 101.801 144.216 101.706 144.18 101.678C144.102 101.611 144.024 101.547 143.946 101.481C143.78 101.339 143.621 101.189 143.467 101.033C143.301 100.867 143.142 100.693 142.99 100.515C142.914 100.425 142.839 100.335 142.767 100.243C142.905 100.416 142.708 100.162 142.668 100.105C142.391 99.716 142.146 99.3079 141.936 98.8809C141.881 98.7718 141.831 98.6627 141.781 98.5535C141.698 98.3685 141.767 98.5203 141.781 98.5583C141.758 98.5013 141.736 98.4468 141.715 98.3899C141.623 98.1479 141.54 97.9012 141.466 97.6497C141.393 97.3982 141.338 97.1681 141.291 96.9262C141.267 96.8028 141.25 96.6771 141.224 96.5537C141.198 96.4304 141.227 96.5846 141.229 96.6012C141.217 96.5063 141.208 96.4114 141.196 96.3165C141.087 95.2442 139.843 94.886 139.207 95.778C139.153 95.8563 139.096 95.9346 139.039 96.0105C139.179 95.8278 138.984 96.0745 138.97 96.0935C138.849 96.2382 138.724 96.3805 138.596 96.5158C138.337 96.7862 138.062 97.0329 137.776 97.2725C137.543 97.467 137.946 97.1563 137.7 97.3318C137.624 97.384 137.55 97.4409 137.475 97.4931C137.349 97.5809 137.221 97.6639 137.091 97.7446C136.752 97.951 136.401 98.1336 136.038 98.2926C136.266 98.193 135.988 98.3116 135.955 98.3234C135.898 98.3448 135.841 98.3661 135.785 98.3875C135.614 98.4492 135.441 98.5061 135.266 98.5583C134.915 98.6603 134.559 98.7315 134.201 98.7979C133.903 98.8524 134.426 98.7789 134.123 98.8097C134.033 98.8192 133.943 98.8287 133.85 98.8382C133.668 98.8524 133.485 98.8643 133.303 98.8667C132.936 98.8738 132.57 98.8501 132.203 98.8169C131.897 98.7908 132.424 98.8572 132.12 98.8074C132.028 98.7908 131.938 98.7765 131.845 98.7599C131.693 98.7315 131.542 98.6982 131.39 98.6627C130.992 98.5654 130.606 98.4373 130.224 98.2855C130.414 98.3614 130.219 98.2831 130.172 98.2617C130.098 98.2285 130.027 98.1953 129.956 98.1597C129.785 98.0767 129.617 97.9889 129.454 97.894C129.129 97.709 128.814 97.5026 128.52 97.2749C128.707 97.4196 128.468 97.2274 128.446 97.2108C128.375 97.1515 128.306 97.0922 128.238 97.0305C128.1 96.9072 127.967 96.7815 127.837 96.651C127.73 96.5419 127.626 96.4304 127.524 96.3165C127.463 96.2477 127.403 96.1789 127.346 96.1077C127.308 96.0603 127.268 96.0128 127.23 95.9654C127.279 96.0302 127.279 96.0302 127.23 95.9654C127.033 95.695 126.849 95.4174 126.68 95.128C126.59 94.9714 126.503 94.8101 126.422 94.6464C126.382 94.5658 126.344 94.4827 126.306 94.3997C126.28 94.3451 126.256 94.2882 126.232 94.2336C126.28 94.3499 126.282 94.3499 126.235 94.236C126.097 93.8636 125.972 93.4911 125.877 93.1068C125.834 92.9289 125.796 92.7486 125.765 92.5683C125.749 92.4782 125.735 92.388 125.723 92.2955C125.761 92.5612 125.713 92.1698 125.708 92.1223C125.673 91.7214 125.668 91.3181 125.69 90.9172C125.694 90.8247 125.701 90.7298 125.711 90.6373C125.716 90.5922 125.765 90.196 125.727 90.4522C125.761 90.2316 125.801 90.0134 125.848 89.7951C125.969 89.2519 125.685 88.6137 125.104 88.4809C124.564 88.3575 123.921 88.6422 123.791 89.2258V89.2281Z" fill="#323237"/>
<path d="M58.0324 59.9527C58.8051 59.7676 59.4712 59.8008 59.8979 59.8554C59.8315 60.1211 59.7627 60.3868 59.6964 60.6525C59.31 62.1494 59.1251 63.4565 59.0327 64.4766C58.9023 65.9047 58.9331 67.0102 58.9521 67.6886C58.9971 69.1547 59.1394 70.2412 59.182 70.5591C59.2911 71.3514 59.4214 72.0299 59.5376 72.5589C58.9403 72.5233 57.2597 72.3454 55.7735 71.0596C54.1594 69.6624 53.6616 67.7242 53.5976 66.5025C53.5976 66.4811 53.5952 66.4384 53.5929 66.3791C53.5739 65.8572 53.536 63.8218 54.9629 62.0236C55.3208 61.5729 56.3045 60.3678 58.0301 59.9527H58.0324Z" stroke="#323237" stroke-width="3" stroke-linecap="round" stroke-linejoin="round"/>
</g>
<defs>
<clipPath id="clip0_17_1968">
<rect width="180" height="121" fill="white"/>
</clipPath>
</defs>
</svg>
