<svg width="8" height="17" viewBox="0 0 8 17" fill="none" xmlns="http://www.w3.org/2000/svg">
<path d="M7.29136 16.9121C7.19864 16.9126 7.10672 16.8949 7.02088 16.8598C6.93504 16.8247 6.85696 16.7731 6.79113 16.7078L1.03494 10.9516C0.706881 10.6244 0.446599 10.2356 0.269007 9.80765C0.0914142 9.37967 0 8.92086 0 8.4575C0 7.99413 0.0914142 7.53532 0.269007 7.10734C0.446599 6.67936 0.706881 6.29062 1.03494 5.96338L6.79113 0.207203C6.85682 0.141511 6.93481 0.0894021 7.02064 0.0538502C7.10647 0.0182983 7.19846 6.92171e-10 7.29136 0C7.38426 -6.9217e-10 7.47626 0.0182983 7.56209 0.0538502C7.64792 0.0894021 7.7259 0.141511 7.79159 0.207203C7.85729 0.272894 7.9094 0.350881 7.94495 0.436711C7.9805 0.522541 7.9988 0.614532 7.9988 0.707434C7.9988 0.800335 7.9805 0.892327 7.94495 0.978157C7.9094 1.06399 7.85729 1.14197 7.79159 1.20767L2.03541 6.96385C1.63959 7.36016 1.41726 7.89738 1.41726 8.4575C1.41726 9.01762 1.63959 9.55483 2.03541 9.95114L7.79159 15.7073C7.85763 15.7728 7.91005 15.8507 7.94582 15.9366C7.98159 16.0225 8 16.1145 8 16.2076C8 16.3006 7.98159 16.3927 7.94582 16.4785C7.91005 16.5644 7.85763 16.6423 7.79159 16.7078C7.72576 16.7731 7.64769 16.8247 7.56185 16.8598C7.476 16.8949 7.38409 16.9126 7.29136 16.9121Z" fill="#696972"/>
</svg>
