<svg width="26" height="26" viewBox="0 0 26 26" fill="none" xmlns="http://www.w3.org/2000/svg">
<g clip-path="url(#clip0_17_3577)">
<path d="M26 13.3249C26 20.325 20.1796 25.9999 13 25.9999C5.82111 25.9999 0 20.325 0 13.3249C0 6.32549 5.82111 0.649902 13 0.649902C20.1796 0.649902 26 6.32549 26 13.3249Z" fill="#FFC4CF"/>
<path d="M8.30556 14.7331C9.30274 14.7331 10.1111 13.6297 10.1111 12.2685C10.1111 10.9074 9.30274 9.80396 8.30556 9.80396C7.30837 9.80396 6.5 10.9074 6.5 12.2685C6.5 13.6297 7.30837 14.7331 8.30556 14.7331Z" fill="#2C2C30"/>
<path d="M17.6944 14.7331C18.6916 14.7331 19.5 13.6297 19.5 12.2685C19.5 10.9074 18.6916 9.80396 17.6944 9.80396C16.6973 9.80396 15.8889 10.9074 15.8889 12.2685C15.8889 13.6297 16.6973 14.7331 17.6944 14.7331Z" fill="#2C2C30"/>
<path d="M18.0556 18.9581H7.94445C7.54578 18.9581 7.22223 18.6434 7.22223 18.254C7.22223 17.8646 7.54578 17.5498 7.94445 17.5498H18.0556C18.455 17.5498 18.7778 17.8646 18.7778 18.254C18.7778 18.6434 18.455 18.9581 18.0556 18.9581Z" fill="#2C2C30"/>
</g>
<defs>
<clipPath id="clip0_17_3577">
<rect width="26" height="25.35" fill="white" transform="translate(0 0.649902)"/>
</clipPath>
</defs>
</svg>
