<svg width="113" height="122" viewBox="0 0 113 122" fill="none" xmlns="http://www.w3.org/2000/svg">
<path d="M32.2881 84.2744C29.5261 84.3067 15.7489 84.2016 6.79837 74.0904C-3.75195 62.1759 0.694607 45.7273 2.37369 39.5167C7.4711 20.6933 22.5309 11.0755 26.3949 8.69256C29.9691 6.48487 48.0589 -4.12769 70.6882 1.7541C72.4357 2.20965 97.9993 9.28829 107.527 33.112C112.354 45.1831 114.063 55.9518 112.354 67.8675C111.165 76.1566 109.233 77.7108 103.512 82.3735C96.2294 86 92.5883 86 86.3464 86C78.544 86 76.2068 85.0722 73.278 84.8701" fill="#2C2C30"/>
<path d="M82.9942 115.519C77.4966 114.56 70.2997 113.846 61.9251 114.423C52.6818 115.061 45.0243 117.067 39.4218 119C38.8709 116.683 38.3957 113.982 38.1596 110.954C37.7953 106.298 38.1042 102.236 38.5881 99.0146C40.4216 95.0271 44.2402 92.4343 48.4056 92.3632C53.6554 92.2721 56.8647 96.2282 57.2408 96.7092C57.8354 95.9578 61.5928 91.3613 68.0143 91.0198C75.8817 90.6014 80.5894 96.9454 80.9275 97.4179C81.3239 100.366 81.6999 103.372 82.0527 106.434C82.4054 109.514 82.7202 112.545 83 115.522L82.9942 115.519Z" fill="#2C2C30"/>
<path d="M62.0143 85.8556C59.5377 86.4773 42.4799 90.7611 32.0167 79.0247C25.3643 71.5615 23.8201 60.3628 27.7858 50.2423C34.1808 48.5818 50.1934 45.4129 66.8625 52.9889C72.1808 55.4075 76.4091 58.3928 79.6499 61.1708C82.9328 58.8965 86.6359 58.3587 88.5111 59.9038C91.1111 62.0444 89.4855 67.603 87.2242 70.6775C84.59 74.2608 80.5849 75.1659 79.3637 75.3941C76.8004 78.1564 71.0226 83.5917 62.0143 85.8556Z" fill="white"/>
<path d="M61.7011 84.7171C60.9762 84.8981 60.2487 85.066 59.5134 85.2103C58.9382 85.3231 58.3604 85.4228 57.7826 85.512C57.6251 85.5356 57.4648 85.5592 57.3073 85.5828C57.2259 85.5933 57.1444 85.6064 57.0604 85.6169C56.9081 85.6379 57.3966 85.5749 57.1812 85.6012C57.1261 85.609 57.0683 85.6169 57.0131 85.6221C56.6612 85.6667 56.3093 85.7061 55.9573 85.7428C54.2765 85.9133 52.5878 85.9815 50.8991 85.9317C49.972 85.9054 49.0449 85.8425 48.1231 85.7402C47.8972 85.7139 47.6556 85.6562 47.4298 85.6562C47.7764 85.6562 47.4192 85.6562 47.3168 85.6379C47.175 85.6169 47.0306 85.5959 46.8887 85.5723C46.4029 85.4936 45.9196 85.4044 45.4364 85.3021C44.4331 85.0896 43.443 84.822 42.4687 84.4994C41.9907 84.3394 41.5153 84.1662 41.0478 83.98C40.9874 83.9564 40.5462 83.7832 40.8587 83.9039C40.7537 83.8619 40.6486 83.8147 40.5462 83.7675C40.2836 83.6521 40.0236 83.5314 39.7662 83.4055C38.7866 82.9307 37.8411 82.3903 36.9403 81.7843C36.7144 81.6322 36.4912 81.4774 36.2732 81.3174C36.1629 81.2361 36.0526 81.1547 35.9423 81.0734C35.8898 81.0341 35.7217 80.9029 35.9266 81.0629C35.853 81.0052 35.7821 80.9501 35.7086 80.8924C35.2542 80.5304 34.8156 80.1526 34.3902 79.7592C33.4867 78.9197 32.6568 78.0068 31.8926 77.0389C31.7586 76.8605 31.8637 77.0021 31.8926 77.0389C31.8532 76.9864 31.8111 76.9339 31.7717 76.8788C31.6719 76.7451 31.5721 76.6113 31.475 76.4775C31.299 76.2335 31.1309 75.9869 30.9655 75.7377C30.6162 75.2131 30.2879 74.6727 29.9806 74.1218C29.6733 73.5709 29.3871 73.0069 29.1218 72.435C29.0667 72.3144 29.0115 72.1937 28.9564 72.073C28.9301 72.0127 28.9038 71.9524 28.8749 71.8894C28.8749 71.8894 28.7489 71.5904 28.8172 71.7556C28.8854 71.9209 28.762 71.6166 28.762 71.6192C28.7357 71.5563 28.7121 71.4959 28.6885 71.433C28.6281 71.2782 28.5677 71.1234 28.5073 70.966C28.066 69.7908 27.7089 68.5841 27.4384 67.3591C27.3018 66.7505 27.1889 66.134 27.0943 65.5175C27.0812 65.4336 27.068 65.3496 27.0575 65.2657C27.0497 65.2027 27.0181 64.9719 27.0523 65.2263C27.0365 65.0926 27.0181 64.9562 27.0024 64.8224C26.963 64.484 26.9315 64.1456 26.9026 63.8045C26.8028 62.5349 26.787 61.26 26.8527 59.9903C26.8868 59.3293 26.942 58.6682 27.0208 58.0124C27.0365 57.8734 27.0549 57.7343 27.0733 57.5953C27.0418 57.8393 27.0733 57.6058 27.0812 57.5428C27.0943 57.4563 27.1074 57.3697 27.1206 57.2831C27.1678 56.9684 27.2204 56.6562 27.2781 56.344C27.5198 55.0271 27.8481 53.726 28.2578 52.4511C28.4626 51.811 28.6885 51.1815 28.9327 50.5545L28.1081 51.3782C30.3325 50.8011 32.5833 50.3394 34.855 49.9984C35.0231 49.9721 35.1938 49.9485 35.3619 49.9249C35.4407 49.9144 35.5195 49.9013 35.5983 49.8908C35.6377 49.8856 35.6771 49.8803 35.7191 49.8751C35.8714 49.8541 35.4617 49.9092 35.6849 49.8803C36.0552 49.8331 36.4256 49.7859 36.7959 49.7439C37.5759 49.6547 38.3585 49.5787 39.1411 49.5183C40.8482 49.3872 42.5606 49.3216 44.2729 49.3321C46.1691 49.3426 48.0679 49.4422 49.9536 49.6337C50.4447 49.6836 50.9359 49.7413 51.4244 49.8043C51.4795 49.8121 51.5347 49.8174 51.5898 49.8252C51.5688 49.8226 51.4112 49.8016 51.5504 49.82C51.6791 49.8384 51.8078 49.8567 51.9365 49.8751C52.1965 49.9118 52.4565 49.9512 52.7139 49.9931C53.7355 50.1558 54.7519 50.3446 55.763 50.5624C57.8877 51.0214 59.9861 51.609 62.0399 52.3226C62.5756 52.5088 63.1088 52.7029 63.6367 52.9076C63.894 53.0072 64.1514 53.1069 64.4088 53.2119C64.548 53.2669 64.6872 53.3247 64.8237 53.3824C64.8841 53.406 64.9419 53.4322 65.0023 53.4558C65.026 53.4663 65.1862 53.5319 65.0759 53.4873C66.1185 53.9306 67.1454 54.4081 68.1565 54.917C70.0238 55.8561 71.8333 56.9054 73.5772 58.0596C74.3703 58.5817 75.1477 59.1273 75.9094 59.6913C76.0853 59.8225 76.2613 59.9536 76.4372 60.0848C76.516 60.1451 76.5975 60.2054 76.6762 60.2658C76.713 60.2946 76.8522 60.4022 76.6736 60.2658C76.7261 60.3051 76.7787 60.3471 76.8286 60.3864C77.1726 60.654 77.5114 60.9268 77.8502 61.2023C78.189 61.4777 78.4963 61.7374 78.814 62.0102C79.1922 62.3329 79.7963 62.5034 80.2454 62.1939C80.6945 61.8843 81.1935 61.5774 81.6925 61.3151C81.9236 61.1944 82.16 61.079 82.3989 60.9714C82.4488 60.9478 82.4987 60.9268 82.5513 60.9032C82.3648 60.9872 82.5355 60.9111 82.5697 60.8954C82.7036 60.8429 82.8349 60.7904 82.9715 60.7432C83.4363 60.5753 83.9143 60.4389 84.3976 60.3392C84.5079 60.3156 84.6208 60.2946 84.7337 60.2763C84.781 60.2684 84.8283 60.2632 84.8755 60.2527C85.0515 60.2212 84.6681 60.271 84.8414 60.2579C85.0699 60.2395 85.2958 60.2159 85.5269 60.2107C85.7317 60.2054 85.9339 60.2107 86.1388 60.2264C86.1992 60.2317 86.3384 60.2186 86.3909 60.25C86.2859 60.1845 86.1834 60.2159 86.3226 60.2422C86.3752 60.2527 86.4303 60.2605 86.4828 60.271C86.6641 60.3078 86.8427 60.3523 87.0186 60.4101C87.0685 60.4258 87.1158 60.4442 87.1657 60.4599C87.276 60.4966 87.1919 60.5097 87.1657 60.4573L87.0948 60.4258C87.1289 60.4415 87.1631 60.4573 87.1972 60.473C87.2523 60.5019 87.3101 60.5281 87.3653 60.557C87.5071 60.633 87.6358 60.7249 87.7697 60.8114C87.8984 60.8927 87.599 60.654 87.7014 60.7616C87.7251 60.7878 87.7566 60.8088 87.7829 60.8324C87.8538 60.8954 87.9194 60.9609 87.9851 61.0318C88.014 61.0632 88.1873 61.2862 88.0744 61.1262C87.9615 60.9662 88.119 61.1944 88.1453 61.2338C88.2425 61.3833 88.3081 61.5459 88.4 61.6981C88.4788 61.8266 88.3186 61.4699 88.3659 61.6141C88.3764 61.6482 88.3922 61.6823 88.4053 61.7164C88.4342 61.7978 88.4604 61.8765 88.4841 61.9578C88.5366 62.1362 88.5813 62.3198 88.6128 62.5034C88.618 62.5296 88.6259 62.6451 88.6364 62.6556C88.6312 62.6529 88.6128 62.4037 88.6207 62.5349C88.6259 62.6267 88.639 62.7185 88.6469 62.8077C88.6627 63.0097 88.6653 63.2117 88.6653 63.4137C88.6653 63.6157 88.6522 63.8045 88.6364 63.9987C88.6285 64.0984 88.618 64.198 88.6075 64.2951C88.6049 64.3266 88.5891 64.4761 88.6075 64.3108C88.6259 64.122 88.597 64.3738 88.5918 64.4131C88.5235 64.8407 88.4316 65.2631 88.3186 65.6775C88.2057 66.092 88.0665 66.5275 87.9116 66.942C87.88 67.0285 87.8459 67.1151 87.8118 67.199C87.7907 67.2541 87.6358 67.6135 87.7566 67.3407C87.6699 67.5348 87.5833 67.7289 87.4913 67.923C87.1289 68.6785 86.7061 69.4078 86.2097 70.0846C86.1677 70.1423 86.123 70.2 86.081 70.2577C86.0942 70.242 86.1887 70.1292 86.102 70.2289C86.0206 70.3207 85.9471 70.4204 85.8657 70.5122C85.6976 70.7063 85.5242 70.8952 85.343 71.0788C85.0095 71.4146 84.6549 71.7268 84.2846 72.0206C84.4685 71.8763 84.2584 72.0389 84.1875 72.0914C84.1008 72.1544 84.0141 72.2173 83.9248 72.2777C83.741 72.4036 83.5519 72.5269 83.3602 72.6423C83.0109 72.8548 82.6511 73.0489 82.286 73.2273C82.1206 73.3086 81.9525 73.382 81.7844 73.4581C81.5822 73.5499 81.9892 73.3768 81.787 73.4581C81.6846 73.4975 81.5822 73.5394 81.4797 73.5788C81.1777 73.6942 80.8731 73.7991 80.5632 73.8936C80.1167 74.03 79.6623 74.1428 79.2054 74.2346C78.5856 74.3579 78.1627 74.9717 77.7373 75.4046C77.3118 75.8374 76.8916 76.2414 76.4556 76.6454C75.9566 77.1071 75.4471 77.553 74.9245 77.9858C74.633 78.2272 74.3362 78.4607 74.0421 78.6941C73.916 78.7938 74.218 78.5603 74.0893 78.6574C74.0578 78.681 74.0237 78.7072 73.9922 78.7309C73.916 78.7886 73.8398 78.8463 73.7637 78.904C73.5956 79.0299 73.4275 79.1532 73.2594 79.2765C71.8202 80.3179 70.3048 81.257 68.7264 82.0729C68.2957 82.2958 67.8597 82.511 67.4185 82.7156C67.2163 82.81 67.0141 82.9018 66.8092 82.991C66.6832 83.0461 66.5545 83.1012 66.4284 83.1563C66.6438 83.0645 66.2787 83.2192 66.2262 83.2402C65.2676 83.6311 64.2932 83.9774 63.3031 84.279C62.7779 84.439 62.2447 84.5859 61.7116 84.7197C61.1128 84.8719 60.6926 85.5749 60.8869 86.173C61.0813 86.7711 61.6984 87.1594 62.3419 86.9967C68.2143 85.512 73.6061 82.469 78.055 78.382C78.8035 77.6947 79.5231 76.9785 80.2139 76.2335L79.6912 76.5378C81.2723 76.2414 82.8218 75.6721 84.2216 74.8799C86.341 73.6785 88.0586 71.8973 89.2142 69.7593C90.3041 67.7447 91.1183 65.368 91.0342 63.0517C90.9948 62.005 90.769 60.9032 90.1781 60.0192C89.5451 59.067 88.6101 58.4111 87.5123 58.0937C86.1966 57.7134 84.76 57.8235 83.4442 58.1436C81.8816 58.5239 80.3898 59.2532 79.0662 60.1608L80.4975 60.3445C76.8627 57.2307 72.855 54.555 68.54 52.4773C63.6708 50.1322 58.4734 48.5084 53.1288 47.6873C48.6221 46.9947 44.055 46.8111 39.5062 47.1364C36.1078 47.3804 32.7198 47.8867 29.3976 48.6448C28.8198 48.7759 28.2446 48.915 27.6695 49.0645C27.1731 49.193 26.8527 49.4554 26.6583 49.938C26.5428 50.224 26.4377 50.5152 26.3327 50.8063C26.1305 51.3677 25.9466 51.9343 25.7759 52.5062C25.0983 54.7911 24.6834 57.1572 24.5232 59.5339C24.2159 64.1325 24.9801 68.7651 26.8028 72.999C28.5598 77.0808 31.3936 80.6537 34.9758 83.2848C38.0434 85.5382 41.6782 86.9941 45.4075 87.7076C48.6273 88.3241 51.9286 88.4526 55.1931 88.1851C57.3624 88.0067 59.5291 87.6761 61.6485 87.1751C61.8797 87.12 62.1108 87.0623 62.3419 87.0046C62.9407 86.8551 63.3609 86.1494 63.1665 85.5513C62.9722 84.9532 62.355 84.565 61.7116 84.7276L61.7011 84.7171Z" fill="#2C2C30"/>
<path d="M58.5 66C59.8807 66 61 64.433 61 62.5C61 60.567 59.8807 59 58.5 59C57.1193 59 56 60.567 56 62.5C56 64.433 57.1193 66 58.5 66Z" fill="#2C2C30"/>
<path d="M38.5 66C39.8807 66 41 64.433 41 62.5C41 60.567 39.8807 59 38.5 59C37.1193 59 36 60.567 36 62.5C36 64.433 37.1193 66 38.5 66Z" fill="#2C2C30"/>
<path d="M42.0589 88.6566C42.8896 91.1176 43.723 93.5757 44.5536 96.0366C44.7709 96.675 45.409 97.1718 46.0774 96.9436C46.677 96.7385 47.1749 96.0309 46.9411 95.3434C46.1104 92.8824 45.277 90.4243 44.4464 87.9634C44.2291 87.325 43.591 86.8282 42.9226 87.0564C42.323 87.2615 41.8251 87.9691 42.0589 88.6566Z" fill="#2C2C30"/>
<path d="M77.2022 93.6822C77.466 90.5598 77.7298 87.4402 77.9961 84.3178C78.0547 83.6301 77.4489 82.9717 76.8969 83.0009C76.2521 83.0361 75.8613 83.5804 75.7978 84.3178C75.534 87.4402 75.2702 90.5598 75.0039 93.6822C74.9453 94.3699 75.5511 95.0283 76.1031 94.9991C76.7479 94.9639 77.1387 94.4196 77.2022 93.6822Z" fill="#2C2C30"/>
<path d="M24.2262 54.1539C24.961 53.9507 25.5943 53.9872 26 54.0471C25.9369 54.3389 25.8715 54.6308 25.8084 54.9226C25.4411 56.5667 25.2653 58.0024 25.1774 59.1228C25.0534 60.6913 25.0827 61.9055 25.1007 62.6507C25.1436 64.261 25.2788 65.4543 25.3193 65.8035C25.423 66.6738 25.547 67.419 25.6574 68C25.0895 67.9609 23.4915 67.7655 22.0784 66.3533C20.5435 64.8186 20.0702 62.6898 20.0094 61.3479C20.0094 61.3245 20.0071 61.2776 20.0049 61.2125C19.9868 60.6392 19.9508 58.4036 21.3076 56.4286C21.6479 55.9335 22.5832 54.6099 24.224 54.1539H24.2262Z" fill="white" stroke="#2C2C30" stroke-width="3" stroke-linecap="round" stroke-linejoin="round"/>
<path d="M17.4099 100.001C22.9976 98.8601 28.5823 97.7217 34.17 96.5804C36.1025 99.2124 38.1224 101.876 40.2298 104.566C43.7713 109.085 47.3069 113.344 50.7959 117.353C47.9103 117.915 45.0101 118.492 42.0953 119.077C39.437 119.613 36.7962 120.151 34.167 120.696C30.9345 116.92 27.6729 112.992 24.4025 108.916C21.992 105.914 19.663 102.939 17.4099 99.9955V100.001Z" fill="#C1F1C1"/>
<path d="M17.7596 101.265C23.3472 100.124 28.932 98.9852 34.5196 97.8439L33.0389 97.2412C37.2304 102.948 41.6055 108.52 46.1613 113.941C47.3855 115.4 48.6214 116.844 49.8718 118.279L50.4519 116.09C44.9021 117.173 39.3611 118.288 33.823 119.435L35.0997 119.773C30.6051 114.52 26.2212 109.175 21.954 103.737C20.7327 102.182 19.7212 100.878 18.5466 99.3404C18.1327 98.7988 17.3981 98.4553 16.7511 98.8716C16.2147 99.2181 15.8358 100.083 16.2818 100.665C20.5607 106.252 24.9504 111.755 29.4625 117.155C30.7158 118.655 31.975 120.145 33.2459 121.63C33.5577 121.994 34.0853 122.058 34.5225 121.968C40.0577 120.821 45.6017 119.706 51.1514 118.623C51.5916 118.538 51.953 118.122 52.0667 117.708C52.1978 117.234 52.0434 116.794 51.7286 116.433C49.5046 113.877 47.3185 111.286 45.1732 108.663C44.0772 107.321 42.9929 105.97 41.9203 104.61C40.8476 103.25 39.877 102.004 38.8277 100.627C37.6385 99.0696 36.4667 97.5033 35.3066 95.9253C34.9364 95.4216 34.4468 95.1974 33.8259 95.3226C28.2383 96.4639 22.6535 97.6023 17.0659 98.7435C16.3925 98.8804 15.9407 99.713 16.1506 100.356C16.3809 101.07 17.0425 101.419 17.7654 101.271L17.7596 101.265Z" fill="#2C2C30"/>
<path d="M20.3306 105.643C24.2802 103.809 29.2586 107.038 31.6196 110.139C32.4066 111.172 33.5201 112.855 33.4938 115.149C33.4705 116.966 32.5319 118.823 30.9113 119.647C29.6317 120.297 28.0752 120.244 26.7228 119.761C25.3703 119.278 24.1956 118.395 23.1347 117.429C21.3246 115.787 19.5903 113.798 18.4302 111.632C17.9026 110.645 17.5791 109.492 17.8385 108.403C18.06 107.475 18.6896 106.677 19.4737 106.135C19.7535 105.943 20.0391 105.78 20.3306 105.643Z" fill="white"/>
<path d="M20.9922 106.776C21.3041 106.636 20.8173 106.831 21.0184 106.764C21.1001 106.738 21.1817 106.703 21.2633 106.677C21.409 106.627 21.5606 106.584 21.7092 106.549C21.8579 106.514 22.0095 106.485 22.161 106.456C22.4117 106.412 22.1494 106.45 22.1173 106.462C22.2193 106.427 22.368 106.438 22.4758 106.432C22.7848 106.415 23.0938 106.424 23.4027 106.447C23.4902 106.456 23.5747 106.464 23.6622 106.473C23.3707 106.447 23.5572 106.459 23.6243 106.47C23.8137 106.505 24.0032 106.54 24.1927 106.584C24.522 106.662 24.8485 106.758 25.1662 106.869C25.3032 106.919 25.4373 106.971 25.5713 107.021C25.9095 107.149 25.3323 106.904 25.6588 107.058C25.7579 107.105 25.857 107.149 25.9561 107.198C26.5857 107.501 27.192 107.859 27.7662 108.258C27.9032 108.351 28.0373 108.45 28.1684 108.549C28.2209 108.59 28.4162 108.744 28.2092 108.578C28.2675 108.625 28.3229 108.668 28.3812 108.715C28.661 108.942 28.9321 109.178 29.1944 109.422C29.6666 109.865 30.1009 110.342 30.5148 110.84C30.716 111.082 30.4099 110.692 30.509 110.832C30.5469 110.884 30.5848 110.933 30.6227 110.983C30.6868 111.07 30.7509 111.158 30.8121 111.245C30.9841 111.49 31.1473 111.737 31.296 111.996C31.4563 112.27 31.5904 112.552 31.7274 112.835C31.8177 113.021 31.6225 112.541 31.7361 112.861C31.7594 112.928 31.7886 112.995 31.8119 113.062C31.8819 113.254 31.9402 113.446 31.9926 113.644C32.0364 113.81 32.0742 113.979 32.1063 114.151C32.1209 114.229 32.1325 114.305 32.1471 114.383C32.1005 114.084 32.1529 114.485 32.1559 114.517C32.1879 114.908 32.1792 115.295 32.1442 115.685C32.1704 115.394 32.1296 115.761 32.1063 115.868C32.0684 116.043 32.0247 116.218 31.9722 116.389C31.9518 116.459 31.9285 116.526 31.9052 116.593C31.9052 116.593 31.7799 116.925 31.8556 116.736C31.9314 116.547 31.7915 116.87 31.7886 116.873C31.742 116.969 31.6924 117.062 31.6399 117.155C31.5612 117.295 31.4767 117.429 31.3834 117.56C31.3426 117.618 31.1881 117.799 31.366 117.592C31.3193 117.644 31.2756 117.7 31.229 117.752C31.124 117.871 31.0103 117.982 30.8938 118.09C30.8296 118.148 30.7626 118.206 30.6926 118.261C30.9287 118.069 30.6518 118.279 30.6139 118.305C30.4769 118.392 30.3283 118.459 30.1913 118.544C30.0077 118.657 30.4565 118.462 30.1097 118.582C30.0339 118.608 29.9552 118.637 29.8794 118.66C29.6841 118.721 29.4859 118.762 29.2848 118.8C29.3402 118.791 29.5325 118.78 29.2702 118.8C29.1478 118.809 29.0254 118.818 28.903 118.82C28.696 118.826 28.492 118.809 28.2879 118.8C28.2413 118.8 28.0314 118.768 28.2675 118.8C28.1859 118.788 28.1043 118.774 28.0227 118.759C27.6175 118.681 27.224 118.561 26.8393 118.41C27.0579 118.497 26.813 118.395 26.7577 118.372C26.6644 118.328 26.574 118.285 26.4808 118.238C26.3175 118.154 26.1572 118.066 25.9969 117.973C25.6413 117.764 25.309 117.528 24.9767 117.286C24.7873 117.149 25.2041 117.475 24.9009 117.225C24.8368 117.173 24.7727 117.12 24.7086 117.068C24.5657 116.948 24.4258 116.829 24.2859 116.707C23.974 116.433 23.6709 116.148 23.3707 115.86C22.7761 115.283 22.2048 114.678 21.6655 114.046C21.5256 113.883 21.3915 113.717 21.2575 113.551C21.205 113.484 21.1496 113.417 21.0971 113.35C21.2341 113.522 20.9806 113.193 20.9514 113.158C20.6862 112.8 20.4326 112.433 20.1906 112.057C19.9487 111.682 19.7068 111.271 19.4969 110.861C19.459 110.785 19.4241 110.712 19.3862 110.636C19.255 110.372 19.4095 110.744 19.325 110.488C19.2521 110.27 19.1763 110.054 19.1238 109.83C19.1005 109.728 19.0801 109.626 19.0626 109.524C19.1122 109.792 19.0568 109.414 19.0568 109.382C19.0539 109.3 19.051 109.219 19.0539 109.137C19.0539 109.064 19.083 108.762 19.048 108.994C19.0801 108.767 19.1471 108.549 19.2258 108.334C19.2084 108.383 19.1122 108.561 19.2258 108.345C19.2783 108.249 19.3279 108.153 19.3862 108.057C19.4241 107.993 19.4678 107.935 19.5057 107.874C19.5931 107.754 19.5902 107.754 19.4998 107.874C19.5348 107.83 19.5698 107.789 19.6077 107.748C19.7447 107.597 19.8933 107.463 20.042 107.326C20.0857 107.288 20.2402 107.192 20.0362 107.326C20.1382 107.259 20.2344 107.189 20.3364 107.122C20.5433 106.991 20.7619 106.875 20.9835 106.77C21.6043 106.473 21.8171 105.539 21.4527 104.977C21.0418 104.339 20.3218 104.191 19.6572 104.508C17.8734 105.358 16.5326 106.994 16.4276 109.009C16.3227 111.024 17.4595 112.797 18.5671 114.319C19.6747 115.842 20.9601 117.257 22.3767 118.515C23.7933 119.772 25.4285 120.917 27.3144 121.281C29.3023 121.662 31.3689 121.269 32.8554 119.831C34.1321 118.593 34.8025 116.777 34.7937 115.015C34.7763 111.781 32.7272 108.91 30.3108 106.922C27.361 104.496 23.3707 102.825 19.6572 104.508C19.0306 104.793 18.8294 105.748 19.188 106.301C19.6048 106.948 20.3131 107.076 20.9835 106.77L20.9922 106.776Z" fill="#2C2C30"/>
<path d="M28.4001 97.3656C28.6404 96.9698 28.8922 96.5768 29.1526 96.1926C29.2813 96.0019 29.413 95.8112 29.5474 95.6234C29.6275 95.5107 29.7105 95.3981 29.7935 95.2854C29.8307 95.2363 30.0482 94.9503 29.9251 95.1092C30.6376 94.1904 31.4044 93.315 32.2284 92.4945C32.6204 92.1016 33.0267 91.7231 33.4416 91.3562C33.6476 91.1742 33.8593 90.9922 34.0711 90.8159C34.1683 90.735 34.2628 90.657 34.36 90.579C34.4087 90.5415 34.4573 90.501 34.5031 90.4634C34.5203 90.449 34.7091 90.3017 34.6118 90.3768C34.5088 90.4577 34.6662 90.3334 34.6719 90.3306C34.7349 90.2814 34.7978 90.2323 34.8636 90.1861C34.958 90.1139 35.0525 90.0445 35.1497 89.9752C35.35 89.8278 35.556 89.6834 35.7592 89.5389C36.1483 89.2702 36.5432 89.0102 36.9438 88.7589C37.7277 88.2706 38.5375 87.8199 39.3644 87.4067C39.9681 87.1034 40.1855 86.1904 39.825 85.627C39.4244 85.003 38.7091 84.8383 38.0625 85.1619C34.3085 87.0398 30.9094 89.7181 28.2942 93.029C27.5274 93.9969 26.8149 95.0023 26.1712 96.0597C25.8192 96.6404 26.0281 97.5158 26.6318 97.8394C27.2355 98.163 28.0167 97.9925 28.3944 97.3742L28.4001 97.3656Z" fill="#2C2C30"/>
<path d="M77.686 84.3071C84.5532 86.5198 90.377 91.7749 93.2772 98.3751C93.8077 99.5833 95.8364 106.839 91.8956 111.197C89.0245 114.37 84.5474 114.222 78.7849 114.033C70.0551 113.744 64.4995 110.446 60.5354 108.093C57.2766 106.16 55.484 104.492 55.0002 102.154C54.6475 100.457 55.0964 98.9311 55.5044 97.9558C55.3558 97.9238 54.082 97.6297 53.5253 96.4099C53.0385 95.3414 53.33 94.0662 54.1607 93.2801C55.0293 92.4591 56.2157 92.6017 56.9968 92.6862C58.1073 92.8084 58.9206 93.2743 59.3491 93.5625C60.413 93.6964 61.4914 93.8449 62.5786 94.0138C69.1952 95.0357 75.2871 96.57 80.8311 98.378" fill="white"/>
<path d="M77.3361 85.5707C77.683 85.6843 78.0298 85.8037 78.3738 85.9318C78.5108 85.9842 78.6477 86.0366 78.7847 86.089C78.8868 86.1297 78.9888 86.1705 79.0908 86.2113C79.152 86.2346 79.4551 86.3656 79.1812 86.2491C79.8195 86.5257 80.4462 86.8227 81.0612 87.1487C82.3233 87.8184 83.5242 88.5928 84.661 89.4575C84.4482 89.2973 84.6464 89.4458 84.6988 89.4895C84.7717 89.5448 84.8417 89.6031 84.9146 89.6613C85.0428 89.7632 85.1711 89.868 85.2964 89.9757C85.5908 90.2232 85.8793 90.4765 86.165 90.7356C86.678 91.2043 87.1735 91.6934 87.6486 92.2029C88.15 92.7386 88.6192 93.2976 89.0769 93.8683C89.1089 93.909 89.2284 94.0662 89.074 93.8624C89.1177 93.9207 89.1614 93.9789 89.208 94.0371C89.3188 94.1827 89.4266 94.3312 89.5345 94.4797C89.7473 94.7766 89.9571 95.0765 90.1553 95.3822C90.5576 95.9936 90.9336 96.6225 91.2804 97.2659C91.4378 97.557 91.5865 97.8482 91.7322 98.1451C91.878 98.4421 91.9858 98.7798 92.1578 99.0622C91.8896 98.6197 92.0791 98.873 92.1403 99.0506C92.1899 99.1903 92.2365 99.333 92.2773 99.4756C92.3822 99.8192 92.4726 100.166 92.5513 100.518C92.6562 100.984 92.7437 101.452 92.8136 101.924C92.8224 101.977 92.8253 102.029 92.8369 102.078C92.767 101.732 92.8107 101.88 92.8224 101.968C92.8399 102.102 92.8544 102.239 92.869 102.372C92.8982 102.652 92.9215 102.934 92.936 103.217C92.9681 103.796 92.971 104.381 92.939 104.961C92.9215 105.255 92.8952 105.546 92.8632 105.837C92.8369 106.079 92.8748 105.799 92.8748 105.767C92.8748 105.855 92.8457 105.959 92.8311 106.047C92.8049 106.201 92.7757 106.358 92.7466 106.51C92.6183 107.127 92.3997 107.697 92.2161 108.294C92.1578 108.484 92.3502 108.006 92.2161 108.294C92.1899 108.353 92.1636 108.414 92.1345 108.472C92.0645 108.62 91.9917 108.763 91.9159 108.909C91.7585 109.2 91.5865 109.479 91.397 109.75C91.3504 109.82 91.2979 109.884 91.2513 109.954C91.1347 110.12 91.4524 109.718 91.2396 109.968C91.1405 110.085 91.0443 110.201 90.9423 110.315C90.7354 110.542 90.5139 110.757 90.2807 110.958C90.2224 111.008 90.1641 111.054 90.1087 111.104C89.928 111.255 90.1466 111.083 90.1612 111.066C90.0883 111.162 89.8959 111.258 89.7968 111.322C89.5491 111.485 89.2955 111.634 89.0302 111.768C88.8991 111.835 88.7621 111.896 88.628 111.96C88.526 112.006 88.5143 112.07 88.695 111.934C88.6426 111.974 88.5493 111.992 88.4852 112.015C88.1995 112.123 87.9109 112.216 87.6166 112.3C87.3222 112.385 87.0394 112.449 86.7479 112.507C86.6051 112.536 86.4652 112.562 86.3224 112.586C86.2408 112.6 86.1621 112.612 86.0805 112.624C86.0309 112.632 85.9843 112.638 85.9347 112.644C85.8356 112.658 85.8706 112.653 86.0367 112.629C85.9347 112.589 85.6403 112.676 85.5354 112.688C85.3984 112.702 85.2643 112.714 85.1273 112.725C84.7601 112.755 84.3899 112.775 84.0197 112.789C83.291 112.819 82.5623 112.822 81.8336 112.813C80.2042 112.792 78.5632 112.763 76.9368 112.624C76.5578 112.592 76.176 112.554 75.7971 112.507C75.6747 112.493 75.5493 112.478 75.4269 112.461C75.4823 112.466 75.6717 112.495 75.4094 112.461C75.1879 112.428 74.9693 112.396 74.7478 112.362C73.9987 112.239 73.2554 112.094 72.5179 111.919C71.1713 111.602 69.8451 111.197 68.548 110.711C68.2711 110.606 67.9942 110.498 67.7202 110.388C67.6532 110.361 67.1547 110.172 67.4987 110.297C67.3354 110.239 67.178 110.158 67.0206 110.088C66.4756 109.846 65.9393 109.593 65.4059 109.325C63.3101 108.274 61.1969 107.101 59.2848 105.744C59.1449 105.645 59.0079 105.54 58.8709 105.441C58.6931 105.313 59.1041 105.63 58.8301 105.412C58.7747 105.368 58.7164 105.322 58.661 105.278C58.3958 105.063 58.1393 104.838 57.8944 104.603C57.6671 104.384 57.4514 104.154 57.2503 103.913C57.2182 103.872 57.1541 103.817 57.1366 103.773C57.2328 103.985 57.2386 103.91 57.1803 103.825C57.0812 103.683 56.9792 103.54 56.8859 103.391C56.7518 103.173 56.6382 102.946 56.5245 102.716C56.3991 102.46 56.5915 102.934 56.542 102.757C56.5245 102.69 56.4924 102.626 56.4691 102.559C56.4225 102.425 56.3817 102.291 56.3438 102.154C56.303 102 56.268 101.843 56.2388 101.682C56.1864 101.415 56.2184 101.56 56.2243 101.624C56.2068 101.493 56.198 101.359 56.1922 101.225C56.1835 101.054 56.1835 100.882 56.1893 100.71C56.1922 100.585 56.2009 100.46 56.2126 100.337C56.2184 100.276 56.2738 99.924 56.2243 100.206C56.335 99.5572 56.5187 98.9312 56.7722 98.3198C57.0258 97.7084 56.4837 96.8466 55.857 96.7069C55.7987 96.6952 55.7404 96.6778 55.685 96.6632C55.6326 96.6487 55.5801 96.6283 55.5276 96.6108C55.5014 96.6021 55.4752 96.5875 55.4489 96.5817C55.3178 96.5438 55.72 96.7156 55.5888 96.6399C55.4489 96.5613 55.3032 96.4973 55.1662 96.4099C55.1312 96.3866 55.0992 96.3604 55.0642 96.34C54.9388 96.2673 55.1749 96.4099 55.1604 96.4157C55.1196 96.4274 54.9301 96.1974 54.898 96.1654C54.8776 96.145 54.764 96.0256 54.8776 96.1508C54.9913 96.276 54.8601 96.1246 54.8368 96.0838C54.7785 95.9965 54.7348 95.9033 54.6853 95.8102C54.6124 95.6821 54.7086 95.8538 54.7115 95.8713C54.694 95.8014 54.6648 95.7345 54.6474 95.6646C54.6328 95.6122 54.627 95.5569 54.6124 95.5074C54.557 95.3385 54.6124 95.7141 54.6124 95.5394C54.6124 95.4171 54.6066 95.2919 54.6066 95.1697C54.6095 94.9193 54.5541 95.3443 54.6153 95.0998C54.6415 94.9979 54.6678 94.896 54.6969 94.7941C54.761 94.567 54.7057 94.765 54.6794 94.8116C54.7115 94.7475 54.7406 94.6835 54.7756 94.6223C54.8048 94.5728 54.9971 94.2846 54.9068 94.401C54.8164 94.5175 55.0146 94.2904 55.0496 94.2555C55.0904 94.2147 55.1312 94.1769 55.1749 94.139C55.1283 94.1798 54.9826 94.2555 55.1837 94.1448C55.2303 94.1186 55.2857 94.0954 55.3265 94.0633C55.4635 93.9643 55.1458 94.1128 55.3061 94.0662C55.4227 94.0342 55.5393 93.9964 55.6559 93.9673C55.9036 93.9032 55.4577 93.9702 55.7113 93.9556C55.9386 93.941 56.166 93.9381 56.3933 93.9527C56.5828 93.9643 56.7693 93.9818 56.9588 94.0051C57.0696 94.0196 56.9209 93.9993 56.9092 93.9993C56.9938 94.0138 57.0754 94.0284 57.157 94.0459C57.294 94.075 57.4281 94.1099 57.5621 94.1507C57.6875 94.1885 57.807 94.238 57.9323 94.2788C57.7254 94.2118 57.8857 94.2584 57.9935 94.3079C58.1743 94.3952 58.3491 94.4913 58.5153 94.5961C58.8476 94.8028 59.1711 94.864 59.5559 94.9135C59.7191 94.9338 59.8823 94.9542 60.0426 94.9775C60.0397 94.9775 60.2671 95.0066 60.1476 94.9921C60.0543 94.9804 60.2991 95.0124 60.3225 95.0154C60.9579 95.1027 61.5933 95.1959 62.2258 95.2919C63.4675 95.4841 64.7063 95.6966 65.9422 95.9295C68.3206 96.3779 70.6845 96.899 73.0309 97.4959C75.5377 98.1335 78.0211 98.8555 80.4782 99.6561C81.1311 99.8687 81.9385 99.4087 82.093 98.742C82.2563 98.0228 81.8744 97.359 81.1778 97.129C75.7796 95.3705 70.2561 93.9964 64.6597 93.0443C62.8933 92.7445 61.1211 92.4883 59.346 92.2641L60.0077 92.4417C59.1186 91.8477 58.113 91.5217 57.0579 91.3936C56.0027 91.2655 54.9563 91.2975 53.9974 91.7983C51.7238 92.9861 51.3595 96.2469 53.0675 98.0461C53.6068 98.6139 54.385 99.0593 55.1516 99.2282L54.2364 97.6152C53.5776 99.2107 53.3678 100.99 53.7671 102.675C54.0819 104.006 54.8252 105.191 55.7608 106.172C56.8597 107.325 58.2209 108.236 59.5763 109.057C60.509 109.622 61.4505 110.172 62.4036 110.702C64.7238 111.986 67.1606 113.084 69.6964 113.867C72.891 114.854 76.1964 115.267 79.5309 115.375C82.4982 115.468 85.6432 115.628 88.5201 114.758C91.2251 113.939 93.4257 112.05 94.545 109.441C95.6351 106.903 95.7401 104.128 95.3612 101.423C95.2387 100.547 95.0638 99.6765 94.8103 98.8264C94.5188 97.854 94.0612 96.934 93.586 96.0431C90.6654 90.5667 85.7977 86.2171 80.0847 83.8181C79.4085 83.5357 78.7235 83.2795 78.0269 83.0524C77.374 82.8398 76.5666 83.2999 76.4121 83.9666C76.2489 84.6857 76.6278 85.3524 77.3273 85.5795L77.3361 85.5707Z" fill="#2C2C30"/>
<path d="M58.3915 97.5566C57.8768 97.4068 57.3594 97.2553 56.8448 97.1055C56.7032 97.0487 56.5534 97.0177 56.39 97.0143C56.2267 96.9919 56.0633 96.9953 55.9026 97.0281C55.742 97.0522 55.6031 97.0986 55.486 97.1675C55.3526 97.2226 55.2464 97.2949 55.1701 97.3845C55.0204 97.5635 54.9441 97.7822 55.0476 97.9819L55.1701 98.1662C55.2791 98.2832 55.4261 98.3745 55.6085 98.4434C56.1232 98.5932 56.6406 98.7447 57.1552 98.8945C57.2968 98.9513 57.4466 98.9823 57.61 98.9857C57.7733 99.0081 57.9367 99.0047 58.0974 98.9719C58.258 98.9478 58.3969 98.9014 58.514 98.8325C58.6474 98.7774 58.7536 98.7051 58.8299 98.6155C58.9796 98.4365 59.0559 98.2178 58.9524 98.0181L58.8299 97.8338C58.7209 97.7168 58.5739 97.6255 58.3915 97.5566Z" fill="#2C2C30"/>
</svg>
