<svg width="16" height="16" viewBox="0 0 16 16" fill="none" xmlns="http://www.w3.org/2000/svg">
<circle cx="8" cy="8" r="7.25" stroke="#696972" stroke-width="1.5"/>
<path d="M8.61991 7.36587L8.61979 5.10472C8.60984 4.94798 8.54058 4.80096 8.42607 4.69355C8.31157 4.58614 8.16042 4.5264 8.00335 4.52647C7.84628 4.52654 7.69508 4.58642 7.58048 4.69394C7.46588 4.80146 7.39648 4.94854 7.38638 5.1053L7.38417 7.36644L5.11749 7.3672C5.03631 7.36724 4.95592 7.38327 4.88091 7.41437C4.8059 7.44547 4.73773 7.49103 4.6803 7.54846C4.62287 7.60589 4.57731 7.67405 4.54621 7.74907C4.51511 7.82408 4.49908 7.90447 4.49904 7.98565C4.49901 8.06682 4.51496 8.1472 4.54599 8.22218C4.57702 8.29717 4.62252 8.36529 4.6799 8.42267C4.73727 8.48004 4.80539 8.52554 4.88038 8.55657C4.95536 8.58761 5.03574 8.60356 5.11692 8.60352L7.3836 8.60218L7.38342 10.863C7.37868 10.947 7.39112 11.031 7.41996 11.1099C7.44881 11.1888 7.49346 11.261 7.55119 11.3221C7.60891 11.3831 7.6785 11.4318 7.75569 11.465C7.83288 11.4982 7.91605 11.5153 8.00011 11.5153C8.08418 11.5152 8.16736 11.498 8.24459 11.4648C8.32181 11.4315 8.39144 11.3828 8.44922 11.3217C8.50701 11.2606 8.55172 11.1883 8.58064 11.1094C8.60956 11.0304 8.62207 10.9464 8.61741 10.8625L8.61933 8.60161L10.879 8.60085C11.043 8.60077 11.2002 8.53557 11.3162 8.41959C11.4322 8.30361 11.4974 8.14635 11.4975 7.9824C11.4975 7.81846 11.4325 7.66126 11.3166 7.54538C11.2007 7.42951 11.0435 7.36445 10.8796 7.36453L8.61991 7.36587Z" fill="#696972"/>
</svg>
