<svg width="95" height="102" viewBox="0 0 95 102" fill="none" xmlns="http://www.w3.org/2000/svg">
<path d="M26.994 70.4564C24.6849 70.4834 13.1667 70.3955 5.68368 61.9422C-3.13676 51.9812 0.580716 38.2297 1.98449 33.0374C6.2461 17.3004 18.8366 9.25948 22.0671 7.26729C25.0553 5.42158 40.179 -3.4509 59.0979 1.46649C60.5588 1.84735 81.9309 7.76534 89.8963 27.6828C93.9322 37.7747 95.3611 46.7777 93.9322 56.7396C92.9382 63.6696 91.323 64.969 86.5394 68.8672C80.4512 71.8991 77.4071 71.8991 72.1886 71.8991C65.6656 71.8991 63.7116 71.1234 61.263 70.9544" fill="#2C2C30"/>
<path d="M69.3861 96.5781C64.7899 95.7763 58.773 95.179 51.7715 95.6621C44.0439 96.1951 37.6419 97.8726 32.958 99.4882C32.4974 97.5513 32.1002 95.2932 31.9028 92.7615C31.5982 88.8687 31.8565 85.4732 32.261 82.7797C33.7939 79.4461 36.9863 77.2784 40.4688 77.2189C44.8578 77.1427 47.5409 80.4502 47.8553 80.8523C48.3525 80.2241 51.4937 76.3813 56.8624 76.0958C63.4398 75.746 67.3756 81.0498 67.6583 81.4448C67.9897 83.9099 68.3041 86.4226 68.5989 88.9829C68.8938 91.5575 69.157 94.0916 69.3909 96.5805L69.3861 96.5781Z" fill="#2C2C30"/>
<path d="M51.8462 71.7784C49.7757 72.2981 35.5148 75.8795 26.7672 66.0674C21.2055 59.828 19.9144 50.4655 23.2299 42.0044C28.5764 40.6161 41.9635 37.9668 55.8995 44.3006C60.3457 46.3227 63.8807 48.8185 66.5902 51.141C69.3348 49.2395 72.4307 48.79 73.9985 50.0817C76.1722 51.8713 74.813 56.5185 72.9226 59.0889C70.7203 62.0847 67.3719 62.8413 66.3509 63.0322C64.2079 65.3415 59.3774 69.8857 51.8462 71.7784Z" fill="white"/>
<path d="M51.5843 70.8265C50.9783 70.9778 50.3701 71.1182 49.7553 71.2388C49.2744 71.3331 48.7914 71.4165 48.3083 71.491C48.1766 71.5108 48.0427 71.5305 47.9109 71.5503C47.8429 71.559 47.7748 71.57 47.7045 71.5788C47.5772 71.5963 47.9856 71.5437 47.8055 71.5656C47.7594 71.5722 47.7111 71.5788 47.665 71.5831C47.3708 71.6204 47.0766 71.6533 46.7823 71.684C45.3771 71.8266 43.9653 71.8836 42.5535 71.8419C41.7784 71.82 41.0033 71.7674 40.2326 71.6818C40.0438 71.6599 39.8418 71.6117 39.653 71.6117C39.9428 71.6117 39.6442 71.6117 39.5586 71.5963C39.44 71.5788 39.3192 71.5612 39.2007 71.5415C38.7945 71.4757 38.3905 71.4011 37.9865 71.3156C37.1477 71.1379 36.3199 70.9142 35.5053 70.6445C35.1057 70.5107 34.7083 70.366 34.3175 70.2103C34.267 70.1905 33.8981 70.0458 34.1594 70.1466C34.0716 70.1116 33.9837 70.0721 33.8981 70.0326C33.6785 69.9361 33.4612 69.8352 33.246 69.73C32.427 69.333 31.6365 68.8812 30.8834 68.3746C30.6946 68.2474 30.508 68.118 30.3257 67.9842C30.2335 67.9162 30.1413 67.8482 30.0491 67.7803C30.0052 67.7474 29.8646 67.6377 30.0359 67.7715C29.9744 67.7232 29.9151 67.6772 29.8536 67.6289C29.4738 67.3263 29.1071 67.0105 28.7514 66.6815C27.9961 65.9797 27.3023 65.2165 26.6633 64.4072C26.5513 64.2581 26.6392 64.3765 26.6633 64.4072C26.6304 64.3634 26.5953 64.3195 26.5623 64.2734C26.4789 64.1616 26.3955 64.0497 26.3142 63.9379C26.1671 63.7339 26.0266 63.5278 25.8882 63.3194C25.5962 62.8808 25.3218 62.429 25.0649 61.9685C24.808 61.5079 24.5686 61.0364 24.3469 60.5583C24.3008 60.4574 24.2547 60.3565 24.2086 60.2556C24.1866 60.2052 24.1646 60.1547 24.1405 60.1021C24.1405 60.1021 24.0351 59.8521 24.0922 59.9903C24.1493 60.1284 24.0461 59.874 24.0461 59.8762C24.0241 59.8236 24.0044 59.7731 23.9846 59.7205C23.9341 59.5911 23.8836 59.4617 23.8331 59.3301C23.4642 58.3476 23.1656 57.3388 22.9394 56.3146C22.8253 55.8058 22.7309 55.2904 22.6518 54.775C22.6408 54.7048 22.6299 54.6346 22.6211 54.5644C22.6145 54.5118 22.5881 54.3188 22.6167 54.5315C22.6035 54.4197 22.5881 54.3057 22.575 54.1938C22.542 53.9109 22.5157 53.628 22.4915 53.3429C22.4081 52.2814 22.3949 51.2155 22.4498 50.1541C22.4784 49.6014 22.5245 49.0487 22.5903 48.5004C22.6035 48.3842 22.6189 48.268 22.6342 48.1517C22.6079 48.3557 22.6342 48.1605 22.6408 48.1079C22.6518 48.0355 22.6628 47.9631 22.6738 47.8907C22.7133 47.6276 22.7572 47.3666 22.8055 47.1056C23.0075 46.0047 23.282 44.9169 23.6245 43.851C23.7958 43.3159 23.9846 42.7895 24.1888 42.2654L23.4993 42.954C25.3591 42.4715 27.2408 42.0855 29.1401 41.8004C29.2806 41.7785 29.4233 41.7587 29.5638 41.739C29.6297 41.7302 29.6956 41.7193 29.7614 41.7105C29.7944 41.7061 29.8273 41.7017 29.8624 41.6973C29.9898 41.6798 29.6473 41.7258 29.8339 41.7017C30.1435 41.6622 30.4531 41.6228 30.7627 41.5877C31.4148 41.5131 32.0691 41.4495 32.7234 41.3991C34.1506 41.2894 35.5822 41.2346 37.0138 41.2434C38.599 41.2521 40.1865 41.3355 41.763 41.4956C42.1736 41.5372 42.5842 41.5855 42.9926 41.6381C43.0387 41.6447 43.0848 41.6491 43.1309 41.6557C43.1134 41.6535 42.9816 41.6359 43.098 41.6513C43.2056 41.6666 43.3132 41.682 43.4208 41.6973C43.6381 41.728 43.8555 41.7609 44.0707 41.796C44.9248 41.932 45.7745 42.0899 46.6199 42.2719C48.3962 42.6557 50.1505 43.147 51.8675 43.7435C52.3155 43.8992 52.7612 44.0615 53.2025 44.2326C53.4177 44.3159 53.6329 44.3993 53.848 44.487C53.9644 44.5331 54.0808 44.5813 54.195 44.6296C54.2455 44.6493 54.2938 44.6712 54.3443 44.691C54.364 44.6997 54.498 44.7546 54.4057 44.7173C55.2774 45.0879 56.1359 45.4871 56.9813 45.9125C58.5424 46.6977 60.0552 47.5749 61.5132 48.5399C62.1763 48.9763 62.8262 49.4325 63.4629 49.904C63.61 50.0137 63.7572 50.1234 63.9043 50.233C63.9701 50.2835 64.0382 50.3339 64.1041 50.3843C64.1348 50.4085 64.2512 50.4984 64.1019 50.3843C64.1458 50.4172 64.1897 50.4523 64.2314 50.4852C64.5191 50.7089 64.8023 50.937 65.0855 51.1673C65.3688 51.3976 65.6257 51.6147 65.8914 51.8428C66.2075 52.1125 66.7125 52.2551 67.088 51.9963C67.4635 51.7375 67.8806 51.4809 68.2978 51.2616C68.491 51.1607 68.6886 51.0642 68.8885 50.9743C68.9302 50.9545 68.9719 50.937 69.0158 50.9173C68.8599 50.9874 69.0026 50.9238 69.0312 50.9107C69.1432 50.8668 69.2529 50.823 69.3671 50.7835C69.7558 50.6431 70.1554 50.5291 70.5594 50.4457C70.6516 50.426 70.746 50.4085 70.8404 50.3931C70.8799 50.3865 70.9195 50.3821 70.959 50.3734C71.1061 50.3471 70.7855 50.3887 70.9304 50.3778C71.1215 50.3624 71.3103 50.3427 71.5035 50.3383C71.6748 50.3339 71.8438 50.3383 72.0151 50.3514C72.0656 50.3558 72.182 50.3449 72.2259 50.3712C72.1381 50.3163 72.0524 50.3427 72.1688 50.3646C72.2127 50.3734 72.2588 50.3799 72.3027 50.3887C72.4542 50.4194 72.6036 50.4567 72.7507 50.505C72.7924 50.5181 72.8319 50.5335 72.8736 50.5466C72.9658 50.5773 72.8956 50.5883 72.8736 50.5444L72.8143 50.5181C72.8429 50.5313 72.8714 50.5444 72.9 50.5576C72.9461 50.5817 72.9944 50.6037 73.0405 50.6278C73.1591 50.6914 73.2666 50.7681 73.3786 50.8405C73.4862 50.9085 73.2359 50.7089 73.3215 50.7988C73.3413 50.8208 73.3676 50.8383 73.3896 50.8581C73.4489 50.9107 73.5038 50.9655 73.5587 51.0247C73.5828 51.051 73.7277 51.2375 73.6333 51.1037C73.5389 50.9699 73.6707 51.1607 73.6926 51.1936C73.7738 51.3186 73.8287 51.4546 73.9056 51.5818C73.9715 51.6892 73.8375 51.391 73.877 51.5116C73.8858 51.5401 73.899 51.5686 73.91 51.5971C73.9341 51.6651 73.9561 51.7309 73.9759 51.7989C74.0198 51.948 74.0571 52.1016 74.0834 52.2551C74.0878 52.277 74.0944 52.3735 74.1032 52.3823C74.0988 52.3801 74.0834 52.1717 74.09 52.2814C74.0944 52.3582 74.1054 52.4349 74.112 52.5095C74.1252 52.6784 74.1274 52.8472 74.1274 53.0161C74.1274 53.185 74.1164 53.3429 74.1032 53.5052C74.0966 53.5885 74.0878 53.6718 74.079 53.753C74.0769 53.7793 74.0637 53.9043 74.079 53.7661C74.0944 53.6082 74.0703 53.8188 74.0659 53.8517C74.0088 54.2092 73.9319 54.5623 73.8375 54.9088C73.7431 55.2553 73.6267 55.6193 73.4972 55.9659C73.4708 56.0382 73.4423 56.1106 73.4138 56.1808C73.3962 56.2268 73.2666 56.5273 73.3676 56.2992C73.2952 56.4615 73.2227 56.6238 73.1459 56.7861C72.8429 57.4177 72.4894 58.0274 72.0744 58.5932C72.0393 58.6415 72.0019 58.6897 71.9668 58.738C71.9778 58.7248 72.0568 58.6305 71.9844 58.7139C71.9163 58.7906 71.8548 58.8739 71.7868 58.9507C71.6462 59.113 71.5013 59.2709 71.3498 59.4244C71.071 59.7051 70.7746 59.9661 70.465 60.2118C70.6187 60.0911 70.443 60.2271 70.3837 60.271C70.3113 60.3236 70.2388 60.3762 70.1641 60.4267C70.0104 60.532 69.8524 60.635 69.6921 60.7315C69.4001 60.9092 69.0992 61.0715 68.794 61.2206C68.6557 61.2886 68.5152 61.35 68.3747 61.4136C68.2056 61.4904 68.5459 61.3456 68.3769 61.4136C68.2912 61.4465 68.2056 61.4816 68.12 61.5145C67.8675 61.611 67.6128 61.6987 67.3537 61.7777C66.9804 61.8917 66.6006 61.986 66.2185 62.0628C65.7003 62.1658 65.3468 62.679 64.9911 63.0409C64.6354 63.4028 64.2841 63.7405 63.9196 64.0783C63.5025 64.4642 63.0765 64.8371 62.6395 65.1989C62.3958 65.4007 62.1477 65.5959 61.9018 65.7911C61.7964 65.8744 62.0489 65.6792 61.9413 65.7604C61.915 65.7801 61.8864 65.8021 61.8601 65.8218C61.7964 65.87 61.7327 65.9183 61.6691 65.9665C61.5285 66.0718 61.388 66.1749 61.2475 66.278C60.0443 67.1486 58.7774 67.9338 57.4577 68.6158C57.0977 68.8023 56.7332 68.9821 56.3643 69.1532C56.1952 69.2321 56.0262 69.3089 55.8549 69.3834C55.7495 69.4295 55.6419 69.4755 55.5365 69.5216C55.7166 69.4448 55.4114 69.5742 55.3675 69.5918C54.566 69.9186 53.7514 70.2081 52.9237 70.4603C52.4845 70.594 52.0388 70.7169 51.5931 70.8287C51.0925 70.9559 50.7412 71.5437 50.9036 72.0437C51.0661 72.5437 51.5821 72.8683 52.12 72.7324C57.0296 71.491 61.5373 68.947 65.2568 65.5301C65.8826 64.9555 66.4842 64.3568 67.0617 63.7339L66.6247 63.9883C67.9465 63.7405 69.242 63.2646 70.4123 62.6023C72.1842 61.5978 73.6202 60.1087 74.5863 58.3213C75.4975 56.637 76.1781 54.65 76.1079 52.7134C76.0749 51.8384 75.8861 50.9173 75.3921 50.1782C74.8629 49.3821 74.0812 48.8338 73.1634 48.5684C72.0634 48.2504 70.8624 48.3425 69.7623 48.6101C68.4559 48.9281 67.2088 49.5378 66.1021 50.2966L67.2988 50.4501C64.26 47.8469 60.9094 45.6099 57.3019 43.8729C53.2311 41.9123 48.8858 40.5547 44.4176 39.8683C40.6498 39.2893 36.8315 39.1358 33.0286 39.4077C30.1874 39.6117 27.355 40.0349 24.5774 40.6688C24.0944 40.7784 23.6135 40.8947 23.1327 41.0197C22.7177 41.1271 22.4498 41.3464 22.2873 41.75C22.1907 41.989 22.1029 42.2325 22.0151 42.4759C21.846 42.9452 21.6923 43.4189 21.5496 43.8971C20.9831 45.8073 20.6362 47.7855 20.5022 49.7725C20.2453 53.617 20.8843 57.4901 22.4081 61.0298C23.877 64.4423 26.2461 67.4294 29.2411 69.6291C31.8056 71.513 34.8444 72.7302 37.9623 73.3267C40.6542 73.8421 43.4142 73.9495 46.1434 73.7258C47.957 73.5767 49.7685 73.3004 51.5404 72.8815C51.7336 72.8354 51.9268 72.7872 52.12 72.7389C52.6207 72.6139 52.972 72.024 52.8095 71.5239C52.647 71.0239 52.131 70.6993 51.5931 70.8353L51.5843 70.8265Z" fill="#2C2C30"/>
<path d="M48.9081 55.1783C50.0624 55.1783 50.9982 53.8682 50.9982 52.2522C50.9982 50.6361 50.0624 49.326 48.9081 49.326C47.7538 49.326 46.818 50.6361 46.818 52.2522C46.818 53.8682 47.7538 55.1783 48.9081 55.1783Z" fill="#2C2C30"/>
<path d="M32.1874 55.1783C33.3417 55.1783 34.2775 53.8682 34.2775 52.2522C34.2775 50.6361 33.3417 49.326 32.1874 49.326C31.0331 49.326 30.0973 50.6361 30.0973 52.2522C30.0973 53.8682 31.0331 55.1783 32.1874 55.1783Z" fill="#2C2C30"/>
<path d="M35.1628 74.1201C35.8572 76.1775 36.554 78.2326 37.2485 80.2901C37.4301 80.8237 37.9636 81.2391 38.5224 81.0483C39.0237 80.8769 39.4399 80.2852 39.2445 79.7105C38.55 77.653 37.8532 75.598 37.1588 73.5405C36.9771 73.0068 36.4436 72.5915 35.8848 72.7822C35.3835 72.9537 34.9673 73.5453 35.1628 74.1201Z" fill="#2C2C30"/>
<path d="M64.5438 78.3217C64.7643 75.7112 64.9849 73.1032 65.2074 70.4927C65.2565 69.9178 64.75 69.3673 64.2885 69.3918C63.7494 69.4211 63.4227 69.8762 63.3696 70.4927C63.1491 73.1032 62.9285 75.7112 62.7059 78.3217C62.6569 78.8966 63.1634 79.4471 63.6249 79.4226C64.164 79.3933 64.4907 78.9382 64.5438 78.3217Z" fill="#2C2C30"/>
<path d="M20.254 45.2746C20.8683 45.1047 21.3977 45.1352 21.7369 45.1853C21.6842 45.4292 21.6295 45.6732 21.5768 45.9172C21.2696 47.2917 21.1226 48.492 21.0492 49.4287C20.9455 50.7401 20.97 51.7552 20.9851 52.3782C21.0209 53.7244 21.1339 54.7221 21.1679 55.014C21.2545 55.7416 21.3582 56.3646 21.4505 56.8504C20.9757 56.8177 19.6397 56.6543 18.4583 55.4737C17.1751 54.1906 16.7794 52.4109 16.7285 51.289C16.7285 51.2694 16.7266 51.2302 16.7248 51.1757C16.7097 50.6965 16.6795 48.8275 17.8139 47.1763C18.0984 46.7624 18.8804 45.6558 20.2521 45.2746H20.254Z" fill="white" stroke="#2C2C30" stroke-width="3" stroke-linecap="round" stroke-linejoin="round"/>
<path d="M14.5553 83.6047C19.2268 82.6506 23.8958 81.6989 28.5673 80.7448C30.1829 82.9451 31.8717 85.1723 33.6335 87.4213C36.5943 91.199 39.5503 94.76 42.4672 98.1116C40.0547 98.5814 37.63 99.0633 35.1931 99.5526C32.9707 100 30.7629 100.451 28.5649 100.906C25.8624 97.749 23.1355 94.4654 20.4013 91.0578C18.3861 88.5483 16.439 86.0607 14.5553 83.5999V83.6047Z" fill="#C1F1C1"/>
<path d="M14.8476 84.661C19.5191 83.7069 24.1881 82.7552 28.8596 81.801L27.6217 81.2972C31.1259 86.0679 34.7836 90.7267 38.5925 95.2588C39.6159 96.4783 40.6492 97.6856 41.6946 98.8856L42.1795 97.0552C37.5397 97.9606 32.9072 98.8929 28.2772 99.8519L29.3445 100.134C25.5869 95.7432 21.9218 91.2743 18.3543 86.7275C17.3332 85.4277 16.4876 84.3373 15.5056 83.0521C15.1595 82.5994 14.5454 82.3122 14.0045 82.6602C13.5561 82.9499 13.2393 83.6728 13.6121 84.1596C17.1894 88.8305 20.8594 93.4309 24.6316 97.946C25.6795 99.1995 26.7322 100.446 27.7947 101.687C28.0554 101.991 28.4965 102.045 28.862 101.969C33.4897 101.01 38.1246 100.078 42.7644 99.1728C43.1324 99.1022 43.4345 98.7541 43.5296 98.4085C43.6392 98.0117 43.5101 97.6442 43.2469 97.3424C41.3876 95.2053 39.5599 93.039 37.7664 90.8459C36.8501 89.7238 35.9436 88.5944 35.0468 87.4577C34.1501 86.321 33.3386 85.2793 32.4613 84.128C31.4671 82.8258 30.4874 81.5162 29.5176 80.197C29.2081 79.7759 28.7987 79.5885 28.2796 79.6931C23.6082 80.6473 18.9391 81.599 14.2676 82.5531C13.7047 82.6675 13.327 83.3637 13.5025 83.9016C13.695 84.4979 14.2481 84.79 14.8525 84.6659L14.8476 84.661Z" fill="#2C2C30"/>
<path d="M16.9971 88.3217C20.2991 86.7882 24.4613 89.4875 26.4351 92.0798C27.0931 92.9439 28.024 94.3508 28.002 96.2688C27.9825 97.7876 27.1979 99.3405 25.843 100.029C24.7732 100.572 23.4719 100.528 22.3412 100.124C21.2105 99.7203 20.2284 98.9827 19.3414 98.1746C17.8281 96.8018 16.3782 95.1394 15.4083 93.3285C14.9672 92.5033 14.6967 91.5394 14.9136 90.6291C15.0988 89.8527 15.6252 89.1857 16.2807 88.733C16.5146 88.5723 16.7534 88.4361 16.9971 88.3217Z" fill="white"/>
<path d="M17.5502 89.2685C17.811 89.1517 17.404 89.3147 17.5722 89.2588C17.6404 89.2368 17.7086 89.2076 17.7769 89.1857C17.8987 89.1444 18.0254 89.1078 18.1497 89.0786C18.274 89.0494 18.4007 89.0251 18.5274 89.0007C18.737 88.9642 18.5177 88.9959 18.4909 89.0056C18.5762 88.9764 18.7004 88.9861 18.7906 88.9813C19.0489 88.9667 19.3072 88.974 19.5655 88.9934C19.6386 89.0007 19.7093 89.008 19.7824 89.0153C19.5387 88.9934 19.6947 89.0032 19.7507 89.0129C19.9091 89.0421 20.0675 89.0713 20.2259 89.1078C20.5013 89.1736 20.7742 89.2539 21.0398 89.3464C21.1544 89.3878 21.2665 89.4316 21.3786 89.4729C21.6612 89.58 21.1787 89.3756 21.4517 89.5046C21.5345 89.5435 21.6174 89.58 21.7002 89.6214C22.2266 89.8746 22.7335 90.174 23.2135 90.5074C23.328 90.5853 23.4401 90.6681 23.5498 90.7508C23.5937 90.7849 23.7569 90.9139 23.5839 90.7752C23.6327 90.8141 23.679 90.8506 23.7277 90.8896C23.9616 91.0794 24.1883 91.2766 24.4076 91.481C24.8024 91.851 25.1654 92.2502 25.5115 92.6664C25.6796 92.8684 25.4238 92.5423 25.5066 92.6591C25.5383 92.7029 25.57 92.7443 25.6016 92.7857C25.6553 92.8587 25.7089 92.9317 25.76 93.0047C25.9038 93.2092 26.0403 93.4161 26.1646 93.6327C26.2986 93.8615 26.4107 94.0976 26.5252 94.3337C26.6008 94.4895 26.4375 94.0879 26.5325 94.3556C26.552 94.4116 26.5764 94.4676 26.5959 94.5236C26.6544 94.6842 26.7031 94.8449 26.747 95.0104C26.7835 95.1491 26.8152 95.2903 26.842 95.4339C26.8542 95.4996 26.8639 95.5629 26.8761 95.6286C26.8371 95.3779 26.881 95.7138 26.8834 95.7406C26.9102 96.0668 26.9029 96.3905 26.8737 96.7167C26.8956 96.4733 26.8615 96.7799 26.842 96.87C26.8103 97.016 26.7738 97.1621 26.7299 97.3057C26.7129 97.3641 26.6934 97.4201 26.6739 97.4761C26.6739 97.4761 26.5691 97.7536 26.6324 97.5953C26.6958 97.4371 26.5788 97.7073 26.5764 97.7097C26.5374 97.7901 26.496 97.868 26.4521 97.9458C26.3863 98.0627 26.3157 98.1746 26.2377 98.2842C26.2036 98.3329 26.0744 98.4838 26.223 98.3109C26.1841 98.3548 26.1475 98.401 26.1085 98.4448C26.0208 98.5446 25.9258 98.6371 25.8283 98.7272C25.7747 98.7759 25.7186 98.8245 25.6601 98.8708C25.8575 98.7101 25.626 98.8854 25.5943 98.9073C25.4798 98.9803 25.3555 99.0363 25.241 99.1069C25.0875 99.2018 25.4627 99.0387 25.1728 99.1385C25.1094 99.1604 25.0436 99.1848 24.9802 99.2042C24.817 99.2554 24.6513 99.2894 24.4831 99.3211C24.5294 99.3138 24.6903 99.304 24.4709 99.3211C24.3686 99.3284 24.2662 99.3357 24.1639 99.3381C23.9909 99.343 23.8203 99.3284 23.6497 99.3211C23.6107 99.3211 23.4353 99.2943 23.6327 99.3211C23.5644 99.3113 23.4962 99.2992 23.428 99.287C23.0892 99.2213 22.7603 99.1215 22.4386 98.9949C22.6214 99.0679 22.4167 98.9827 22.3704 98.9633C22.2924 98.9268 22.2168 98.8902 22.1389 98.8513C22.0024 98.7807 21.8684 98.7077 21.7343 98.6298C21.437 98.4546 21.1592 98.2574 20.8814 98.0554C20.723 97.941 21.0715 98.2136 20.8181 98.0043C20.7645 97.9605 20.7109 97.9166 20.6572 97.8728C20.5378 97.773 20.4209 97.6732 20.3039 97.571C20.0432 97.3422 19.7897 97.1037 19.5387 96.8627C19.0416 96.3808 18.564 95.8745 18.1132 95.3463C17.9962 95.21 17.8841 95.0712 17.772 94.9325C17.7281 94.8765 17.6818 94.8205 17.638 94.7646C17.7525 94.9082 17.5405 94.6331 17.5161 94.6039C17.2944 94.3045 17.0824 93.9978 16.8801 93.6838C16.6778 93.3699 16.4756 93.0266 16.3001 92.6834C16.2684 92.6202 16.2392 92.5593 16.2075 92.496C16.0979 92.2745 16.227 92.5861 16.1563 92.3719C16.0954 92.1893 16.0321 92.0092 15.9882 91.8218C15.9687 91.7366 15.9516 91.6514 15.937 91.5662C15.9785 91.7902 15.9322 91.4737 15.9322 91.447C15.9297 91.3788 15.9273 91.3107 15.9297 91.2425C15.9297 91.1816 15.9541 90.9285 15.9248 91.1232C15.9516 90.9334 16.0077 90.7508 16.0735 90.5707C16.0589 90.6121 15.9785 90.7606 16.0735 90.5804C16.1174 90.5001 16.1588 90.4198 16.2075 90.3395C16.2392 90.2859 16.2758 90.2372 16.3074 90.1861C16.3805 90.0863 16.3781 90.0863 16.3026 90.1861C16.3318 90.1496 16.361 90.1155 16.3927 90.0815C16.5073 89.9549 16.6315 89.8429 16.7558 89.7285C16.7924 89.6969 16.9215 89.6166 16.7509 89.7285C16.8362 89.6725 16.9166 89.6141 17.0019 89.5581C17.175 89.4486 17.3577 89.3512 17.5429 89.2636C18.062 89.0154 18.2399 88.234 17.9353 87.7643C17.5917 87.2312 16.9898 87.1071 16.4341 87.3724C14.9428 88.0831 13.8218 89.451 13.7341 91.1354C13.6464 92.8198 14.5968 94.3021 15.5228 95.5751C16.4488 96.8481 17.5234 98.031 18.7077 99.0825C19.8921 100.134 21.2591 101.091 22.8358 101.395C24.4977 101.714 26.2255 101.385 27.4683 100.183C28.5356 99.1483 29.0961 97.6294 29.0888 96.1568C29.0742 93.4526 27.3611 91.0526 25.3409 89.3902C22.8748 87.3626 19.5387 85.9655 16.4341 87.3724C15.9102 87.6109 15.7421 88.4093 16.0418 88.8717C16.3903 89.4121 16.9824 89.5192 17.5429 89.2636L17.5502 89.2685Z" fill="#2C2C30"/>
<path d="M23.7435 81.401C23.9444 81.0701 24.1549 80.7416 24.3726 80.4204C24.4803 80.261 24.5903 80.1016 24.7027 79.9445C24.7697 79.8503 24.8391 79.7562 24.9084 79.6619C24.9395 79.6209 25.1213 79.3818 25.0185 79.5146C25.6141 78.7465 26.2552 78.0146 26.9441 77.3287C27.2718 77.0002 27.6115 76.6837 27.9584 76.377C28.1306 76.2248 28.3076 76.0726 28.4846 75.9253C28.566 75.8577 28.6449 75.7925 28.7262 75.7272C28.7669 75.6958 28.8076 75.662 28.8458 75.6306C28.8602 75.6185 29.0181 75.4954 28.9367 75.5582C28.8506 75.6258 28.9822 75.5219 28.987 75.5195C29.0396 75.4785 29.0922 75.4374 29.1472 75.3987C29.2262 75.3384 29.3051 75.2804 29.3865 75.2224C29.5539 75.0992 29.7261 74.9785 29.896 74.8577C30.2213 74.6331 30.5514 74.4157 30.8863 74.2055C31.5417 73.7973 32.2187 73.4205 32.91 73.0751C33.4148 72.8215 33.5966 72.0582 33.2951 71.5872C32.9603 71.0655 32.3622 70.9278 31.8216 71.1983C28.6832 72.7684 25.8414 75.0075 23.655 77.7755C23.0139 78.5847 22.4183 79.4252 21.88 80.3093C21.5858 80.7948 21.7604 81.5266 22.2652 81.7972C22.7699 82.0677 23.4229 81.9252 23.7387 81.4083L23.7435 81.401Z" fill="#2C2C30"/>
<path d="M64.9483 70.4838C70.6895 72.3336 75.5584 76.7271 77.9831 82.245C78.4266 83.2552 80.1227 89.3208 76.828 92.9646C74.4277 95.6177 70.6847 95.4935 65.867 95.3353C58.5686 95.0943 53.9239 92.3366 50.6097 90.3699C47.8853 88.7537 46.3867 87.359 45.9821 85.4044C45.6873 83.9854 46.0625 82.71 46.4037 81.8945C46.2794 81.8678 45.2145 81.6219 44.7491 80.6021C44.3421 79.7088 44.5858 78.6427 45.2803 77.9855C46.0065 77.2991 46.9983 77.4183 47.6514 77.4889C48.5798 77.5912 49.2597 77.9806 49.6179 78.2216C50.5074 78.3335 51.409 78.4577 52.318 78.5989C57.8497 79.4532 62.9427 80.7359 67.5777 82.2475" fill="white"/>
<path d="M64.6558 71.5402C64.9457 71.6352 65.2357 71.735 65.5233 71.8421C65.6378 71.8859 65.7523 71.9297 65.8669 71.9735C65.9522 72.0076 66.0375 72.0416 66.1227 72.0757C66.1739 72.0952 66.4274 72.2047 66.1983 72.1074C66.732 72.3386 67.2559 72.5869 67.7701 72.8595C68.8252 73.4193 69.8292 74.0668 70.7796 74.7897C70.6017 74.6558 70.7674 74.7799 70.8113 74.8164C70.8722 74.8627 70.9307 74.9114 70.9916 74.9601C71.0988 75.0452 71.2061 75.1329 71.3108 75.2229C71.557 75.4298 71.7982 75.6416 72.037 75.8582C72.4659 76.2501 72.8802 76.659 73.2774 77.085C73.6965 77.5328 74.0889 78.0002 74.4715 78.4772C74.4983 78.5113 74.5982 78.6428 74.469 78.4724C74.5056 78.5211 74.5421 78.5697 74.5811 78.6184C74.6737 78.7401 74.7639 78.8643 74.854 78.9884C75.0319 79.2367 75.2074 79.4874 75.3731 79.7429C75.7094 80.2541 76.0237 80.7798 76.3137 81.3178C76.4453 81.5612 76.5696 81.8046 76.6914 82.0528C76.8133 82.3011 76.9035 82.5835 77.0472 82.8196C76.823 82.4496 76.9814 82.6614 77.0326 82.8098C77.074 82.9267 77.113 83.0459 77.1471 83.1652C77.2349 83.4524 77.3104 83.7421 77.3762 84.0366C77.4639 84.426 77.537 84.8179 77.5955 85.2122C77.6028 85.256 77.6053 85.2999 77.615 85.3412C77.5565 85.0516 77.5931 85.1757 77.6028 85.2487C77.6175 85.3607 77.6296 85.4751 77.6418 85.5871C77.6662 85.8207 77.6857 86.0568 77.6979 86.2929C77.7247 86.7773 77.7271 87.2666 77.7003 87.7509C77.6857 87.9968 77.6638 88.2402 77.6369 88.4836C77.615 88.6856 77.6467 88.4519 77.6467 88.4252C77.6467 88.4982 77.6223 88.5858 77.6101 88.6588C77.5882 88.7878 77.5638 88.9193 77.5395 89.0458C77.4323 89.5619 77.2495 90.0389 77.096 90.5379C77.0472 90.6961 77.2081 90.2969 77.096 90.5379C77.074 90.5866 77.0521 90.6377 77.0277 90.6864C76.9692 90.8105 76.9083 90.9298 76.845 91.0515C76.7134 91.2949 76.5696 91.5286 76.4112 91.7549C76.3722 91.8134 76.3284 91.8669 76.2894 91.9253C76.1919 92.0641 76.4575 91.7282 76.2796 91.9375C76.1968 92.0348 76.1163 92.1322 76.0311 92.2271C75.858 92.417 75.6728 92.5971 75.4779 92.7651C75.4291 92.8064 75.3804 92.8454 75.3341 92.8868C75.183 93.0133 75.3658 92.8697 75.378 92.8551C75.3171 92.9354 75.1562 93.0158 75.0734 93.0693C74.8662 93.2056 74.6542 93.3298 74.4325 93.4417C74.3228 93.4977 74.2083 93.5488 74.0962 93.6024C74.0109 93.6413 74.0011 93.6949 74.1522 93.5805C74.1084 93.6145 74.0304 93.6291 73.9768 93.6486C73.738 93.7387 73.4967 93.8166 73.2506 93.8872C73.0045 93.9577 72.7681 94.0113 72.5244 94.06C72.405 94.0843 72.288 94.1062 72.1686 94.1257C72.1004 94.1379 72.0346 94.1476 71.9664 94.1573C71.9249 94.1646 71.8859 94.1695 71.8445 94.1744C71.7617 94.1865 71.7909 94.1817 71.9298 94.1622C71.8445 94.1281 71.5984 94.2011 71.5107 94.2109C71.3961 94.223 71.284 94.2328 71.1695 94.2425C70.8625 94.2669 70.553 94.2839 70.2435 94.2961C69.6343 94.3204 69.0251 94.3228 68.4158 94.3155C67.0536 94.2985 65.6817 94.2742 64.3219 94.1573C64.0051 94.1306 63.6859 94.0989 63.3691 94.06C63.2667 94.0478 63.1619 94.0356 63.0596 94.021C63.1059 94.0259 63.2643 94.0502 63.045 94.021C62.8598 93.9942 62.677 93.9675 62.4918 93.9383C61.8655 93.836 61.2441 93.7143 60.6276 93.5683C59.5018 93.303 58.393 92.9646 57.3086 92.5582C57.0771 92.4705 56.8456 92.3805 56.6165 92.288C56.5605 92.2661 56.1438 92.1079 56.4313 92.2125C56.2949 92.1639 56.1633 92.0957 56.0317 92.0373C55.576 91.8353 55.1276 91.6235 54.6816 91.3996C52.9295 90.5209 51.1628 89.54 49.5642 88.4057C49.4473 88.3229 49.3327 88.2353 49.2182 88.1525C49.0695 88.0455 49.4131 88.3108 49.1841 88.1282C49.1378 88.0917 49.089 88.0528 49.0427 88.0162C48.821 87.8361 48.6065 87.6487 48.4018 87.4516C48.2118 87.269 48.0314 87.0767 47.8633 86.8747C47.8365 86.8406 47.7829 86.7944 47.7682 86.7578C47.8487 86.9355 47.8535 86.8722 47.8048 86.8017C47.7219 86.6824 47.6367 86.5631 47.5587 86.439C47.4466 86.2564 47.3515 86.0666 47.2565 85.8743C47.1517 85.6601 47.3126 86.0568 47.2711 85.9084C47.2565 85.8524 47.2297 85.7988 47.2102 85.7429C47.1712 85.6309 47.1371 85.5189 47.1054 85.4045C47.0713 85.2755 47.0421 85.1441 47.0177 85.0102C46.9738 84.7863 47.0006 84.908 47.0055 84.9615C46.9909 84.852 46.9836 84.74 46.9787 84.6281C46.9714 84.4845 46.9714 84.3408 46.9763 84.1972C46.9787 84.0926 46.986 83.9879 46.9958 83.8857C47.0006 83.8346 47.0469 83.54 47.0055 83.7761C47.0981 83.2334 47.2516 82.71 47.4636 82.1989C47.6756 81.6877 47.2224 80.9673 46.6985 80.8504C46.6497 80.8407 46.601 80.8261 46.5547 80.8139C46.5108 80.8017 46.467 80.7847 46.4231 80.7701C46.4012 80.7628 46.3792 80.7506 46.3573 80.7458C46.2476 80.7141 46.5839 80.8577 46.4743 80.7945C46.3573 80.7287 46.2355 80.6752 46.1209 80.6022C46.0917 80.5827 46.0649 80.5608 46.0356 80.5437C45.9309 80.4829 46.1282 80.6022 46.1161 80.607C46.0819 80.6168 45.9235 80.4245 45.8967 80.3977C45.8797 80.3807 45.7846 80.2809 45.8797 80.3855C45.9747 80.4902 45.8651 80.3636 45.8456 80.3295C45.7968 80.2565 45.7603 80.1786 45.7188 80.1007C45.6579 79.9937 45.7383 80.1373 45.7408 80.1519C45.7262 80.0934 45.7018 80.0375 45.6872 79.979C45.675 79.9352 45.6701 79.889 45.6579 79.8476C45.6116 79.7064 45.6579 80.0204 45.6579 79.8744C45.6579 79.7722 45.653 79.6675 45.653 79.5653C45.6555 79.3559 45.6092 79.7113 45.6604 79.5068C45.6823 79.4216 45.7042 79.3365 45.7286 79.2513C45.7822 79.0614 45.7359 79.2269 45.714 79.2659C45.7408 79.2123 45.7651 79.1588 45.7944 79.1077C45.8188 79.0663 45.9796 78.8253 45.904 78.9227C45.8285 79.02 45.9942 78.8302 46.0235 78.801C46.0576 78.7669 46.0917 78.7353 46.1282 78.7036C46.0892 78.7377 45.9674 78.801 46.1355 78.7085C46.1745 78.6866 46.2208 78.6671 46.255 78.6403C46.3695 78.5576 46.1039 78.6817 46.2379 78.6428C46.3354 78.616 46.4328 78.5843 46.5303 78.56C46.7375 78.5065 46.3646 78.5624 46.5766 78.5503C46.7667 78.5381 46.9568 78.5357 47.1468 78.5478C47.3052 78.5576 47.4612 78.5722 47.6196 78.5916C47.7122 78.6038 47.5879 78.5868 47.5782 78.5868C47.6488 78.5989 47.7171 78.6111 47.7853 78.6257C47.8998 78.6501 48.0119 78.6793 48.124 78.7133C48.2288 78.745 48.3287 78.7864 48.4335 78.8204C48.2605 78.7645 48.3945 78.8034 48.4847 78.8448C48.6358 78.9178 48.782 78.9981 48.9209 79.0857C49.1987 79.2586 49.4692 79.3097 49.7908 79.3511C49.9273 79.3681 50.0638 79.3851 50.1978 79.4046C50.1954 79.4046 50.3854 79.429 50.2855 79.4168C50.2076 79.407 50.4123 79.4338 50.4317 79.4363C50.963 79.5093 51.4942 79.5872 52.023 79.6675C53.0611 79.8281 54.0968 80.0058 55.13 80.2005C57.1185 80.5754 59.0948 81.0111 61.0565 81.5101C63.1522 82.0431 65.2284 82.6468 67.2827 83.3161C67.8286 83.4938 68.5036 83.1092 68.6327 82.5518C68.7692 81.9506 68.45 81.3957 67.8675 81.2034C63.3545 79.7332 58.7366 78.5843 54.0578 77.7884C52.5811 77.5377 51.0995 77.3235 49.6154 77.1361L50.1686 77.2846C49.4253 76.788 48.5846 76.5154 47.7025 76.4083C46.8203 76.3012 45.9455 76.328 45.1437 76.7466C43.243 77.7397 42.9384 80.4659 44.3664 81.9701C44.8172 82.4447 45.4678 82.8171 46.1087 82.9583L45.3436 81.6099C44.7928 82.9437 44.6174 84.4309 44.9512 85.8402C45.2144 86.9526 45.8358 87.9432 46.618 88.7635C47.5367 89.7274 48.6748 90.4892 49.8079 91.1756C50.5877 91.6478 51.3748 92.1079 52.1717 92.5509C54.1114 93.6243 56.1486 94.5419 58.2687 95.1967C60.9395 96.0218 63.7029 96.3674 66.4907 96.4575C68.9714 96.5354 71.6008 96.6693 74.006 95.9415C76.2674 95.2575 78.1073 93.6778 79.043 91.4969C79.9544 89.3744 80.0421 87.0548 79.7253 84.7936C79.623 84.0609 79.4768 83.3331 79.2648 82.6224C79.0211 81.8094 78.6385 81.0403 78.2413 80.2955C75.7996 75.717 71.73 72.0806 66.9537 70.0749C66.3884 69.8388 65.8157 69.6246 65.2333 69.4348C64.6874 69.2571 64.0124 69.6417 63.8833 70.1991C63.7468 70.8003 64.0636 71.3577 64.6484 71.5475L64.6558 71.5402Z" fill="#2C2C30"/>
<path d="M48.8173 81.5608C48.387 81.4356 47.9545 81.3089 47.5242 81.1837C47.4059 81.1362 47.2807 81.1103 47.1441 81.1074C47.0075 81.0887 46.8709 81.0916 46.7366 81.1189C46.6022 81.1391 46.4861 81.1779 46.3883 81.2355C46.2767 81.2816 46.1879 81.342 46.1242 81.4169C45.999 81.5666 45.9352 81.7494 46.0217 81.9164L46.1242 82.0704C46.2152 82.1683 46.3382 82.2446 46.4907 82.3022C46.921 82.4274 47.3535 82.5541 47.7838 82.6793C47.9021 82.7268 48.0274 82.7527 48.1639 82.7556C48.3005 82.7743 48.4371 82.7714 48.5714 82.7441C48.7058 82.7239 48.8219 82.6851 48.9198 82.6275C49.0313 82.5814 49.1201 82.521 49.1838 82.4461C49.309 82.2964 49.3728 82.1136 49.2863 81.9466L49.1838 81.7926C49.0928 81.6947 48.9698 81.6184 48.8173 81.5608Z" fill="#2C2C30"/>
</svg>
