<svg width="15" height="18" viewBox="0 0 15 18" fill="none" xmlns="http://www.w3.org/2000/svg">
<path d="M14.25 3H11.925C11.7509 2.15356 11.2904 1.39301 10.6209 0.846539C9.95151 0.300068 9.11415 0.00109089 8.25 0L6.75 0C5.88585 0.00109089 5.04849 0.300068 4.37906 0.846539C3.70964 1.39301 3.24907 2.15356 3.075 3H0.75C0.551088 3 0.360322 3.07902 0.21967 3.21967C0.0790176 3.36032 0 3.55109 0 3.75C0 3.94891 0.0790176 4.13968 0.21967 4.28033C0.360322 4.42098 0.551088 4.5 0.75 4.5H1.5V14.25C1.50119 15.2442 1.89666 16.1973 2.59966 16.9003C3.30267 17.6033 4.2558 17.9988 5.25 18H9.75C10.7442 17.9988 11.6973 17.6033 12.4003 16.9003C13.1033 16.1973 13.4988 15.2442 13.5 14.25V4.5H14.25C14.4489 4.5 14.6397 4.42098 14.7803 4.28033C14.921 4.13968 15 3.94891 15 3.75C15 3.55109 14.921 3.36032 14.7803 3.21967C14.6397 3.07902 14.4489 3 14.25 3ZM6.75 1.5H8.25C8.71521 1.50057 9.16885 1.64503 9.54871 1.91358C9.92857 2.18213 10.2161 2.56162 10.3717 3H4.62825C4.78394 2.56162 5.07143 2.18213 5.45129 1.91358C5.83115 1.64503 6.28479 1.50057 6.75 1.5ZM12 14.25C12 14.8467 11.7629 15.419 11.341 15.841C10.919 16.2629 10.3467 16.5 9.75 16.5H5.25C4.65326 16.5 4.08097 16.2629 3.65901 15.841C3.23705 15.419 3 14.8467 3 14.25V4.5H12V14.25Z" fill="#696972"/>
<path d="M6 13.4995C6.19891 13.4995 6.38968 13.4205 6.53033 13.2798C6.67098 13.1392 6.75 12.9484 6.75 12.7495V8.24951C6.75 8.0506 6.67098 7.85983 6.53033 7.71918C6.38968 7.57853 6.19891 7.49951 6 7.49951C5.80109 7.49951 5.61032 7.57853 5.46967 7.71918C5.32902 7.85983 5.25 8.0506 5.25 8.24951V12.7495C5.25 12.9484 5.32902 13.1392 5.46967 13.2798C5.61032 13.4205 5.80109 13.4995 6 13.4995Z" fill="#696972"/>
<path d="M8.99988 13.4995C9.1988 13.4995 9.38956 13.4205 9.53022 13.2798C9.67087 13.1392 9.74989 12.9484 9.74989 12.7495V8.24951C9.74989 8.0506 9.67087 7.85983 9.53022 7.71918C9.38956 7.57853 9.1988 7.49951 8.99988 7.49951C8.80097 7.49951 8.6102 7.57853 8.46955 7.71918C8.3289 7.85983 8.24988 8.0506 8.24988 8.24951V12.7495C8.24988 12.9484 8.3289 13.1392 8.46955 13.2798C8.6102 13.4205 8.80097 13.4995 8.99988 13.4995Z" fill="#696972"/>
</svg>
