<svg width="16" height="16" viewBox="0 0 16 16" fill="none" xmlns="http://www.w3.org/2000/svg">
<path d="M14.744 1.25523C12.4498 -1.03399 6.24544 -0.0571821 3.09386 3.09141C-0.0577164 6.24 -1.03457 12.4404 1.25633 14.733C2.32906 15.6333 3.70936 16.083 5.107 15.9874C8.00089 15.9618 10.7815 14.86 12.9065 12.8968C16.0567 9.74823 17.0349 3.54779 14.744 1.25523V1.25523ZM10.8934 1.32195C11.9377 1.23832 12.9751 1.5514 13.7985 2.19868C14.4769 2.87723 14.7514 4.19098 14.6499 5.68888L10.3098 1.35198C10.5067 1.3393 10.7044 1.32195 10.8934 1.32195V1.32195ZM2.2018 13.7882C1.52341 13.111 1.24899 11.7972 1.35048 10.2993L5.69058 14.6363C4.19424 14.7397 2.87953 14.4661 2.2018 13.7882ZM11.9624 11.9534C10.6698 13.1704 9.07066 14.0137 7.33581 14.3934L1.59352 8.65533C1.97432 6.92228 2.81925 5.32522 4.038 4.03485C5.3327 2.81824 6.93473 1.97722 8.67189 1.60218L14.4048 7.3309C14.0249 9.06444 13.1807 10.6622 11.9624 11.9534V11.9534ZM11.8108 7.79862C11.6856 7.9237 11.5158 7.99397 11.3387 7.99397C11.1617 7.99397 10.9919 7.9237 10.8666 7.79862L10.0033 6.93591L8.94431 7.99411L9.80766 8.85683C9.87143 8.91837 9.9223 8.992 9.95729 9.0734C9.99229 9.1548 10.0107 9.24236 10.0115 9.33095C10.0122 9.41954 9.99535 9.5074 9.96178 9.5894C9.92821 9.6714 9.87863 9.74589 9.81594 9.80854C9.75324 9.87119 9.67869 9.92073 9.59663 9.95428C9.51457 9.98783 9.42665 10.0047 9.33799 10.0039C9.24933 10.0032 9.16172 9.98476 9.08026 9.94979C8.99879 9.91482 8.92511 9.864 8.86352 9.80027L8.00018 8.93756L6.94119 9.99576L7.80454 10.8585C7.86831 10.92 7.91918 10.9936 7.95417 11.075C7.98917 11.1565 8.00758 11.244 8.00836 11.3326C8.00913 11.4212 7.99223 11.509 7.95866 11.591C7.92509 11.673 7.87551 11.7475 7.81281 11.8102C7.75012 11.8728 7.67557 11.9224 7.59351 11.9559C7.51145 11.9895 7.42353 12.0064 7.33487 12.0056C7.24621 12.0048 7.1586 11.9864 7.07713 11.9514C6.99567 11.9165 6.92199 11.8656 6.8604 11.8019L4.18957 9.13305C4.06794 9.00721 4.00064 8.83867 4.00216 8.66373C4.00368 8.48879 4.07391 8.32144 4.1977 8.19774C4.3215 8.07403 4.48897 8.00386 4.66404 8.00234C4.83911 8.00082 5.00778 8.06807 5.13371 8.18961L5.99705 9.05232L7.05604 7.99411L6.19269 7.1314C6.07106 7.00557 6.00376 6.83703 6.00528 6.66208C6.0068 6.48714 6.07703 6.3198 6.20083 6.19609C6.32462 6.07238 6.49209 6.00221 6.66716 6.00069C6.84223 5.99917 7.0109 6.06642 7.13683 6.18796L8.00018 7.05067L9.05916 5.99247L8.19581 5.12976C8.07418 5.00392 8.00688 4.83538 8.00841 4.66044C8.00993 4.48549 8.08015 4.31815 8.20395 4.19444C8.32775 4.07073 8.49521 4.00056 8.67029 3.99904C8.84536 3.99752 9.01402 4.06477 9.13995 4.18631L11.8108 6.85518C11.936 6.9803 12.0063 7.14998 12.0063 7.3269C12.0063 7.50382 11.936 7.6735 11.8108 7.79862V7.79862Z" fill="#2C2C30"/>
</svg>
