<svg width="14" height="14" viewBox="0 0 14 14" fill="none" xmlns="http://www.w3.org/2000/svg">
<path d="M13.3797 0.620644C12.9816 0.223219 12.4422 0 11.8797 0C11.3172 0 10.7778 0.223219 10.3797 0.620644L0.857716 10.1429C0.585036 10.414 0.36883 10.7365 0.221607 11.0918C0.0743829 11.4471 -0.000935561 11.828 8.771e-06 12.2125V13.4145C8.771e-06 13.5698 0.0616916 13.7187 0.171488 13.8285C0.281284 13.9383 0.430199 14 0.585475 14H1.78744C2.17195 14.0011 2.55286 13.9259 2.90811 13.7787C3.26336 13.6316 3.5859 13.4155 3.85706 13.1428L13.3797 3.62005C13.7769 3.22204 14 2.68268 14 2.12035C14 1.55801 13.7769 1.01865 13.3797 0.620644ZM3.02921 12.315C2.69901 12.643 2.25286 12.8277 1.78744 12.829H1.17094V12.2125C1.17035 11.9818 1.21553 11.7532 1.30386 11.5401C1.3922 11.3269 1.52194 11.1334 1.68557 10.9707L8.91197 3.74417L10.2585 5.09077L3.02921 12.315ZM12.5512 2.79218L11.084 4.25998L9.73748 2.9163L11.2052 1.44851C11.2937 1.36028 11.3986 1.29034 11.514 1.24266C11.6295 1.19499 11.7532 1.17052 11.8781 1.17065C12.003 1.17079 12.1267 1.19553 12.242 1.24345C12.3573 1.29138 12.4621 1.36155 12.5503 1.44997C12.6386 1.53839 12.7085 1.64332 12.7562 1.75877C12.8039 1.87423 12.8283 1.99794 12.8282 2.12284C12.8281 2.24775 12.8033 2.37141 12.7554 2.48676C12.7075 2.6021 12.6373 2.70688 12.5489 2.79511L12.5512 2.79218Z" fill="#696972"/>
</svg>
