<svg width="16" height="16" viewBox="0 0 16 16" fill="none" xmlns="http://www.w3.org/2000/svg">
<g clip-path="url(#clip0_17_3679)">
<path d="M13.6567 2.34398C12.5381 1.22646 11.1133 0.465659 9.56247 0.157737C8.0116 -0.150185 6.40426 0.00859873 4.94361 0.614017C3.48297 1.21943 2.23461 2.24431 1.35633 3.55908C0.478046 4.87385 0.00927734 6.4195 0.00927734 8.00064C0.00927734 9.58178 0.478046 11.1274 1.35633 12.4422C2.23461 13.757 3.48297 14.7819 4.94361 15.3873C6.40426 15.9927 8.0116 16.1515 9.56247 15.8435C11.1133 15.5356 12.5381 14.7748 13.6567 13.6573C15.1547 12.1559 15.996 10.1216 15.996 8.00064C15.996 5.8797 15.1547 3.84538 13.6567 2.34398ZM14.6227 7.28864C13.8232 7.38562 13.0122 7.29947 12.2509 7.03671C11.4897 6.77396 10.7982 6.34147 10.2288 5.772C9.6594 5.20253 9.22699 4.51099 8.96432 3.74972C8.70165 2.98846 8.61559 2.17741 8.71266 1.37798C10.2258 1.53706 11.6384 2.21093 12.7142 3.28685C13.79 4.36276 14.4637 5.77547 14.6227 7.28864ZM1.37733 8.71264C2.17678 8.61566 2.98781 8.70181 3.74905 8.96457C4.51028 9.22733 5.20178 9.65981 5.77118 10.2293C6.34059 10.7988 6.77299 11.4903 7.03567 12.2516C7.29834 13.0128 7.3844 13.8239 7.28733 14.6233C5.77418 14.4642 4.36154 13.7904 3.28575 12.7144C2.20995 11.6385 1.53624 10.2258 1.37733 8.71264ZM12.714 12.7126C11.6187 13.8103 10.1734 14.4894 8.62933 14.632C8.725 13.6542 8.60272 12.6673 8.27131 11.7424C7.93989 10.8175 7.40758 9.97756 6.71266 9.28303C6.01775 8.5885 5.17752 8.05664 4.25244 7.72574C3.32736 7.39483 2.34042 7.2731 1.36266 7.36931C1.50767 5.8255 2.18739 4.38084 3.28438 3.28495C4.38137 2.18905 5.82671 1.51077 7.37066 1.36731C7.28101 2.29168 7.38575 3.22458 7.67816 4.10605C7.97056 4.98752 8.44416 5.79807 9.06851 6.48558C9.69287 7.1731 10.4542 7.72238 11.3035 8.09812C12.1528 8.47386 13.0713 8.66774 14 8.66731C14.2113 8.66731 14.4233 8.65664 14.6353 8.63664C14.4905 10.1786 13.8108 11.6212 12.714 12.7146V12.7126Z" fill="#696972"/>
</g>
<defs>
<clipPath id="clip0_17_3679">
<rect width="16" height="16" fill="white"/>
</clipPath>
</defs>
</svg>
