<svg width="16" height="16" viewBox="0 0 16 16" fill="none" xmlns="http://www.w3.org/2000/svg">
<g clip-path="url(#clip0_17_3684)">
<path d="M15.3333 12.6664V11.3331C15.3309 9.50465 14.6461 7.74294 13.4131 6.39285C12.18 5.04276 10.4874 4.2015 8.66667 4.03377V3.14843C8.92086 3.00168 9.11952 2.77515 9.23184 2.50398C9.34416 2.23281 9.36387 1.93215 9.2879 1.64864C9.21194 1.36513 9.04454 1.11461 8.81168 0.935929C8.57882 0.75725 8.29351 0.6604 8 0.6604C7.70649 0.6604 7.42118 0.75725 7.18832 0.935929C6.95546 1.11461 6.78807 1.36513 6.7121 1.64864C6.63613 1.93215 6.65584 2.23281 6.76816 2.50398C6.88048 2.77515 7.07914 3.00168 7.33333 3.14843V4.03377C5.51259 4.2015 3.82001 5.04276 2.58694 6.39285C1.35386 7.74294 0.669088 9.50465 0.666667 11.3331V12.6664C0.489856 12.6664 0.320286 12.7367 0.195262 12.8617C0.0702379 12.9867 0 13.1563 0 13.3331C0 13.5099 0.0702379 13.6795 0.195262 13.8045C0.320286 13.9295 0.489856 13.9998 0.666667 13.9998H15.3333C15.5101 13.9998 15.6797 13.9295 15.8047 13.8045C15.9298 13.6795 16 13.5099 16 13.3331C16 13.1563 15.9298 12.9867 15.8047 12.8617C15.6797 12.7367 15.5101 12.6664 15.3333 12.6664ZM2 11.3331C2.31533 3.3771 13.6873 3.3831 14 11.3331V12.6664H2V11.3331Z" fill="#696972"/>
</g>
<defs>
<clipPath id="clip0_17_3684">
<rect width="16" height="16" fill="white"/>
</clipPath>
</defs>
</svg>
