<svg width="15" height="15" viewBox="0 0 15 15" fill="none" xmlns="http://www.w3.org/2000/svg">
<g clip-path="url(#clip0_17_3680)">
<path d="M11.875 3.75H8.125C7.55426 3.75209 6.99505 3.91086 6.50835 4.20898C6.02166 4.5071 5.62616 4.93314 5.365 5.44063C4.99025 5.15612 4.53301 5.00144 4.0625 5C3.48234 5 2.92594 5.23047 2.5157 5.6407C2.10547 6.05094 1.875 6.60734 1.875 7.1875C1.87683 7.51251 1.95181 7.83293 2.09438 8.125H1.25V1.875C1.25 1.70924 1.18415 1.55027 1.06694 1.43306C0.949732 1.31585 0.79076 1.25 0.625 1.25C0.45924 1.25 0.300269 1.31585 0.183058 1.43306C0.065848 1.55027 0 1.70924 0 1.875L0 13.125C0 13.2908 0.065848 13.4497 0.183058 13.5669C0.300269 13.6842 0.45924 13.75 0.625 13.75C0.79076 13.75 0.949732 13.6842 1.06694 13.5669C1.18415 13.4497 1.25 13.2908 1.25 13.125V11.875H13.75V13.125C13.75 13.2908 13.8158 13.4497 13.9331 13.5669C14.0503 13.6842 14.2092 13.75 14.375 13.75C14.5408 13.75 14.6997 13.6842 14.8169 13.5669C14.9342 13.4497 15 13.2908 15 13.125V6.875C14.999 6.0465 14.6694 5.25222 14.0836 4.66639C13.4978 4.08055 12.7035 3.75099 11.875 3.75ZM6.25 6.875C6.25 6.37772 6.44754 5.90081 6.79917 5.54917C7.15081 5.19754 7.62772 5 8.125 5H11.875C12.3723 5 12.8492 5.19754 13.2008 5.54917C13.5525 5.90081 13.75 6.37772 13.75 6.875V8.125H6.25V6.875ZM3.125 7.1875C3.125 7.00208 3.17998 6.82082 3.283 6.66665C3.38601 6.51248 3.53243 6.39232 3.70373 6.32136C3.87504 6.25041 4.06354 6.23184 4.2454 6.26801C4.42725 6.30419 4.5943 6.39348 4.72541 6.52459C4.85652 6.6557 4.94581 6.82275 4.98199 7.0046C5.01816 7.18646 4.99959 7.37496 4.92864 7.54627C4.85768 7.71757 4.73752 7.86399 4.58335 7.967C4.42918 8.07002 4.24792 8.125 4.0625 8.125C3.81386 8.125 3.5754 8.02623 3.39959 7.85041C3.22377 7.6746 3.125 7.43614 3.125 7.1875ZM1.25 10.625V9.375H13.75V10.625H1.25Z" fill="#2C2C30"/>
</g>
<defs>
<clipPath id="clip0_17_3680">
<rect width="15" height="15" fill="white"/>
</clipPath>
</defs>
</svg>
