<svg width="16" height="16" viewBox="0 0 16 16" fill="none" xmlns="http://www.w3.org/2000/svg">
<g clip-path="url(#clip0_17_3685)">
<path d="M13.2 2.94615C12.4184 1.88708 11.3638 1.06018 10.1489 0.553765C8.93402 0.047345 7.60437 -0.119581 6.30197 0.0708116C5.0352 0.250911 3.8376 0.759318 2.82814 1.54553C1.81868 2.33173 1.03249 3.36838 0.547671 4.55248C0.0628557 5.73658 -0.103711 7.02692 0.0645188 8.29532C0.232748 9.56372 0.729918 10.766 1.50664 11.7828C1.83735 12.2386 2.01054 12.7898 1.99997 13.3528V14.0001C1.99997 14.5306 2.21069 15.0393 2.58576 15.4144C2.96083 15.7894 3.46954 16.0001 3.99997 16.0001H8.66664C9.19707 16.0001 9.70578 15.7894 10.0809 15.4144C10.4559 15.0393 10.6666 14.5306 10.6666 14.0001H10.996C11.8038 13.9982 12.5837 13.7037 13.1912 13.1712C13.7987 12.6387 14.1928 11.9041 14.3006 11.1035L14.4466 10.0001H14.6666C14.8428 10.0039 15.0178 9.97193 15.1813 9.90624C15.3447 9.84056 15.4932 9.74248 15.6177 9.61792C15.7423 9.49336 15.8404 9.34488 15.9061 9.18143C15.9718 9.01798 16.0037 8.84293 16 8.66681C16 7.72015 14.0453 3.99015 13.2 2.94615ZM13.862 8.66681C13.7003 8.66687 13.5442 8.72566 13.4227 8.83223C13.3012 8.9388 13.2225 9.0859 13.2013 9.24615L12.9786 10.9295C12.9139 11.4098 12.6774 11.8503 12.3129 12.1697C11.9484 12.4891 11.4806 12.6657 10.996 12.6668H9.99997C9.82316 12.6668 9.65359 12.737 9.52857 12.8621C9.40354 12.9871 9.3333 13.1567 9.3333 13.3335V14.0001C9.3333 14.177 9.26307 14.3465 9.13804 14.4715C9.01302 14.5966 8.84345 14.6668 8.66664 14.6668H3.99997C3.82316 14.6668 3.65359 14.5966 3.52857 14.4715C3.40354 14.3465 3.33331 14.177 3.33331 14.0001V13.3528C3.34338 12.4969 3.07398 11.6611 2.56597 10.9721C1.93121 10.1407 1.52487 9.15766 1.38726 8.12066C1.24965 7.08367 1.38555 6.02871 1.78148 5.06045C2.17741 4.09218 2.81961 3.24426 3.64438 2.60079C4.46915 1.95731 5.44781 1.54066 6.48331 1.39215C6.76605 1.35289 7.05118 1.33329 7.33664 1.33348C8.2734 1.33222 9.19728 1.55176 10.0333 1.9743C10.8694 2.39685 11.5941 3.0105 12.1486 3.76548C13.2015 5.28041 14.0483 6.92863 14.6666 8.66681H13.862ZM10.8 5.34081C10.7564 5.26483 10.6982 5.19819 10.6288 5.1447C10.5594 5.0912 10.4802 5.05191 10.3956 5.02907C10.311 5.00622 10.2228 5.00027 10.1359 5.01155C10.049 5.02283 9.96524 5.05112 9.8893 5.09481L9.23464 5.47081C8.89511 5.12667 8.46829 4.88145 7.99997 4.76148V4.00014C7.99997 3.82333 7.92973 3.65376 7.80471 3.52874C7.67969 3.40372 7.51012 3.33348 7.3333 3.33348C7.15649 3.33348 6.98692 3.40372 6.8619 3.52874C6.73688 3.65376 6.66664 3.82333 6.66664 4.00014V4.76148C6.1976 4.88112 5.77006 5.12635 5.42997 5.47081L4.77531 5.09481C4.6994 5.05104 4.61562 5.02264 4.52874 5.01125C4.44186 4.99985 4.35359 5.00568 4.26897 5.0284C4.18434 5.05112 4.10502 5.09029 4.03553 5.14366C3.96604 5.19704 3.90775 5.26357 3.86397 5.33948C3.8202 5.41538 3.7918 5.49917 3.78041 5.58604C3.76901 5.67292 3.77484 5.76119 3.79756 5.84582C3.82028 5.93044 3.85945 6.00976 3.91282 6.07925C3.9662 6.14874 4.03273 6.20704 4.10864 6.25081L4.77064 6.63148C4.70436 6.85969 4.66937 7.09585 4.66664 7.33348C4.67002 7.5712 4.70568 7.80736 4.77264 8.03548L4.11064 8.41615C3.95734 8.50455 3.84545 8.65023 3.79956 8.82114C3.75368 8.99205 3.77757 9.17418 3.86597 9.32748C3.95438 9.48077 4.10006 9.59267 4.27097 9.63856C4.44187 9.68444 4.62401 9.66055 4.77731 9.57215L5.43197 9.19615C5.7715 9.54029 6.19832 9.7855 6.66664 9.90548V10.6668C6.66664 10.8436 6.73688 11.0132 6.8619 11.1382C6.98692 11.2632 7.15649 11.3335 7.3333 11.3335C7.51012 11.3335 7.67969 11.2632 7.80471 11.1382C7.92973 11.0132 7.99997 10.8436 7.99997 10.6668V9.90548C8.46901 9.78584 8.89655 9.5406 9.23664 9.19615L9.8913 9.57215C9.96721 9.61592 10.051 9.64431 10.1379 9.65571C10.2247 9.6671 10.313 9.66127 10.3976 9.63856C10.4823 9.61584 10.5616 9.57667 10.6311 9.5233C10.7006 9.46992 10.7589 9.40338 10.8026 9.32748C10.8464 9.25157 10.8748 9.16779 10.8862 9.08091C10.8976 8.99404 10.8918 8.90576 10.869 8.82114C10.8463 8.73652 10.8072 8.65719 10.7538 8.5877C10.7004 8.51822 10.6339 8.45992 10.558 8.41615L9.89597 8.03548C9.96225 7.80726 9.99724 7.57111 9.99997 7.33348C9.99659 7.09576 9.96093 6.8596 9.89397 6.63148L10.556 6.25081C10.7089 6.16241 10.8205 6.01692 10.8663 5.8463C10.912 5.67567 10.8882 5.49387 10.8 5.34081ZM7.3333 8.66681C7.0696 8.66681 6.81181 8.58861 6.59255 8.4421C6.37328 8.2956 6.20238 8.08736 6.10147 7.84372C6.00055 7.60009 5.97414 7.332 6.02559 7.07336C6.07704 6.81472 6.20403 6.57714 6.3905 6.39067C6.57697 6.2042 6.81454 6.07721 7.07318 6.02576C7.33183 5.97432 7.59991 6.00072 7.84355 6.10164C8.08718 6.20256 8.29542 6.37345 8.44193 6.59272C8.58844 6.81198 8.66664 7.06977 8.66664 7.33348C8.66664 7.6871 8.52616 8.02624 8.27611 8.27629C8.02606 8.52634 7.68693 8.66681 7.3333 8.66681Z" fill="#374957"/>
</g>
<defs>
<clipPath id="clip0_17_3685">
<rect width="16" height="16" fill="white"/>
</clipPath>
</defs>
</svg>
