<svg width="16" height="15" viewBox="0 0 16 15" fill="none" xmlns="http://www.w3.org/2000/svg">
<path d="M2.66658 4.00012C2.40375 4.00081 2.14339 3.94937 1.90056 3.84879C1.65774 3.7482 1.43727 3.60046 1.25191 3.41412L0.222579 2.49812C0.090501 2.38036 0.0106112 2.21496 0.000484195 2.0383C-0.00964277 1.86164 0.0508227 1.6882 0.168579 1.55612C0.286335 1.42404 0.451736 1.34415 0.628395 1.33402C0.805054 1.3239 0.978501 1.38436 1.11058 1.50212L2.16725 2.44478C2.22774 2.51272 2.30149 2.56755 2.38396 2.60591C2.46644 2.64427 2.55589 2.66535 2.64682 2.66785C2.73774 2.67035 2.82822 2.65421 2.91267 2.62044C2.99713 2.58666 3.07378 2.53596 3.13791 2.47145L5.54058 0.184118C5.66977 0.0690981 5.83862 0.00879725 6.01145 0.0159519C6.18428 0.0231066 6.34756 0.0971565 6.46681 0.222461C6.58605 0.347766 6.65193 0.514514 6.65052 0.687485C6.64911 0.860457 6.58052 1.02611 6.45925 1.14945L4.06658 3.42545C3.88243 3.60853 3.664 3.75352 3.42377 3.85212C3.18355 3.95073 2.92625 4.00102 2.66658 4.00012V4.00012ZM15.9999 2.66678C15.9999 2.48997 15.9297 2.3204 15.8047 2.19538C15.6796 2.07036 15.5101 2.00012 15.3332 2.00012H8.66658C8.48977 2.00012 8.3202 2.07036 8.19517 2.19538C8.07015 2.3204 7.99991 2.48997 7.99991 2.66678C7.99991 2.8436 8.07015 3.01316 8.19517 3.13819C8.3202 3.26321 8.48977 3.33345 8.66658 3.33345H15.3332C15.5101 3.33345 15.6796 3.26321 15.8047 3.13819C15.9297 3.01316 15.9999 2.8436 15.9999 2.66678ZM4.06658 8.75878L6.45925 6.48278C6.52603 6.42333 6.58017 6.35105 6.61844 6.27025C6.65672 6.18944 6.67835 6.10176 6.68205 6.01243C6.68575 5.92309 6.67144 5.83393 6.63997 5.75024C6.6085 5.66654 6.56052 5.59004 6.49888 5.52527C6.43725 5.4605 6.36321 5.40879 6.28118 5.37322C6.19915 5.33765 6.1108 5.31894 6.02139 5.31821C5.93198 5.31748 5.84334 5.33474 5.76074 5.36897C5.67814 5.4032 5.60327 5.4537 5.54058 5.51745L3.14058 7.80478C3.01367 7.92614 2.84484 7.99387 2.66925 7.99387C2.49365 7.99387 2.32482 7.92614 2.19791 7.80478L1.13791 6.74812C1.01218 6.62668 0.843776 6.55948 0.668978 6.561C0.49418 6.56252 0.326972 6.63263 0.203366 6.75624C0.079761 6.87984 0.00964837 7.04705 0.00812942 7.22185C0.00661048 7.39665 0.0738068 7.56505 0.195245 7.69078L1.25191 8.74745C1.62503 9.12065 2.13052 9.33126 2.65824 9.33339C3.18597 9.33551 3.69314 9.12897 4.06925 8.75878H4.06658ZM15.9999 8.00012C15.9999 7.82331 15.9297 7.65374 15.8047 7.52871C15.6796 7.40369 15.5101 7.33345 15.3332 7.33345H8.66658C8.48977 7.33345 8.3202 7.40369 8.19517 7.52871C8.07015 7.65374 7.99991 7.82331 7.99991 8.00012C7.99991 8.17693 8.07015 8.3465 8.19517 8.47152C8.3202 8.59655 8.48977 8.66678 8.66658 8.66678H15.3332C15.5101 8.66678 15.6796 8.59655 15.8047 8.47152C15.9297 8.3465 15.9999 8.17693 15.9999 8.00012ZM4.06658 14.0921L6.45658 11.8161C6.52336 11.7567 6.5775 11.6844 6.61578 11.6036C6.65405 11.5228 6.67568 11.4351 6.67938 11.3458C6.68308 11.2564 6.66877 11.1673 6.6373 11.0836C6.60584 10.9999 6.55786 10.9234 6.49622 10.8586C6.43458 10.7938 6.36054 10.7421 6.27851 10.7066C6.19648 10.671 6.10813 10.6523 6.01872 10.6515C5.92931 10.6508 5.84067 10.6681 5.75807 10.7023C5.67547 10.7365 5.6006 10.787 5.53791 10.8508L3.13791 13.1381C3.07378 13.2026 2.99713 13.2533 2.91267 13.2871C2.82822 13.3209 2.73774 13.337 2.64682 13.3345C2.55589 13.332 2.46644 13.3109 2.38396 13.2726C2.30149 13.2342 2.22774 13.1794 2.16725 13.1115L1.11058 12.1688C0.978501 12.051 0.805054 11.9906 0.628395 12.0007C0.451736 12.0108 0.286335 12.0907 0.168579 12.2228C0.0508227 12.3549 -0.00964277 12.5283 0.000484195 12.705C0.0106112 12.8816 0.090501 13.047 0.222579 13.1648L1.25191 14.0808C1.62503 14.454 2.13052 14.6646 2.65824 14.6667C3.18597 14.6688 3.69314 14.4623 4.06925 14.0921H4.06658ZM15.9999 13.3335C15.9999 13.1566 15.9297 12.9871 15.8047 12.862C15.6796 12.737 15.5101 12.6668 15.3332 12.6668H8.66658C8.48977 12.6668 8.3202 12.737 8.19517 12.862C8.07015 12.9871 7.99991 13.1566 7.99991 13.3335C7.99991 13.5103 8.07015 13.6798 8.19517 13.8049C8.3202 13.9299 8.48977 14.0001 8.66658 14.0001H15.3332C15.5101 14.0001 15.6796 13.9299 15.8047 13.8049C15.9297 13.6798 15.9999 13.5103 15.9999 13.3335Z" fill="#696972"/>
</svg>
