<svg width="16" height="16" viewBox="0 0 16 16" fill="none" xmlns="http://www.w3.org/2000/svg">
<path d="M15.4616 7.73667C15.1075 7.26383 14.6044 6.92412 14.0334 6.7724C14.3117 5.96353 14.5174 5.13147 14.6479 4.28609C14.6906 3.9788 14.6613 3.66579 14.5624 3.37173C14.4636 3.07766 14.2978 2.81055 14.0781 2.59144C13.8585 2.37232 13.5909 2.20718 13.2966 2.10901C13.0023 2.01083 12.6892 1.98231 12.382 2.02569C12.298 2.03702 12.0488 2.07367 11.7082 2.13964C11.9191 1.67281 12.019 1.16349 12.0001 0.651588C11.9973 0.564076 11.9773 0.477973 11.9412 0.398194C11.9051 0.318415 11.8537 0.246523 11.7898 0.186623C11.726 0.126723 11.6509 0.0799877 11.569 0.0490856C11.4871 0.0181834 11.3998 0.00371964 11.3123 0.00652002C11.2248 0.0093204 11.1387 0.0293301 11.0589 0.0654067C10.9791 0.101483 10.9072 0.15292 10.8473 0.216781C10.7874 0.280641 10.7407 0.355674 10.7098 0.437596C10.6789 0.519519 10.6644 0.606725 10.6672 0.694237C10.6786 1.01615 10.6125 1.33609 10.4746 1.62719C10.3782 1.36706 10.2407 1.12408 10.0674 0.907483C9.77278 0.572218 9.3988 0.31616 8.97967 0.162725C8.56054 0.00928922 8.10962 -0.0366262 7.66816 0.0291774C7.18411 0.0680288 6.72143 0.245219 6.33526 0.539634C5.8987 0.211231 5.37055 0.0271983 4.82442 0.013184C4.13143 -0.0539748 3.44007 0.156172 2.9017 0.59761C2.62834 0.840957 2.40764 1.13763 2.25314 1.46939C2.09865 1.80115 2.01364 2.161 2.00333 2.52682C1.98504 3.11259 2.1556 3.68872 2.48984 4.17014C2.08323 4.51873 1.76761 4.96105 1.57021 5.4589C1.37282 5.95674 1.2996 6.49516 1.35687 7.02763C0.829807 7.32131 0.419066 7.78642 0.192849 8.34573C-0.0333673 8.90504 -0.0614484 9.5249 0.113269 10.1024C0.569794 11.6907 1.4195 13.1383 2.58381 14.3113C3.70078 15.4003 5.20106 16.0068 6.76112 15.9999H9.24166C10.8015 16.0069 12.3017 15.4004 13.4183 14.3113C14.583 13.1385 15.433 11.6909 15.8895 10.1024C16.0085 9.70209 16.0318 9.27946 15.9574 8.86855C15.8831 8.45763 15.7133 8.06993 15.4616 7.73667ZM12.5672 3.34515C12.6704 3.33123 12.7753 3.34135 12.8739 3.3747C12.9725 3.40806 13.062 3.46375 13.1355 3.53743C13.209 3.61111 13.2645 3.70078 13.2976 3.79944C13.3307 3.8981 13.3405 4.00308 13.3263 4.10617C13.1866 4.98127 12.96 5.84027 12.6499 6.67044H10.9431L11.8048 5.8088C11.9262 5.68312 11.9934 5.51478 11.9919 5.34006C11.9904 5.16533 11.9203 4.99819 11.7967 4.87464C11.6731 4.75108 11.506 4.681 11.3312 4.67948C11.1565 4.67796 10.9882 4.74513 10.8625 4.86652L9.05838 6.67044H8.02605C7.97737 6.31996 8.01079 5.96295 8.12367 5.62758C8.23655 5.29221 8.4258 4.98765 8.67651 4.73791C8.96108 4.45069 10.0521 3.67168 12.5672 3.34515ZM3.33623 2.57146C3.34023 2.388 3.3816 2.20729 3.4578 2.04035C3.534 1.87341 3.64344 1.72376 3.77942 1.60053C4.05438 1.39731 4.39596 1.30544 4.73578 1.3433C4.89991 1.33656 5.06362 1.36459 5.21615 1.42558C5.36868 1.48656 5.50659 1.57911 5.62083 1.69716C5.71075 1.79763 5.82087 1.87799 5.94398 1.93299C6.06709 1.988 6.20042 2.0164 6.33526 2.01636C6.46979 2.0157 6.60268 1.98676 6.7253 1.93142C6.84792 1.87609 6.95753 1.79559 7.04703 1.69516C7.14643 1.59002 7.26571 1.50567 7.39796 1.44698C7.53021 1.3883 7.6728 1.35646 7.81745 1.3533C8.03775 1.31406 8.26433 1.33005 8.47694 1.39982C8.68954 1.4696 8.88153 1.59099 9.03572 1.75313C9.23804 2.01212 9.34364 2.33359 9.33429 2.66209C9.33429 2.70541 9.33429 2.80004 9.33429 2.80004C8.44957 3.11859 7.69382 3.7186 7.18299 4.508C6.76216 4.00986 6.20222 3.64862 5.57486 3.47055C4.94751 3.29247 4.28128 3.30566 3.66146 3.50841C3.44029 3.24741 3.32434 2.91335 3.33623 2.57146ZM2.66978 6.67044C2.66978 6.14023 2.88042 5.63173 3.25537 5.25681C3.63033 4.88189 4.13887 4.67127 4.66913 4.67127C5.19939 4.67127 5.70794 4.88189 6.08289 5.25681C6.45784 5.63173 6.66849 6.14023 6.66849 6.67044H2.66978ZM14.6099 9.72852C14.2117 11.0994 13.4789 12.3497 12.4773 13.367C11.6113 14.2084 10.4491 14.6753 9.24166 14.6672H6.76112C5.55337 14.675 4.39086 14.2081 3.52417 13.367C2.52255 12.3498 1.78967 11.0994 1.39152 9.72852C1.33178 9.52676 1.32019 9.3138 1.35769 9.10675C1.39519 8.8997 1.48074 8.70434 1.60745 8.53634C1.73041 8.37051 1.8906 8.23587 2.07511 8.14327C2.25963 8.05067 2.46332 8.0027 2.66978 8.00323H13.333C13.5401 8.00208 13.7446 8.04974 13.9299 8.14237C14.1151 8.23499 14.276 8.36996 14.3993 8.53634C14.5251 8.70479 14.6097 8.90037 14.6463 9.10741C14.6829 9.31444 14.6704 9.52717 14.6099 9.72852Z" fill="#2C2C30"/>
</svg>
