<svg width="16" height="16" viewBox="0 0 16 16" fill="none" xmlns="http://www.w3.org/2000/svg">
<g clip-path="url(#clip0_17_3682)">
<path d="M15.4667 0.533569C15.2194 0.284245 14.9051 0.112177 14.5618 0.0383179C14.2186 -0.0355417 13.8612 -0.00800701 13.5333 0.117569L2.10335 4.61957C1.35643 4.91495 0.742052 5.47129 0.374244 6.18533C0.00643623 6.89937 -0.0898174 7.72261 0.103349 8.50224C0.588037 10.2714 1.52481 11.884 2.82156 13.1815C4.11832 14.4789 5.73041 15.4166 7.49934 15.9022C8.27977 16.0942 9.10333 15.9967 9.81738 15.6278C10.5314 15.259 11.0875 14.6438 11.3827 13.8962L15.888 2.44824C16.0095 2.12239 16.0344 1.76841 15.9596 1.42878C15.8849 1.08915 15.7137 0.778312 15.4667 0.533569ZM7.83067 14.6076C6.29137 14.1851 4.88847 13.3694 3.75982 12.2407C2.63118 11.1119 1.81564 9.70892 1.39335 8.16957C1.29596 7.77238 1.32486 7.35471 1.47602 6.97472C1.62718 6.59473 1.89308 6.27133 2.23668 6.04957C2.3056 8.07337 3.14024 9.99554 4.57192 11.4276C6.00361 12.8597 7.92556 13.6948 9.94934 13.7642C9.7278 14.1077 9.40464 14.3736 9.02488 14.5247C8.64512 14.6759 8.22767 14.7049 7.83067 14.6076ZM10.5153 12.4562C6.38801 12.3896 3.61201 9.6129 3.54468 5.4849L14.0067 1.3649C14.094 1.33142 14.1893 1.3243 14.2807 1.34445C14.372 1.3646 14.4555 1.41111 14.5207 1.47824C14.5872 1.54042 14.634 1.62071 14.6555 1.70919C14.6769 1.79768 14.672 1.89051 14.6413 1.97624L14.2 3.0969C10.3613 1.7769 8.23867 7.23624 11.9247 8.87557L10.5153 12.4562ZM12.4133 7.6349C11.9952 7.45056 11.6646 7.1116 11.4908 6.689C11.3169 6.26639 11.3133 5.79292 11.4808 5.36773C11.6482 4.94254 11.9736 4.5986 12.3889 4.40795C12.8042 4.21729 13.2771 4.1947 13.7087 4.3449L12.4133 7.6349Z" fill="#696972"/>
<path d="M7.33333 6C6.97971 6 6.64057 6.14048 6.39052 6.39052C6.14048 6.64057 6 6.97971 6 7.33333C6 7.68695 6.14048 8.02609 6.39052 8.27614C6.64057 8.52619 6.97971 8.66666 7.33333 8.66666C7.68695 8.66666 8.02609 8.52619 8.27614 8.27614C8.52619 8.02609 8.66666 7.68695 8.66666 7.33333C8.66666 6.97971 8.52619 6.64057 8.27614 6.39052C8.02609 6.14048 7.68695 6 7.33333 6Z" fill="#696972"/>
</g>
<defs>
<clipPath id="clip0_17_3682">
<rect width="16" height="16" fill="white"/>
</clipPath>
</defs>
</svg>
