<svg width="16" height="16" viewBox="0 0 16 16" fill="none" xmlns="http://www.w3.org/2000/svg">
<g clip-path="url(#clip0_17_3681)">
<path d="M15.3334 12.0004H13.3334V10.0004C13.3334 9.8236 13.2631 9.65403 13.1381 9.529C13.0131 9.40398 12.8435 9.33374 12.6667 9.33374C12.4899 9.33374 12.3203 9.40398 12.1953 9.529C12.0703 9.65403 12 9.8236 12 10.0004V12.0004H10C9.82323 12.0004 9.65366 12.0706 9.52864 12.1957C9.40361 12.3207 9.33337 12.4903 9.33337 12.6671C9.33337 12.8439 9.40361 13.0135 9.52864 13.1385C9.65366 13.2635 9.82323 13.3337 10 13.3337H12V15.3337C12 15.5106 12.0703 15.6801 12.1953 15.8051C12.3203 15.9302 12.4899 16.0004 12.6667 16.0004C12.8435 16.0004 13.0131 15.9302 13.1381 15.8051C13.2631 15.6801 13.3334 15.5106 13.3334 15.3337V13.3337H15.3334C15.5102 13.3337 15.6798 13.2635 15.8048 13.1385C15.9298 13.0135 16 12.8439 16 12.6671C16 12.4903 15.9298 12.3207 15.8048 12.1957C15.6798 12.0706 15.5102 12.0004 15.3334 12.0004Z" fill="#696972"/>
<path d="M7.3335 4.66667V7.724L5.52884 9.52866C5.46517 9.59016 5.41438 9.66372 5.37944 9.74506C5.3445 9.82639 5.32611 9.91387 5.32534 10.0024C5.32457 10.0909 5.34144 10.1787 5.37496 10.2606C5.40848 10.3426 5.45798 10.417 5.52058 10.4796C5.58317 10.5422 5.65761 10.5917 5.73954 10.6252C5.82147 10.6587 5.90926 10.6756 5.99777 10.6748C6.08629 10.6741 6.17377 10.6557 6.25511 10.6207C6.33645 10.5858 6.41001 10.535 6.47151 10.4713L8.4715 8.47133C8.59653 8.34633 8.6668 8.17679 8.66683 7.99999V4.66667C8.66683 4.48986 8.5966 4.32029 8.47157 4.19526C8.34655 4.07024 8.17698 4 8.00017 4C7.82336 4 7.65379 4.07024 7.52877 4.19526C7.40374 4.32029 7.3335 4.48986 7.3335 4.66667Z" fill="#696972"/>
<path d="M9.81862 14.4162C8.40093 14.8157 6.89074 14.7338 5.52459 14.1832C4.15844 13.6326 3.01348 12.6445 2.26903 11.3735C1.52458 10.1026 1.22268 8.62063 1.41062 7.15974C1.59856 5.69886 2.26571 4.34156 3.30761 3.30042C4.3495 2.25929 5.70728 1.59311 7.1683 1.40623C8.62932 1.21936 10.1111 1.52233 11.3815 2.2677C12.6519 3.01308 13.6392 4.15875 14.1888 5.5253C14.7384 6.89185 14.8192 8.40209 14.4186 9.81949C14.3915 9.90471 14.3818 9.9945 14.3901 10.0835C14.3984 10.1726 14.4246 10.259 14.467 10.3378C14.5094 10.4165 14.5672 10.4859 14.637 10.5418C14.7068 10.5977 14.7871 10.639 14.8731 10.6633C14.9592 10.6875 15.0493 10.6942 15.138 10.6829C15.2267 10.6717 15.3122 10.6426 15.3895 10.5976C15.4668 10.5526 15.5342 10.4925 15.5877 10.4209C15.6413 10.3493 15.6799 10.2677 15.7013 10.1808C16.1822 8.47868 16.085 6.66508 15.4247 5.02413C14.7645 3.38319 13.5786 2.00761 12.0528 1.11288C10.527 0.218155 8.74747 -0.145166 6.99305 0.0798335C5.23863 0.304833 3.6084 1.10544 2.35776 2.35624C1.10711 3.60704 0.306696 5.23736 0.081908 6.99181C-0.14288 8.74626 0.220656 10.5257 1.11557 12.0514C2.01048 13.5771 3.3862 14.7628 5.02723 15.4229C6.66825 16.0829 8.48186 16.18 10.184 15.6988C10.27 15.6767 10.3508 15.6376 10.4216 15.5837C10.4923 15.5299 10.5516 15.4625 10.5959 15.3854C10.6402 15.3084 10.6687 15.2232 10.6796 15.135C10.6905 15.0468 10.6837 14.9573 10.6595 14.8718C10.6353 14.7862 10.5942 14.7064 10.5388 14.637C10.4833 14.5675 10.4144 14.5099 10.3363 14.4674C10.2582 14.425 10.1724 14.3986 10.084 14.3898C9.99554 14.381 9.90622 14.3899 9.82129 14.4162H9.81862Z" fill="#696972"/>
</g>
<defs>
<clipPath id="clip0_17_3681">
<rect width="16" height="16" fill="white"/>
</clipPath>
</defs>
</svg>
