<svg width="36" height="36" viewBox="0 0 36 36" fill="none" xmlns="http://www.w3.org/2000/svg">
<g clip-path="url(#clip0_17_1866)">
<path d="M36 18C36 27.941 27.941 36 18 36C8.06 36 0 27.941 0 18C0 8.06 8.06 0 18 0C27.941 0 36 8.06 36 18Z" fill="#FFCC4D"/>
<path d="M11.5 20.5C12.8807 20.5 14 18.933 14 17C14 15.067 12.8807 13.5 11.5 13.5C10.1193 13.5 9 15.067 9 17C9 18.933 10.1193 20.5 11.5 20.5Z" fill="#664500"/>
<path d="M24.5 20.5C25.8807 20.5 27 18.933 27 17C27 15.067 25.8807 13.5 24.5 13.5C23.1193 13.5 22 15.067 22 17C22 18.933 23.1193 20.5 24.5 20.5Z" fill="#664500"/>
<path d="M5.99895 13.5C5.79095 13.5 5.57995 13.435 5.39995 13.3C4.95795 12.969 4.86895 12.342 5.19995 11.9C8.46195 7.55 12.816 7.5 13 7.5C13.552 7.5 14 7.948 14 8.5C14 9.051 13.5549 9.498 13.004 9.5C12.8489 9.502 9.43595 9.586 6.79995 13.1C6.60395 13.362 6.30295 13.5 5.99895 13.5ZM30.0009 13.5C29.6959 13.5 29.397 13.362 29.2 13.1C26.559 9.579 23.139 9.501 22.9939 9.5C22.444 9.494 22 9.044 22.003 8.495C22.006 7.944 22.45 7.5 23 7.5C23.184 7.5 27.5369 7.55 30.7999 11.9C31.132 12.342 31.042 12.969 30.6 13.3C30.42 13.435 30.2099 13.5 30.0009 13.5ZM23.485 28.379C23.474 28.335 22.34 24 18 24C13.66 24 12.526 28.335 12.515 28.379C12.462 28.592 12.5589 28.81 12.747 28.923C12.935 29.035 13.18 29.009 13.343 28.863C13.352 28.855 14.356 28 18 28C21.59 28 22.617 28.83 22.656 28.863C22.7509 28.953 22.875 29 23 29C23.084 29 23.169 28.979 23.246 28.936C23.4419 28.824 23.54 28.597 23.485 28.379Z" fill="#664500"/>
<path d="M16 31C16 33.762 13.762 36 11 36C8.238 36 6 33.762 6 31C6 28.238 10 21 11 21C12 21 16 28.238 16 31Z" fill="#5DADEC"/>
</g>
<defs>
<clipPath id="clip0_17_1866">
<rect width="36" height="36" fill="white"/>
</clipPath>
</defs>
</svg>
