<svg width="26" height="26" viewBox="0 0 26 26" fill="none" xmlns="http://www.w3.org/2000/svg">
<path d="M13 26C20.1797 26 26 20.1797 26 13C26 5.8203 20.1797 0 13 0C5.8203 0 0 5.8203 0 13C0 20.1797 5.8203 26 13 26Z" fill="#FFD031"/>
<path d="M13 15.1666C10.3834 15.1666 8.64715 14.8618 6.49999 14.4444C6.0096 14.3498 5.05554 14.4444 5.05554 15.8888C5.05554 18.7777 8.37415 22.3888 13 22.3888C17.6251 22.3888 20.9444 18.7777 20.9444 15.8888C20.9444 14.4444 19.9904 14.3491 19.5 14.4444C17.3528 14.8618 15.6166 15.1666 13 15.1666Z" fill="#2C2C30"/>
<path d="M6.5 15.8889C6.5 15.8889 8.66667 16.6111 13 16.6111C17.3333 16.6111 19.5 15.8889 19.5 15.8889C19.5 15.8889 18.0556 18.7778 13 18.7778C7.94444 18.7778 6.5 15.8889 6.5 15.8889Z" fill="white"/>
<path d="M8.66664 12.2777C9.66382 12.2777 10.4722 11.146 10.4722 9.74995C10.4722 8.35389 9.66382 7.22217 8.66664 7.22217C7.66946 7.22217 6.86108 8.35389 6.86108 9.74995C6.86108 11.146 7.66946 12.2777 8.66664 12.2777Z" fill="#2C2C30"/>
<path d="M17.3329 12.2777C18.3301 12.2777 19.1385 11.146 19.1385 9.74995C19.1385 8.35389 18.3301 7.22217 17.3329 7.22217C16.3357 7.22217 15.5273 8.35389 15.5273 9.74995C15.5273 11.146 16.3357 12.2777 17.3329 12.2777Z" fill="#2C2C30"/>
</svg>
