<svg width="38" height="38" viewBox="0 0 38 38" fill="none" xmlns="http://www.w3.org/2000/svg">
<path d="M19 38C29.4934 38 38 29.706 38 19.475C38 9.24388 29.4934 0.949951 19 0.949951C8.50659 0.949951 0 9.24388 0 19.475C0 29.706 8.50659 38 19 38Z" fill="#BAE5EF"/>
<path d="M18.9998 22.5624C15.1755 22.5624 12.6379 22.1281 9.49978 21.5332C8.78306 21.3984 7.38867 21.5332 7.38867 23.5916C7.38867 27.7082 12.2389 32.8541 18.9998 32.8541C25.7596 32.8541 30.6109 27.7082 30.6109 23.5916C30.6109 21.5332 29.2165 21.3974 28.4998 21.5332C25.3616 22.1281 22.8241 22.5624 18.9998 22.5624Z" fill="#2C2C30"/>
<path d="M9.5 23.5916C9.5 23.5916 12.6667 24.6207 19 24.6207C25.3333 24.6207 28.5 23.5916 28.5 23.5916C28.5 23.5916 26.3889 27.7082 19 27.7082C11.6111 27.7082 9.5 23.5916 9.5 23.5916Z" fill="white"/>
<path d="M12.6667 18.4459C14.1241 18.4459 15.3056 16.8332 15.3056 14.8438C15.3056 12.8544 14.1241 11.2417 12.6667 11.2417C11.2093 11.2417 10.0278 12.8544 10.0278 14.8438C10.0278 16.8332 11.2093 18.4459 12.6667 18.4459Z" fill="#2C2C30"/>
<path d="M25.3332 18.4459C26.7906 18.4459 27.9721 16.8332 27.9721 14.8438C27.9721 12.8544 26.7906 11.2417 25.3332 11.2417C23.8758 11.2417 22.6943 12.8544 22.6943 14.8438C22.6943 16.8332 23.8758 18.4459 25.3332 18.4459Z" fill="#2C2C30"/>
</svg>
