<svg width="22" height="22" viewBox="0 0 22 22" fill="none" xmlns="http://www.w3.org/2000/svg">
<path d="M11 22C8.82441 22 6.69767 21.3549 4.88873 20.1462C3.07979 18.9375 1.66989 17.2195 0.83733 15.2095C0.00476615 13.1995 -0.213071 10.9878 0.211367 8.85401C0.635804 6.72022 1.68345 4.76021 3.22183 3.22183C4.76021 1.68345 6.72022 0.635804 8.85401 0.211367C10.9878 -0.213071 13.1995 0.00476615 15.2095 0.83733C17.2195 1.66989 18.9375 3.07979 20.1462 4.88873C21.3549 6.69767 22 8.82441 22 11C21.9968 13.9164 20.8369 16.7125 18.7747 18.7747C16.7125 20.8369 13.9164 21.9968 11 22ZM11 1.83334C9.18701 1.83334 7.41473 2.37095 5.90728 3.3782C4.39983 4.38545 3.22491 5.81708 2.53111 7.49207C1.83731 9.16706 1.65578 11.0102 2.00947 12.7883C2.36317 14.5665 3.23621 16.1998 4.51819 17.4818C5.80017 18.7638 7.43352 19.6368 9.21168 19.9905C10.9898 20.3442 12.8329 20.1627 14.5079 19.4689C16.1829 18.7751 17.6146 17.6002 18.6218 16.0927C19.6291 14.5853 20.1667 12.813 20.1667 11C20.164 8.56967 19.1974 6.23964 17.4789 4.52114C15.7604 2.80263 13.4303 1.83601 11 1.83334ZM16.1938 14.4338C16.3754 14.2722 16.4854 14.045 16.4995 13.8022C16.5136 13.5595 16.4307 13.3211 16.269 13.1395C16.1073 12.9579 15.8801 12.8479 15.6374 12.8339C15.3947 12.8198 15.1563 12.9027 14.9747 13.0643C13.8541 14.0078 12.4617 14.5692 11 14.6667C9.53922 14.5692 8.14754 14.0086 7.02717 13.0662C6.84581 12.9043 6.60755 12.821 6.36482 12.8348C6.12208 12.8485 5.89475 12.9581 5.73284 13.1395C5.57092 13.3209 5.48769 13.5591 5.50144 13.8019C5.51519 14.0446 5.62481 14.2719 5.80617 14.4338C7.26171 15.6773 9.08804 16.4039 11 16.5C12.912 16.4039 14.7383 15.6773 16.1938 14.4338ZM5.5 9.16667C5.5 10.0833 6.32042 10.0833 7.33334 10.0833C8.34625 10.0833 9.16667 10.0833 9.16667 9.16667C9.16667 8.68044 8.97352 8.21412 8.6297 7.87031C8.28588 7.52649 7.81957 7.33334 7.33334 7.33334C6.84711 7.33334 6.38079 7.52649 6.03697 7.87031C5.69316 8.21412 5.5 8.68044 5.5 9.16667ZM12.8333 9.16667C12.8333 10.0833 13.6538 10.0833 14.6667 10.0833C15.6796 10.0833 16.5 10.0833 16.5 9.16667C16.5 8.68044 16.3068 8.21412 15.963 7.87031C15.6192 7.52649 15.1529 7.33334 14.6667 7.33334C14.1804 7.33334 13.7141 7.52649 13.3703 7.87031C13.0265 8.21412 12.8333 8.68044 12.8333 9.16667Z" fill="#696972"/>
</svg>
