<svg width="36" height="36" viewBox="0 0 36 36" fill="none" xmlns="http://www.w3.org/2000/svg">
<g clip-path="url(#clip0_17_1673)">
<path d="M18 36C27.9411 36 36 27.9411 36 18C36 8.05887 27.9411 0 18 0C8.05887 0 0 8.05887 0 18C0 27.9411 8.05887 36 18 36Z" fill="#FFD031"/>
<path d="M18 29C19.6569 29 21 27.6569 21 26C21 24.3431 19.6569 23 18 23C16.3431 23 15 24.3431 15 26C15 27.6569 16.3431 29 18 29Z" fill="#2C2C30"/>
<path d="M17.3118 16.6121C17.1358 16.4691 16.8848 16.4651 16.7018 16.5981C16.6898 16.6071 15.4418 17.5001 12.9998 17.5001C10.5588 17.5001 9.30976 16.6071 9.29976 16.6001C9.11676 16.4631 8.86476 16.4671 8.68876 16.6091C8.51076 16.7511 8.45076 16.9951 8.54276 17.2031C8.60276 17.3381 10.0428 20.5001 12.9998 20.5001C15.9578 20.5001 17.3968 17.3381 17.4568 17.2031C17.5488 16.9961 17.4888 16.7541 17.3118 16.6121ZM27.3118 16.6121C27.1358 16.4691 26.8858 16.4641 26.7018 16.5981C26.6898 16.6071 25.4408 17.5001 22.9998 17.5001C20.5598 17.5001 19.3098 16.6071 19.2998 16.6001C19.1168 16.4631 18.8658 16.4671 18.6888 16.6091C18.5108 16.7511 18.4508 16.9951 18.5428 17.2031C18.6028 17.3381 20.0428 20.5001 22.9998 20.5001C25.9578 20.5001 27.3968 17.3381 27.4568 17.2031C27.5488 16.9961 27.4888 16.7541 27.3118 16.6121Z" fill="#2C2C30"/>
<path d="M34.4298 12.534C34.4338 12.49 34.4528 12.457 34.4528 12.411C34.4528 11.657 33.9048 11.223 33.2278 11.223H29.6458L33.9248 5.22996C34.1308 4.94696 34.2068 4.77696 34.2068 4.41896C34.2068 3.68396 33.5668 3.56996 33.3218 3.56996H27.9728L27.9408 2.88196C27.9408 2.88196 26.5318 3.71296 26.4378 3.76996C26.3438 3.82696 25.9328 4.14196 25.9328 4.75696C25.9328 5.51096 26.4788 5.94396 27.1578 5.94396H30.3068L26.0458 11.937C25.9518 12.088 25.8018 12.37 25.8018 12.672C25.8018 13.294 26.3098 13.596 26.9128 13.596H33.2278C33.4858 13.596 33.7428 13.52 33.9088 13.42L35.4118 12.532H34.4298V12.534Z" fill="#E1AE00"/>
<path d="M31.7711 5.08398H28.6221C27.9431 5.08398 27.3971 4.65098 27.3971 3.89698C27.3971 3.14298 27.9431 2.70898 28.6221 2.70898H34.7861C35.0311 2.70898 35.6711 2.82198 35.6711 3.55698C35.6711 3.91498 35.5951 4.08498 35.3891 4.36798L31.1101 10.361H34.6921C35.3691 10.361 35.9171 10.794 35.9171 11.548C35.9171 12.302 35.3691 12.735 34.6921 12.735H28.3771C27.7741 12.735 27.2661 12.433 27.2661 11.811C27.2661 11.509 27.4161 11.227 27.5101 11.076L31.7711 5.08398Z" fill="#696972"/>
<path d="M24.8858 7.47998C24.8888 7.44698 24.9038 7.42198 24.9038 7.38798C24.9038 6.82398 24.4938 6.49898 23.9868 6.49898H21.3048L24.5078 2.01198C24.6638 1.79998 24.7198 1.67298 24.7198 1.40598C24.7198 0.855981 24.2408 0.770981 24.0568 0.770981H20.0528L20.0288 0.255981C20.0288 0.255981 18.9738 0.877981 18.9038 0.920981C18.8338 0.963981 18.5258 1.19998 18.5258 1.65998C18.5258 2.22398 18.9348 2.54898 19.4428 2.54898H21.7998L18.6098 7.03598C18.5398 7.14898 18.4268 7.35998 18.4268 7.58598C18.4268 8.05198 18.8068 8.27698 19.2588 8.27698H23.9868C24.1798 8.27698 24.3718 8.21998 24.4968 8.14498L25.6218 7.47998H24.8858Z" fill="#E1AE00"/>
<path d="M22.8959 1.903H20.5389C20.0309 1.903 19.6219 1.579 19.6219 1.014C19.6219 0.45 20.0309 0.125 20.5389 0.125H25.1539C25.3379 0.125 25.8169 0.21 25.8169 0.76C25.8169 1.028 25.7599 1.155 25.6059 1.367L22.4029 5.854H25.0849C25.5899 5.854 25.9999 6.178 25.9999 6.743C25.9999 7.308 25.5899 7.632 25.0829 7.632H20.3549C19.9029 7.632 19.5229 7.406 19.5229 6.941C19.5229 6.715 19.6359 6.504 19.7059 6.391L22.8959 1.903Z" fill="#696972"/>
<path d="M17.7409 10.425C17.7439 10.397 17.7559 10.376 17.7559 10.346C17.7559 9.86297 17.4049 9.58497 16.9709 9.58497H14.6759L17.4179 5.74497C17.5499 5.56397 17.5989 5.45497 17.5989 5.22597C17.5989 4.75497 17.1889 4.68197 17.0319 4.68197H13.6049L13.5839 4.24097L12.6209 4.80997C12.5609 4.84697 12.2969 5.04797 12.2969 5.44297C12.2969 5.92597 12.6469 6.20397 13.0819 6.20397H15.0989L12.3689 10.044C12.3089 10.141 12.2119 10.322 12.2119 10.515C12.2119 10.914 12.5379 11.107 12.9239 11.107H16.9709C17.1359 11.107 17.3009 11.058 17.4069 10.994L18.3699 10.425H17.7409Z" fill="#E1AE00"/>
<path d="M16.0369 5.652H14.0199C13.5849 5.652 13.2349 5.374 13.2349 4.891C13.2349 4.408 13.5849 4.13 14.0199 4.13H17.9699C18.1269 4.13 18.5369 4.203 18.5369 4.674C18.5369 4.903 18.4889 5.012 18.3559 5.193L15.6139 9.033H17.9089C18.3429 9.033 18.6939 9.311 18.6939 9.794C18.6939 10.277 18.3429 10.555 17.9089 10.555H13.8619C13.4759 10.555 13.1499 10.362 13.1499 9.96301C13.1499 9.77001 13.2459 9.589 13.3069 9.492L16.0369 5.652Z" fill="#696972"/>
</g>
<defs>
<clipPath id="clip0_17_1673">
<rect width="36" height="36" fill="white"/>
</clipPath>
</defs>
</svg>
