<svg width="26" height="26" viewBox="0 0 26 26" fill="none" xmlns="http://www.w3.org/2000/svg">
<path d="M13.325 25.9999C20.3252 25.9999 26 20.3251 26 13.3249C26 6.32469 20.3252 0.649902 13.325 0.649902C6.32479 0.649902 0.650002 6.32469 0.650002 13.3249C0.650002 20.3251 6.32479 25.9999 13.325 25.9999Z" fill="#FFD031"/>
<path d="M8.05443 17.2832C8.08611 17.4093 8.87689 20.3668 13.3251 20.3668C17.774 20.3668 18.5641 17.4093 18.5958 17.2832C18.6345 17.1304 18.5655 16.972 18.4289 16.8931C18.2916 16.815 18.1198 16.8382 18.0064 16.9473C17.993 16.9607 16.6305 18.2543 13.3251 18.2543C10.0198 18.2543 8.65649 16.9607 8.64381 16.9481C8.57621 16.8812 8.48608 16.8459 8.39595 16.8459C8.3368 16.8459 8.27694 16.8607 8.22272 16.891C8.0847 16.9699 8.0157 17.1297 8.05443 17.2832Z" fill="#2C2C30"/>
<path d="M9.09989 12.6208C10.0721 12.6208 10.8603 11.5174 10.8603 10.1562C10.8603 8.79508 10.0721 7.69165 9.09989 7.69165C8.12764 7.69165 7.33948 8.79508 7.33948 10.1562C7.33948 11.5174 8.12764 12.6208 9.09989 12.6208Z" fill="#2C2C30"/>
<path d="M17.5499 12.6208C18.5221 12.6208 19.3103 11.5174 19.3103 10.1562C19.3103 8.79508 18.5221 7.69165 17.5499 7.69165C16.5776 7.69165 15.7895 8.79508 15.7895 10.1562C15.7895 11.5174 16.5776 12.6208 17.5499 12.6208Z" fill="#2C2C30"/>
</svg>
