<svg width="36" height="36" viewBox="0 0 36 36" fill="none" xmlns="http://www.w3.org/2000/svg">
<g clip-path="url(#clip0_17_1863)">
<path d="M18 36C27.9411 36 36 27.9411 36 18C36 8.05887 27.9411 0 18 0C8.05887 0 0 8.05887 0 18C0 27.9411 8.05887 36 18 36Z" fill="#FFCC4D"/>
<path d="M16.0001 16.958C15.5811 16.958 15.1911 16.693 15.0511 16.274C14.8481 15.675 14.0331 13.958 13.0001 13.958C11.9381 13.958 11.1121 15.785 10.9491 16.274C10.7741 16.797 10.2111 17.082 9.68408 16.906C9.16008 16.732 8.87708 16.165 9.05208 15.641C9.17708 15.264 10.3561 11.957 13.0011 11.957C15.6461 11.957 16.8241 15.264 16.9501 15.641C17.1251 16.165 16.8421 16.732 16.3181 16.906C16.2121 16.942 16.1051 16.958 16.0001 16.958ZM26.0001 16.958C25.5811 16.958 25.1911 16.693 25.0521 16.274C24.8491 15.675 24.0331 13.958 23.0001 13.958C21.9381 13.958 21.1111 15.785 20.9481 16.274C20.7731 16.797 20.2121 17.082 19.6831 16.906C19.1601 16.732 18.8761 16.165 19.0511 15.641C19.1761 15.264 20.3551 11.957 22.9991 11.957C25.6431 11.957 26.8221 15.264 26.9471 15.641C27.1221 16.165 26.8391 16.732 26.3151 16.906C26.2111 16.942 26.1051 16.958 26.0001 16.958ZM27.3351 20.691C27.1571 20.53 26.8911 20.52 26.7001 20.662C26.6611 20.691 22.7781 23.562 18.0001 23.562C13.2341 23.562 9.33808 20.691 9.30008 20.662C9.10908 20.52 8.84308 20.532 8.66508 20.691C8.48808 20.851 8.44808 21.115 8.57108 21.319C8.70008 21.534 11.7881 26.562 18.0001 26.562C24.2121 26.562 27.3011 21.534 27.4291 21.319C27.5521 21.114 27.5131 20.852 27.3351 20.691Z" fill="#664500"/>
<path d="M21.229 3.94696C21.229 4.18696 21.259 4.41896 21.311 4.64296C21.736 7.28596 24.675 10.074 26.781 10.84C28.446 10.235 30.627 8.36397 31.679 6.30096C29.59 3.86096 26.86 1.98696 23.75 0.938965C22.318 1.19596 21.229 2.44096 21.229 3.94696ZM13.743 29.078C13.8 28.836 13.833 28.584 13.833 28.324C13.833 26.491 12.347 25.005 10.514 25.005C9.40099 25.005 8.41999 25.554 7.81699 26.394C7.21499 25.555 6.23299 25.005 5.11999 25.005C3.87899 25.005 2.80899 25.694 2.23999 26.703C4.06399 29.998 6.88999 32.66 10.308 34.277C11.945 32.926 13.439 30.97 13.743 29.078ZM34.301 25.642C34.019 24.692 33.149 23.995 32.107 23.995C31.336 23.995 30.656 24.375 30.239 24.957C29.822 24.375 29.142 23.995 28.371 23.995C27.101 23.995 26.072 25.024 26.072 26.294C26.072 26.474 26.095 26.648 26.134 26.816C26.441 28.721 28.482 30.712 30.043 31.377C31.819 29.777 33.274 27.83 34.301 25.642Z" fill="#FFAC33"/>
<path d="M33.625 3.26905C33.625 1.57705 32.253 0.206055 30.562 0.206055C29.535 0.206055 28.629 0.713055 28.073 1.48805C27.517 0.713055 26.611 0.206055 25.584 0.206055C23.892 0.206055 22.521 1.57705 22.521 3.26905C22.521 3.50905 22.551 3.74105 22.603 3.96505C23.029 6.60805 25.967 9.39605 28.073 10.1621C30.179 9.39605 33.117 6.60805 33.542 3.96605C33.595 3.74105 33.625 3.50905 33.625 3.26905ZM12.208 28.4081C12.208 26.5751 10.722 25.0891 8.88903 25.0891C7.77603 25.0891 6.79503 25.6381 6.19203 26.4781C5.59002 25.6381 4.60803 25.0891 3.49503 25.0891C1.66203 25.0891 0.176025 26.5751 0.176025 28.4081C0.176025 28.6681 0.209025 28.9191 0.265025 29.1621C0.726025 32.0251 3.90903 35.0461 6.19103 35.8761C8.47303 35.0471 11.656 32.0261 12.117 29.1631C12.175 28.9191 12.208 28.6671 12.208 28.4081ZM35.948 26.1271C35.948 24.8571 34.919 23.8281 33.649 23.8281C32.878 23.8281 32.198 24.2081 31.781 24.7901C31.364 24.2081 30.684 23.8281 29.913 23.8281C28.643 23.8281 27.614 24.8571 27.614 26.1271C27.614 26.3071 27.637 26.4811 27.676 26.6491C27.995 28.6321 30.2 30.7251 31.781 31.2991C33.361 30.7251 35.567 28.6321 35.885 26.6491C35.925 26.4811 35.948 26.3071 35.948 26.1271Z" fill="#DD2E44"/>
</g>
<defs>
<clipPath id="clip0_17_1863">
<rect width="36" height="36" fill="white"/>
</clipPath>
</defs>
</svg>
